<svg width="50" height="50" viewBox="0 0 50 50" fill="none" xmlns="http://www.w3.org/2000/svg">
<g clip-path="url(#clip0_31_8)">
<mask id="mask0_31_8" style="mask-type:luminance" maskUnits="userSpaceOnUse" x="0" y="0" width="50" height="50">
<path d="M0 0H50V50H0V0Z" fill="white"/>
</mask>
<g mask="url(#mask0_31_8)">
<path d="M15.2781 42.1875C14.6641 42.1875 12.5 42.6532 12.5 43.2297C12.5 43.5172 12.75 43.75 13.0562 43.75H36.9437C37.2516 43.75 37.5 43.5157 37.5 43.2297C37.5 42.6532 35.3359 42.1875 34.7219 42.1875H15.2781ZM40.6453 43.8313C40.8203 42.4 42.3031 41.0391 44.0141 40.3329C44.9516 39.9454 45.9672 39.5266 46.9016 38.9172C46.8344 40.3704 46.5156 41.9125 44.4281 42.5891L40.6453 43.8313ZM9.30625 43.8313C9.13125 42.4 7.675 41.0391 5.96563 40.3329C5.02813 39.9469 4.0125 39.5266 3.07812 38.9172C3.14375 40.3704 3.4375 41.9125 5.525 42.5891L9.30625 43.8313Z" fill="#333333"/>
<path fill-rule="evenodd" clip-rule="evenodd" d="M15.6453 35.9375C15.7234 36.8875 16.0047 37.6875 16.3703 38.2422C16.8078 38.9094 17.2328 39.0625 17.4797 39.0625H32.5203C32.7672 39.0625 33.1922 38.9094 33.6297 38.2422C33.9937 37.6875 34.2766 36.8875 34.3547 35.9375H15.6453ZM14.7469 34.375C14.3687 34.375 14.0625 34.8407 14.0625 35.4172C14.0625 38.2922 15.5937 40.625 17.4812 40.625H32.5187C34.4078 40.625 35.9375 38.2938 35.9375 35.4172C35.9375 34.8407 35.6312 34.375 35.2531 34.375H14.7469ZM41.3687 37.5C43.7406 37.5078 45.3312 37.5 46.3375 35.5563C46.8766 34.5219 46.9703 33.8407 46.7937 32.8969C46.717 32.447 46.6046 32.004 46.4578 31.5719C46.3469 31.275 46.0875 31.1969 45.8484 31.2828C42.2078 32.5672 38.8234 33.7875 37.5 36.4735C37.7172 36.6297 38.0562 36.7953 38.4672 36.9485C39.3957 37.2969 40.3772 37.4845 41.3687 37.5ZM45.2516 33.1532C43.8609 33.6563 42.6141 34.1438 41.5547 34.7235C41.0015 35.0163 40.4818 35.3684 40.0047 35.7735C40.4656 35.875 40.9406 35.936 41.3687 35.936H41.3734C42.6297 35.9407 43.3656 35.9266 43.9203 35.761C44.3219 35.6422 44.6375 35.4422 44.9516 34.8375C45.175 34.4078 45.2594 34.1391 45.2922 33.9391C45.3234 33.7485 45.3234 33.5328 45.2578 33.186M4.74843 33.15C6.20156 33.6688 7.4828 34.1578 8.56562 34.7453C9.14687 35.0625 9.63437 35.3891 10.0359 35.7391C9.5578 35.8625 9.06718 35.9375 8.63124 35.9375C7.36249 35.9375 6.62812 35.9235 6.07343 35.7594C5.67499 35.6407 5.36249 35.4453 5.04843 34.8375C4.82499 34.4078 4.74062 34.1407 4.70781 33.9391C4.67656 33.7485 4.67656 33.5313 4.74218 33.1844M11.3047 36.9782C11.7259 36.8318 12.1274 36.634 12.5 36.3891C11.2125 33.7735 7.97187 32.6297 4.44531 31.386L4.15312 31.2828C3.91249 31.1969 3.65312 31.275 3.54218 31.5719C3.39525 32.004 3.28291 32.447 3.20624 32.8969C3.02968 33.8407 3.12343 34.5219 3.66093 35.5578C4.66874 37.5 6.24531 37.5 8.63124 37.5C9.46249 37.5 10.3484 37.3063 11.0859 37.0547C11.1609 37.0297 11.2328 37.0047 11.3047 36.9782Z" fill="#333333"/>
<path fill-rule="evenodd" clip-rule="evenodd" d="M38.3672 16.211C38.0984 16.1595 37.8047 16.1126 37.489 16.0704C37.464 16.6001 37.3953 17.1173 37.2859 17.6204C37.5703 17.6579 37.8359 17.7001 38.0781 17.7454C38.4015 17.8079 38.6437 17.961 38.8562 18.211C40.3172 20.211 41.4515 22.3985 42.1531 24.7688C42.182 24.9949 42.162 25.2245 42.0945 25.4421C42.027 25.6597 41.9136 25.8603 41.7619 26.0304C41.6102 26.2004 41.4238 26.3359 41.2153 26.4278C41.0068 26.5196 40.7809 26.5656 40.5531 26.5626H9.22184C9.02217 26.5671 8.82388 26.5285 8.64049 26.4494C8.4571 26.3703 8.29293 26.2526 8.15916 26.1043C8.02539 25.956 7.92517 25.7806 7.86534 25.59C7.80551 25.3995 7.78748 25.1982 7.81246 25.0001C8.07809 22.9048 9.73746 19.6392 11.1437 18.2095C11.3386 17.9659 11.615 17.8011 11.9218 17.7454C13.5484 17.4392 16.1734 17.3001 18.8875 17.2376C18.7985 16.7225 18.7525 16.2009 18.75 15.6782C16.0156 15.7438 13.3375 15.8892 11.6328 16.2095C11.1125 16.3095 10.5328 16.5188 9.95465 17.1954C9.0859 18.2142 7.61715 20.1829 6.61403 23.436H5.90153L6.41715 21.8751H4.68434C3.87028 21.8751 3.09059 21.9173 2.4109 22.0751C1.71403 22.2392 0.992152 22.5532 0.44684 23.1938C-0.14691 23.8907 -0.232848 25.1376 0.69684 25.8688C1.01403 26.1173 1.36246 26.2485 1.6109 26.322C1.87809 26.4017 2.15778 26.4532 2.41559 26.4876C2.93121 26.5548 3.48434 26.5688 3.95621 26.5532L4.88278 26.522L5.3859 24.9985H6.24371C6.09684 25.6782 5.90934 26.3704 5.56403 26.7485C5.2359 27.1079 4.49684 27.4751 3.78278 27.8282C2.47653 28.4735 1.3484 29.1532 0.746839 30.5782C-0.412535 34.211 -0.14691 39.8704 1.00934 43.8345L0.992152 43.8407C1.03121 43.9423 1.06403 44.0407 1.10621 44.1657L1.19528 44.4329C1.29684 44.7392 1.40309 45.0329 1.51559 45.3126C1.51559 46.7501 1.8859 50.0001 3.78121 50.0001H11.0031C12.3343 50.0595 12.4734 47.6954 12.4734 46.8751H37.5234C37.5234 47.6954 37.664 50.0595 38.9937 50.0001H46.2156C48.0797 50.0001 48.4687 46.8563 48.4812 45.386C48.8093 44.786 48.9578 44.1298 49.0375 43.6954H49.0265C50.1484 39.7376 50.3968 34.1688 49.25 30.5798C48.6484 29.1532 47.4812 28.5251 46.175 27.8782C45.6672 27.6282 44.7609 27.1095 44.4312 26.7485C44.3578 26.6657 44.1453 25.9954 43.8484 25.0001H44.6093L45.1125 26.5235L46.039 26.5548C46.5109 26.5704 47.064 26.5563 47.5797 26.4892C47.8518 26.4552 48.1209 26.3998 48.3843 26.3235C48.6328 26.2501 48.9812 26.1204 49.2984 25.8704C50.2281 25.1392 50.1422 23.8938 49.5484 23.1954C49.0031 22.5548 48.2828 22.2407 47.5843 22.0782C46.9062 21.9188 46.1265 21.8751 45.3125 21.8751H43.5828L44.0968 23.436H43.3422C42.5562 21.297 41.3203 18.9251 40.0453 17.1938C39.6255 16.6711 39.0283 16.3208 38.3672 16.2095V16.211ZM3.20309 46.7798C3.25621 47.097 3.32809 47.4142 3.42184 47.7017C3.55153 48.0892 3.68746 48.3095 3.78121 48.4095C3.78918 48.4187 3.79752 48.4275 3.80621 48.436H10.7031L10.739 48.3267C10.8765 47.8579 10.9109 47.2376 10.9109 46.8751L3.90621 46.8735C3.66863 46.875 3.43198 46.8435 3.20309 46.7798ZM39.089 46.8735C39.089 47.236 39.1234 47.8563 39.2609 48.3282L39.2968 48.4376H46.1968C46.2061 48.4286 46.215 48.4193 46.2234 48.4095C46.3172 48.3095 46.4515 48.0892 46.5797 47.7017C46.6734 47.4157 46.7468 47.1017 46.7984 46.786C46.5688 46.8455 46.3324 46.8749 46.0953 46.8735H39.089ZM46.9953 44.8267C46.7812 45.1345 46.5109 45.311 46.0953 45.311H3.90778C3.50153 45.311 3.2484 45.1157 3.01715 44.7188C2.87488 44.4639 2.75967 44.1947 2.6734 43.9157C2.12653 42.2485 1.74528 40.1204 1.61403 37.9313C1.46246 35.3892 1.65621 32.9267 2.21559 31.1267C2.5859 30.2985 3.24371 29.8392 4.47809 29.2282L4.49684 29.2188C4.84059 29.0485 5.24059 28.8517 5.5984 28.647C5.93434 28.4532 6.38278 28.172 6.7234 27.8017C6.8984 27.6079 6.99371 27.4032 7.01403 27.3595L7.01715 27.3548C7.03359 27.3187 7.04922 27.2822 7.06403 27.2454C7.60621 27.7813 8.35934 28.1251 9.2234 28.1251H40.5562C40.9928 28.128 41.4253 28.0416 41.8273 27.8713C42.2293 27.7009 42.5922 27.4502 42.8937 27.1345C42.9187 27.1985 42.95 27.2751 42.9875 27.3532V27.3595C43.0093 27.4032 43.1062 27.6095 43.2812 27.8017C43.6047 28.1563 44.0797 28.4735 44.414 28.6813C44.7906 28.9157 45.189 29.1329 45.4859 29.2782C46.7812 29.9188 47.4297 30.3298 47.7875 31.1267C48.3468 32.9267 48.5406 35.3907 48.389 37.9298C48.2359 40.497 47.7375 42.9767 47.0343 44.7313L46.9953 44.8267ZM2.81559 23.5876L2.87028 23.5751C3.30795 23.4914 3.75281 23.4511 4.1984 23.4548L4.45465 23.4579L3.90778 24.9923C3.61715 25.0017 3.2984 24.997 2.99215 24.9767C2.8179 24.964 2.64429 24.9437 2.47184 24.9157C2.12653 24.8595 1.83121 24.7704 1.66559 24.6407C1.53746 24.5392 1.52965 24.3345 1.63903 24.2079C1.82653 23.986 2.07965 23.8235 2.39996 23.7063C2.52809 23.6595 2.66559 23.6204 2.81559 23.5876ZM47.1859 23.5876L47.1312 23.5767C46.6935 23.493 46.2487 23.4527 45.8031 23.4563C45.7177 23.4587 45.6323 23.4598 45.5468 23.4595L46.0937 24.9938C46.3843 25.0032 46.7031 25.0001 47.0093 24.9782C47.189 24.9626 47.3656 24.9454 47.5297 24.9173C47.875 24.861 48.1703 24.772 48.3359 24.6423C48.464 24.5407 48.4718 24.3376 48.3625 24.2095C48.1573 23.9783 47.8949 23.8053 47.6015 23.7079C47.4658 23.6592 47.3269 23.6195 47.1859 23.5892V23.5876Z" fill="#333333"/>
<path d="M13.2812 4.6875L14.3359 7.53906L17.1875 8.59375L14.3359 9.64844L13.2812 12.5L12.2266 9.64844L9.375 8.59375L12.2266 7.53906L13.2812 4.6875ZM3.90625 12.5L4.53906 14.2109L6.25 14.8438L4.53906 15.4766L3.90625 17.1875L3.27344 15.4766L1.5625 14.8438L3.27344 14.2109L3.90625 12.5ZM4.6875 3.125L5.10937 4.26563L6.25 4.6875L5.10937 5.10937L4.6875 6.25L4.26563 5.10937L3.125 4.6875L4.26563 4.26563L4.6875 3.125Z" fill="#333333"/>
<path fill-rule="evenodd" clip-rule="evenodd" d="M42.7797 3.125C42.1078 3.125 41.4625 3.39063 40.9875 3.86719L37.2718 7.58438L38.2234 8.53594L35.8797 10.8797L35.9375 10.9375C36.25 11.25 36.1906 11.7859 35.8797 12.0969L35.3437 12.6328C36.0357 14.3027 36.1272 16.1608 35.6027 17.8906C35.0782 19.6204 33.9701 21.1148 32.4672 22.1191C30.9644 23.1235 29.1598 23.5756 27.3609 23.3985C25.562 23.2214 23.8802 22.426 22.6021 21.1479C21.3239 19.8697 20.5286 18.1879 20.3514 16.3891C20.1743 14.5902 20.6265 12.7856 21.6308 11.2827C22.6352 9.77987 24.1296 8.67177 25.8593 8.14726C27.5891 7.62275 29.4473 7.71428 31.1172 8.40625L31.6531 7.87031C31.9625 7.56094 32.4937 7.50156 32.8062 7.80625L32.8125 7.8125L32.8703 7.87031L35.214 5.52656L36.1672 6.47969L39.8828 2.76094C40.2635 2.38053 40.7154 2.07889 41.2127 1.87325C41.7101 1.66762 42.243 1.56202 42.7812 1.5625H43.0093C43.687 1.56231 44.3528 1.74018 44.94 2.07828C45.5273 2.41639 46.0154 2.90287 46.3554 3.48899C46.6955 4.07511 46.8755 4.7403 46.8776 5.41793C46.8797 6.09555 46.7036 6.76182 46.3672 7.35L45.5859 8.71406C45.4562 8.9399 45.3883 9.19587 45.3888 9.45627C45.3894 9.71668 45.4584 9.97235 45.589 10.1976C45.7197 10.4229 45.9072 10.6099 46.1329 10.7397C46.3587 10.8696 46.6146 10.9378 46.875 10.9375H49.2187C49.4259 10.9375 49.6246 11.0198 49.7711 11.1663C49.9177 11.3128 50 11.5116 50 11.7188C50 11.926 49.9177 12.1247 49.7711 12.2712C49.6246 12.4177 49.4259 12.5 49.2187 12.5H46.875C44.5343 12.5 43.0672 9.97188 44.2281 7.93906L45.0093 6.57344C45.2097 6.22289 45.3145 5.82585 45.3132 5.42208C45.3118 5.0183 45.2044 4.62197 45.0017 4.27275C44.7991 3.92354 44.5082 3.6337 44.1582 3.43227C43.8083 3.23084 43.4116 3.12488 43.0078 3.125H42.7797ZM29.8937 9.62813C28.5612 9.23512 27.1358 9.29725 25.8426 9.80471C24.5493 10.3122 23.4621 11.236 22.7524 12.4304C22.0428 13.6247 21.7514 15.0214 21.9241 16.3998C22.0968 17.7783 22.7238 19.0599 23.7062 20.0422C24.6885 21.0246 25.9701 21.6516 27.3486 21.8243C28.727 21.997 30.1237 21.7056 31.318 20.996C32.5124 20.2864 33.4362 19.1991 33.9437 17.9058C34.4512 16.6126 34.5133 15.1872 34.1203 13.8547L30.1031 17.875C29.5424 18.4357 28.782 18.7507 27.989 18.7507C27.1961 18.7507 26.4356 18.4357 25.875 17.875C25.3143 17.3143 24.9993 16.5539 24.9993 15.7609C24.9993 14.968 25.3143 14.2076 25.875 13.6469L29.8937 9.62813ZM33.6703 10.8781L36.014 8.53594L35.214 7.73594L32.8703 10.0797L32.2609 9.47031L26.9797 14.7516C26.712 15.0193 26.5616 15.3823 26.5616 15.7609C26.5616 16.1395 26.712 16.5026 26.9797 16.7703C27.2474 17.038 27.6104 17.1884 27.989 17.1884C28.3676 17.1884 28.7307 17.038 28.9984 16.7703L34.2797 11.4891L33.6703 10.8781Z" fill="#333333"/>
</g>
</g>
<defs>
<clipPath id="clip0_31_8">
<rect width="50" height="50" fill="white"/>
</clipPath>
</defs>
</svg>
