<svg width="50" height="50" viewBox="0 0 50 50" fill="none" xmlns="http://www.w3.org/2000/svg">
<g clip-path="url(#clip0_124_4943)">
<path d="M48.2425 18.1184L28.375 1.19336C27.4698 0.423633 26.3206 0.000683594 25.1325 0H4.1667C1.8666 0.00273438 0.00273438 1.8666 0 4.1667V45.8334C0.00273438 48.1334 1.8666 49.9973 4.1667 50H45.8334C48.1334 49.9973 49.9973 48.1334 50.0001 45.8333V21.9241C50.0007 20.4592 49.3582 19.0678 48.2425 18.1184ZM3.3333 19.1667H1.6667V5H3.3334L3.3333 19.1667ZM48.3333 45.8333C48.3333 47.214 47.214 48.3333 45.8333 48.3333H4.1667C2.78604 48.3333 1.6667 47.214 1.6667 45.8333V20.8333H39.5C40.8807 20.8337 42.0004 19.7147 42.0008 18.3341C42.001 17.6012 41.6797 16.9052 41.1217 16.43L26.2125 3.72998C25.9114 3.47412 25.5293 3.3335 25.1342 3.3333H1.82002C2.17188 2.33799 3.11104 1.671 4.1667 1.6666H25.1325C25.9247 1.6666 26.6911 1.94873 27.2941 2.4624L47.1616 19.3865C47.9051 20.0198 48.3333 20.9474 48.3333 21.924V45.8333ZM29.1667 18.3333V15.8333C29.1667 15.373 29.5397 15 30 15H31.6667C32.5872 15 33.3334 15.7462 33.3334 16.6667V17.5C33.3334 18.4205 32.5872 19.1667 31.6667 19.1667H30C29.5397 19.1667 29.1667 18.7936 29.1667 18.3333ZM35 17.5V16.6667C34.9959 16.3001 34.9306 15.9367 34.8066 15.5917L35.6291 13.9417L40.0399 17.6992C40.3901 17.9978 40.432 18.5237 40.1335 18.874C39.9753 19.0596 39.7438 19.1665 39.5 19.1667H34.5366C34.8366 18.6622 34.9966 18.0869 35 17.5ZM33.7108 14.0533C33.13 13.59 32.4097 13.3363 31.6667 13.3333H30C28.6193 13.3333 27.5 14.4526 27.5 15.8333V18.3333C27.5027 18.6179 27.5546 18.8997 27.6533 19.1666H5V5H25.1325L34.3217 12.8283L33.7108 14.0533Z" fill="#0E0821"/>
<path d="M8.33325 27.5H12.5C13.8807 27.5 15 26.3808 15 25C15 23.6192 13.8806 22.5 12.5 22.5H8.33325C6.95259 22.5 5.83325 23.6193 5.83325 25C5.83325 26.3808 6.95259 27.5 8.33325 27.5ZM8.33325 24.1667H12.5C12.9602 24.1667 13.3333 24.5397 13.3333 25C13.3333 25.4603 12.9602 25.8333 12.5 25.8333H8.33325C7.873 25.8333 7.49995 25.4602 7.49995 25C7.49995 24.5397 7.8731 24.1667 8.33325 24.1667Z" fill="#0E0821"/>
<path d="M23.0893 6.91086C22.7582 6.59113 22.2307 6.60031 21.9109 6.93136C21.599 7.25431 21.599 7.76633 21.9109 8.08918L23.5776 9.75588C23.9087 10.0756 24.4362 10.0664 24.756 9.73537C25.0679 9.41242 25.0679 8.90051 24.756 8.57756L23.0893 6.91086Z" fill="#0E0821"/>
<path d="M18.0893 6.91086C17.7582 6.59113 17.2307 6.60031 16.9109 6.93136C16.599 7.25431 16.599 7.76633 16.9109 8.08918L22.7442 13.9225C23.0753 14.2422 23.6028 14.233 23.9226 13.902C24.2345 13.579 24.2345 13.0671 23.9226 12.7442L18.0893 6.91086Z" fill="#0E0821"/>
<path d="M12.2558 6.91087C11.9247 6.59114 11.3972 6.60032 11.0774 6.93128C10.7655 7.25423 10.7655 7.76624 11.0774 8.08919L20.244 17.2559C20.5751 17.5756 21.1026 17.5664 21.4224 17.2354C21.7343 16.9124 21.7343 16.4005 21.4224 16.0776L12.2558 6.91087Z" fill="#0E0821"/>
<path d="M40 35.8333H36.6667V32.5C36.6667 31.5795 35.9205 30.8333 35 30.8333H31.6667C30.7462 30.8333 30 31.5795 30 32.5V35.8333H26.6667V32.5C26.6667 31.5795 25.9205 30.8333 25 30.8333H21.6667C20.7462 30.8333 20 31.5795 20 32.5V35.8333H16.6667V32.5C16.6667 31.5795 15.9205 30.8333 15 30.8333H11.6667C10.7462 30.8333 10 31.5795 10 32.5V35.8333H6.6667C5.74619 35.8333 5 36.5795 5 37.5V40.8333C5 41.7538 5.74619 42.5 6.6667 42.5H10C10.9205 42.5 11.6667 41.7538 11.6667 40.8333V37.5H15V40.8333C15 41.7538 15.7462 42.5 16.6667 42.5H20C20.9205 42.5 21.6667 41.7538 21.6667 40.8333V37.5H25V40.8333C25 41.7538 25.7462 42.5 26.6667 42.5H30C30.9205 42.5 31.6667 41.7538 31.6667 40.8333V37.5H35V40.8333C35 41.7538 35.7462 42.5 36.6667 42.5H40C40.9205 42.5 41.6667 41.7538 41.6667 40.8333V37.5C41.6667 36.5795 40.9205 35.8333 40 35.8333ZM10 40.8333H6.6667V37.5H10V40.8333ZM11.6667 32.5H15V35.8333H11.6667V32.5ZM16.6667 40.8333V37.5H20V40.8333H16.6667ZM21.6667 32.5H25V35.8333H21.6667V32.5ZM26.6667 40.8333V37.5H30V40.8333H26.6667ZM31.6667 32.5H35V35.8333H31.6667V32.5ZM36.6667 40.8333V37.5H40V40.8333H36.6667Z" fill="#0E0821"/>
</g>
<defs>
<clipPath id="clip0_124_4943">
<rect width="50" height="50" fill="white"/>
</clipPath>
</defs>
</svg>
