<svg width="50" height="50" viewBox="0 0 50 50" fill="none" xmlns="http://www.w3.org/2000/svg">
<g clip-path="url(#clip0_33_2)">
<path d="M45.8333 23.3333H44.1667C43.5036 23.3333 42.8677 23.5967 42.3989 24.0656C41.93 24.5344 41.6667 25.1703 41.6667 25.8333V26.6667H40V22.5C40 21.837 39.7366 21.2011 39.2678 20.7322C38.7989 20.2634 38.163 20 37.5 20H35C34.779 20 34.567 19.9122 34.4107 19.7559C34.2544 19.5996 34.1667 19.3877 34.1667 19.1667V17.5C34.1667 16.837 33.9033 16.2011 33.4344 15.7322C32.9656 15.2634 32.3297 15 31.6667 15H28.3333V12.5H32.5C33.163 12.5 33.7989 12.2366 34.2678 11.7678C34.7366 11.2989 35 10.663 35 10C35 9.33696 34.7366 8.70107 34.2678 8.23223C33.7989 7.76339 33.163 7.5 32.5 7.5H15.8333C15.1703 7.5 14.5344 7.76339 14.0656 8.23223C13.5967 8.70107 13.3333 9.33696 13.3333 10C13.3333 10.663 13.5967 11.2989 14.0656 11.7678C14.5344 12.2366 15.1703 12.5 15.8333 12.5H20V15H15.8333C15.1703 15 14.5344 15.2634 14.0656 15.7322C13.5967 16.2011 13.3333 16.837 13.3333 17.5C13.3333 17.721 13.2455 17.933 13.0892 18.0893C12.933 18.2455 12.721 18.3333 12.5 18.3333H9.99999C9.33695 18.3333 8.70106 18.5967 8.23222 19.0656C7.76338 19.5344 7.49999 20.1703 7.49999 20.8333V24.1667H4.99999V20.8333C4.99999 20.1703 4.73659 19.5344 4.26775 19.0656C3.79891 18.5967 3.16303 18.3333 2.49999 18.3333C1.83695 18.3333 1.20106 18.5967 0.73222 19.0656C0.263379 19.5344 -1.33514e-05 20.1703 -1.33514e-05 20.8333L-1.33514e-05 34.1667C-1.33514e-05 34.8297 0.263379 35.4656 0.73222 35.9344C1.20106 36.4033 1.83695 36.6667 2.49999 36.6667C3.16303 36.6667 3.79891 36.4033 4.26775 35.9344C4.73659 35.4656 4.99999 34.8297 4.99999 34.1667V30.8333H7.49999V35C7.49999 35.663 7.76338 36.2989 8.23222 36.7678C8.70106 37.2366 9.33695 37.5 9.99999 37.5H13.4767C13.6976 37.5 13.9096 37.5879 14.0658 37.7442L18.0892 41.7675C18.3206 42.0005 18.5961 42.1852 18.8995 42.3109C19.2029 42.4367 19.5282 42.5009 19.8567 42.5H37.5C38.163 42.5 38.7989 42.2366 39.2678 41.7678C39.7366 41.2989 40 40.663 40 40V36.6667H41.6667V37.5C41.6667 38.163 41.93 38.7989 42.3989 39.2678C42.8677 39.7366 43.5036 40 44.1667 40H45.8333C46.938 39.9987 47.997 39.5593 48.7781 38.7781C49.5592 37.997 49.9987 36.938 50 35.8333V27.5C49.9987 26.3953 49.5592 25.3363 48.7781 24.5552C47.997 23.7741 46.938 23.3347 45.8333 23.3333ZM15 10C15 9.77899 15.0878 9.56702 15.2441 9.41074C15.4003 9.25446 15.6123 9.16667 15.8333 9.16667H32.5C32.721 9.16667 32.933 9.25446 33.0892 9.41074C33.2455 9.56702 33.3333 9.77899 33.3333 10C33.3333 10.221 33.2455 10.433 33.0892 10.5893C32.933 10.7455 32.721 10.8333 32.5 10.8333H15.8333C15.6123 10.8333 15.4003 10.7455 15.2441 10.5893C15.0878 10.433 15 10.221 15 10ZM21.6667 12.5H26.6667V15H21.6667V12.5ZM3.33332 34.1667C3.33332 34.3877 3.24552 34.5996 3.08924 34.7559C2.93296 34.9122 2.721 35 2.49999 35C2.27897 35 2.06701 34.9122 1.91073 34.7559C1.75445 34.5996 1.66665 34.3877 1.66665 34.1667V20.8333C1.66665 20.6123 1.75445 20.4004 1.91073 20.2441C2.06701 20.0878 2.27897 20 2.49999 20C2.721 20 2.93296 20.0878 3.08924 20.2441C3.24552 20.4004 3.33332 20.6123 3.33332 20.8333V34.1667ZM4.99999 29.1667V25.8333H7.49999V29.1667H4.99999ZM38.3333 40C38.3333 40.221 38.2455 40.433 38.0892 40.5893C37.933 40.7455 37.721 40.8333 37.5 40.8333H19.8567C19.6357 40.8333 19.4237 40.7455 19.2675 40.5892L15.2442 36.5658C15.0126 36.333 14.7371 36.1484 14.4337 36.0227C14.1303 35.8969 13.8051 35.8326 13.4767 35.8333H9.99999C9.77897 35.8333 9.56701 35.7455 9.41073 35.5893C9.25445 35.433 9.16665 35.221 9.16665 35V20.8333C9.16665 20.6123 9.25445 20.4004 9.41073 20.2441C9.56701 20.0878 9.77897 20 9.99999 20H12.5C13.163 20 13.7989 19.7366 14.2678 19.2678C14.7366 18.7989 15 18.163 15 17.5C15 17.279 15.0878 17.067 15.2441 16.9107C15.4003 16.7545 15.6123 16.6667 15.8333 16.6667H31.6667C31.8877 16.6667 32.0996 16.7545 32.2559 16.9107C32.4122 17.067 32.5 17.279 32.5 17.5V19.1667C32.5 19.8297 32.7634 20.4656 33.2322 20.9344C33.7011 21.4033 34.3369 21.6667 35 21.6667H37.5C37.721 21.6667 37.933 21.7545 38.0892 21.9107C38.2455 22.067 38.3333 22.279 38.3333 22.5V40ZM40 35V28.3333H41.6667V35H40ZM48.3333 35.8333C48.3333 36.4964 48.0699 37.1323 47.6011 37.6011C47.1322 38.0699 46.4964 38.3333 45.8333 38.3333H44.1667C43.9456 38.3333 43.7337 38.2455 43.5774 38.0893C43.4211 37.933 43.3333 37.721 43.3333 37.5V25.8333C43.3333 25.6123 43.4211 25.4004 43.5774 25.2441C43.7337 25.0878 43.9456 25 44.1667 25H45.8333C46.4964 25 47.1322 25.2634 47.6011 25.7322C48.0699 26.2011 48.3333 26.837 48.3333 27.5V35.8333Z" fill="#0E0821"/>
</g>
<defs>
<clipPath id="clip0_33_2">
<rect width="50" height="50" fill="white"/>
</clipPath>
</defs>
</svg>
