<svg width="50" height="50" viewBox="0 0 50 50" fill="none" xmlns="http://www.w3.org/2000/svg">
<g clip-path="url(#clip0_79_849)">
<path d="M43.9517 22.5814V20.1613C43.9517 18.3476 43.2693 16.6421 42.0655 15.3226H43.5484C45.105 15.3226 46.371 14.0566 46.371 12.5C46.371 11.7436 46.0784 11.0348 45.5461 10.5024C45.0137 9.97 44.3049 9.67742 43.5484 9.67742H40.588L39.7469 4.71191C39.2839 1.98148 36.9114 0 34.1049 0H15.0887C12.2823 0 9.9098 1.98148 9.44672 4.71191L8.6064 9.67742H5.64521C4.08862 9.67742 2.82263 10.9434 2.82263 12.5C2.82263 13.2564 3.11521 13.9652 3.64759 14.4976C4.17998 15.03 4.88877 15.3226 5.64521 15.3226H7.12817C5.9244 16.6437 5.24199 18.3484 5.24199 20.1613V22.5814C4.35166 22.5854 3.62908 23.3064 3.62908 24.1936V25.8065C3.62908 26.696 4.3556 27.4194 5.24986 27.4194H6.04844V29.8387C6.04844 31.1724 7.13408 32.2581 8.46779 32.2581H13.3065C14.6402 32.2581 15.7259 31.1724 15.7259 29.8387V27.4194H18.1452C18.1452 28.3089 18.8686 29.0323 19.7581 29.0323H29.4355C30.3251 29.0323 31.0484 28.3089 31.0484 27.4194H33.4678V29.8387C33.4678 31.1724 34.5534 32.2581 35.8871 32.2581H40.7259C42.0596 32.2581 43.1452 31.1724 43.1452 29.8387V27.4194H43.9438C44.8373 27.4194 45.5646 26.696 45.5646 25.8065V24.1936C45.5646 23.3064 44.842 22.5854 43.9517 22.5814ZM17.2789 22.5806L16.5548 21.1453C16.0129 20.0412 14.908 19.3548 13.6696 19.3548H6.92026C7.09431 18.1566 7.64677 17.0493 8.51859 16.1869C9.92201 16.6354 15.9684 18.4169 23.7782 18.5405L23.8034 16.9276C17.7428 16.8323 12.691 15.6766 10.2717 15.0162C10.9687 14.7107 11.7176 14.5283 12.5001 14.5161H36.6251C37.437 14.5201 38.2081 14.7032 38.9235 15.017C36.5073 15.6774 31.4607 16.8323 25.3903 16.9276L25.4155 18.5405C33.2252 18.4169 39.2709 16.6354 40.6751 16.1869C41.5461 17.0477 42.0993 18.1558 42.2734 19.3541H36.0163C34.7775 19.3541 33.6718 20.0404 33.1331 21.1386L32.4129 22.5806H17.2789ZM13.6696 20.9677C14.287 20.9677 14.8379 21.3072 15.1104 21.8628L15.4727 22.5806H6.85489V20.9677H13.6696ZM13.455 12.9032L14.7056 5.51955C14.7741 5.13129 15.1301 4.83871 15.5321 4.83871H33.597C34.0096 4.83871 34.3573 5.12183 34.4227 5.51364L35.6741 12.9032H13.455ZM34.579 21.8549C34.8476 21.3072 35.3985 20.9677 36.0163 20.9677H42.3388V22.5806H34.2164L34.579 21.8549ZM43.5484 11.2903C43.8741 11.2903 44.1781 11.4152 44.4057 11.6428C44.6333 11.8704 44.7581 12.1743 44.7581 12.5C44.7581 13.1671 44.2155 13.7097 43.5484 13.7097H41.2701L40.8605 11.2903H43.5484ZM11.0372 4.98126C11.3679 3.02971 13.0718 1.6129 15.0887 1.6129H34.1049C36.1218 1.6129 37.8257 3.02971 38.1565 4.98047L39.6048 13.5329C38.8889 13.2163 38.121 13.0178 37.3169 12.941L36.0139 5.24587C35.8178 4.07597 34.8015 3.22581 33.597 3.22581H15.5321C14.3394 3.22581 13.3242 4.07164 13.1163 5.2443L11.8113 12.9461C11.0348 13.0265 10.2878 13.2257 9.58808 13.5356L11.0372 4.98126ZM4.78796 13.3572C4.56036 13.1296 4.43554 12.8257 4.43554 12.5C4.43554 11.8329 4.97816 11.2903 5.64521 11.2903H8.33312L7.9236 13.7097H5.64521C5.31956 13.7097 5.01557 13.5849 4.78796 13.3572ZM14.113 29.8387C14.113 30.2829 13.7507 30.6452 13.3065 30.6452H8.46779C8.02361 30.6452 7.66134 30.2829 7.66134 29.8387V27.4194H14.113V29.8387ZM5.24199 25.8065L5.24986 24.1936H18.1452V25.8065H5.24199ZM19.7581 27.4194V24.1936H29.4355V27.4194H19.7581ZM41.5323 29.8387C41.5323 30.2829 41.17 30.6452 40.7259 30.6452H35.8871C35.443 30.6452 35.0807 30.2829 35.0807 29.8387V27.4194H41.5323V29.8387ZM43.9438 25.8065H31.0484V24.1936H43.9517L43.9438 25.8065Z" fill="#0E0821"/>
<path d="M24.5967 30.6451C20.2837 30.6451 16.4574 33.537 15.2895 37.6799C15.0434 38.5159 14.9193 39.4047 14.9193 40.3226C14.9193 40.6218 14.9362 40.9113 14.9622 41.196C15.0662 42.4356 15.408 43.6224 15.975 44.7218C17.6403 47.9776 20.9437 50 24.5967 50C28.2498 50 31.5532 47.9776 33.2114 44.7348C33.3507 44.4741 33.4645 44.2056 33.5886 43.9106C34.0434 42.7636 34.2742 41.5563 34.2742 40.3226C34.2742 34.9861 29.9332 30.6451 24.5967 30.6451ZM30.8129 41.9355L31.7331 43.5484H17.2111C16.9823 43.0298 16.8079 42.4919 16.6976 41.9355H22.1774V40.3226H16.5322C16.5322 39.7646 16.6055 39.2298 16.7137 38.7097H26.629C27.9048 38.7097 29.0992 39.3184 29.854 40.3226H23.7903V41.9355H30.8129ZM24.5967 48.3871C22.0242 48.3871 19.6694 47.1735 18.1605 45.1613H31.0338C29.5256 47.1727 27.1701 48.3871 24.5967 48.3871ZM32.538 41.7039L31.5307 39.9378C30.5274 38.1855 28.6499 37.0968 26.629 37.0968H17.2131C18.4759 34.2033 21.3701 32.258 24.5967 32.258C29.0436 32.258 32.6612 35.8757 32.6612 40.3226C32.6612 40.7888 32.616 41.2499 32.538 41.7039Z" fill="#0E0821"/>
<path d="M12.6993 35.6185L11.5589 34.4782L10.0807 35.9564V33.871H8.46775V35.9564L6.98952 34.4782L5.84914 35.6185L7.32738 37.0968H5.24194V38.7097H7.32738L5.84914 40.1879L6.98952 41.3283L8.46775 39.8501V41.9355H10.0807V39.8501L11.5589 41.3283L12.6993 40.1879L11.221 38.7097H13.3065V37.0968H11.221L12.6993 35.6185ZM10.8871 37.2421V38.5652L9.93535 39.5161H8.61305L7.6613 38.5644V37.2421L8.61305 36.2903H9.93614L10.8871 37.2421Z" fill="#0E0821"/>
<path d="M42.538 43.6831L41.3976 42.5427L39.9194 44.0209V41.9355H38.3065V44.0209L36.8283 42.5427L35.6879 43.6831L37.1661 45.1613H35.0807V46.7742H37.1661L35.6879 48.2524L36.8283 49.3928L38.3065 47.9146V50H39.9194V47.9146L41.3976 49.3928L42.538 48.2524L41.0598 46.7742H43.1452V45.1613H41.0598L42.538 43.6831ZM40.7259 45.3066V46.6297L39.7741 47.5806H38.4518L37.5 46.6289V45.3066L38.4518 44.3548H39.7749L40.7259 45.3066Z" fill="#0E0821"/>
<path d="M2.82255 20.016V18.6937L3.86842 17.6475L2.15077 15.9298L1.0104 17.0702L2.48863 18.5484H0.403198V20.1613H2.48863L1.0104 21.6396L2.15077 22.7799L3.86842 21.0623L2.82255 20.016Z" fill="#0E0821"/>
<path d="M49.5968 19.3548H47.5114L48.9896 17.8766L47.8492 16.7362L46.1316 18.4539L47.1775 19.5001V20.8224L46.1316 21.8687L47.8492 23.5863L48.9896 22.4459L47.5114 20.9677H49.5968V19.3548Z" fill="#0E0821"/>
</g>
<defs>
<clipPath id="clip0_79_849">
<rect width="50" height="50" fill="white"/>
</clipPath>
</defs>
</svg>
