<svg width="50" height="50" viewBox="0 0 50 50" fill="none" xmlns="http://www.w3.org/2000/svg">
<path d="M37.5 18.75H39.8438C41.2942 18.75 42.6852 18.1738 43.7107 17.1482C44.7363 16.1227 45.3125 14.7317 45.3125 13.2812C45.3125 11.8308 44.7363 10.4398 43.7107 9.41426C42.6852 8.38867 41.2942 7.8125 39.8438 7.8125H37.5C37.0856 7.8125 36.6882 7.97712 36.3951 8.27015C36.1021 8.56317 35.9375 8.9606 35.9375 9.375V17.1875C35.9375 17.6019 36.1021 17.9993 36.3951 18.2924C36.6882 18.5854 37.0856 18.75 37.5 18.75ZM37.5 9.375H39.8438C40.8798 9.375 41.8733 9.78655 42.6059 10.5191C43.3384 11.2517 43.75 12.2452 43.75 13.2812C43.75 14.3173 43.3384 15.3108 42.6059 16.0434C41.8733 16.7759 40.8798 17.1875 39.8438 17.1875H37.5V9.375Z" fill="#0E0821"/>
<path d="M28.9062 9.375H34.375V10.9375H28.9062V9.375Z" fill="#0E0821"/>
<path d="M28.9062 12.5H34.375V14.0625H28.9062V12.5Z" fill="#0E0821"/>
<path d="M28.9062 15.625H34.375V17.1875H28.9062V15.625Z" fill="#0E0821"/>
<path d="M8.59375 39.8438V38.2812H7.03125V39.8438C7.03125 40.4654 7.27818 41.0615 7.71772 41.501C8.15726 41.9406 8.7534 42.1875 9.375 42.1875H12.5V40.625H9.375C9.1678 40.625 8.96909 40.5427 8.82257 40.3962C8.67606 40.2497 8.59375 40.051 8.59375 39.8438Z" fill="#0E0821"/>
<path d="M38.2812 39.8438C38.2812 40.051 38.1989 40.2497 38.0524 40.3962C37.9059 40.5427 37.7072 40.625 37.5 40.625H34.375V42.1875H37.5C38.1216 42.1875 38.7177 41.9406 39.1573 41.501C39.5968 41.0615 39.8438 40.4654 39.8438 39.8438V38.2812H38.2812V39.8438Z" fill="#0E0821"/>
<path d="M48.4375 13.2813C48.4412 11.6408 48.1004 10.0178 47.4371 8.51732C46.7739 7.01686 45.8031 5.67237 44.5874 4.57086C43.3717 3.46934 41.9383 2.63534 40.3799 2.12282C38.8215 1.61031 37.1729 1.4307 35.5407 1.59563C33.9085 1.76055 32.3291 2.26633 30.9047 3.08023C29.4804 3.89413 28.2428 4.99803 27.272 6.32047C26.3013 7.64292 25.619 9.15445 25.2693 10.7573C24.9197 12.3601 24.9104 14.0184 25.2422 15.625H15.3594C14.3233 15.6262 13.3295 16.0361 12.5938 16.7656L10.3828 18.9766C10.3044 19.0571 10.2432 19.1528 10.2031 19.2578L8.64063 23.4375H7.8125V21.875C7.81126 21.461 7.64625 21.0643 7.35349 20.7715C7.06073 20.4788 6.66402 20.3137 6.25 20.3125H3.90625C3.28522 20.3144 2.69015 20.5619 2.25102 21.001C1.81188 21.4402 1.56435 22.0352 1.5625 22.6563V23.4375C1.56374 23.8515 1.72875 24.2482 2.02151 24.541C2.31427 24.8338 2.71098 24.9988 3.125 25H8.05469L7.9375 25.3047L4.78125 27.8281C4.5084 28.0484 4.28824 28.3269 4.13685 28.6432C3.98546 28.9595 3.90667 29.3056 3.90625 29.6563V39.8438C3.90679 41.2704 4.46795 42.6396 5.46875 43.6563V46.0938C5.4706 46.7148 5.71813 47.3099 6.15727 47.749C6.5964 48.1881 7.19147 48.4357 7.8125 48.4375H10.9375C11.5585 48.4357 12.1536 48.1881 12.5927 47.749C13.0319 47.3099 13.2794 46.7148 13.2812 46.0938V45.3125H13.6406C13.8993 45.3125 14.1539 45.2482 14.3816 45.1255C14.6094 45.0028 14.803 44.8254 14.9453 44.6094L15.5234 43.75H31.3516L31.9297 44.6172C32.0734 44.8313 32.2676 45.0066 32.4951 45.1279C32.7227 45.2492 32.9765 45.3126 33.2344 45.3125H33.5938V46.0938C33.5956 46.7148 33.8431 47.3099 34.2823 47.749C34.7214 48.1881 35.3165 48.4357 35.9375 48.4375H39.0625C39.6835 48.4357 40.2786 48.1881 40.7177 47.749C41.1569 47.3099 41.4044 46.7148 41.4062 46.0938V43.6563C42.4058 42.6388 42.9667 41.2701 42.9688 39.8438V29.6563C42.9686 29.3048 42.8891 28.9578 42.7362 28.6413C42.5834 28.3248 42.3611 28.0468 42.0859 27.8281L38.9375 25.3047L38.8203 25H43.75C44.164 24.9988 44.5607 24.8338 44.8535 24.541C45.1462 24.2482 45.3113 23.8515 45.3125 23.4375V22.6563C45.3068 22.2617 45.202 21.8748 45.0078 21.5313C46.0932 20.4487 46.9547 19.1629 47.5432 17.7474C48.1316 16.3318 48.4355 14.8142 48.4375 13.2813ZM6.25 23.4375H3.125V22.6563C3.125 22.4491 3.20731 22.2503 3.35382 22.1038C3.50034 21.9573 3.69905 21.875 3.90625 21.875H6.25V23.4375ZM13.7031 17.875C14.1422 17.4353 14.738 17.1881 15.3594 17.1875H25.6797C25.8686 17.7251 26.0984 18.2475 26.3672 18.75H12.8203L13.7031 17.875ZM11.4766 20.3125H27.375C28.4615 21.7657 29.8716 22.9458 31.4934 23.7595C33.1153 24.5731 34.9043 24.9978 36.7188 25C36.8594 25 37 24.9844 37.1484 24.9766L37.1562 25H9.71875L11.4766 20.3125ZM8.86719 26.5625H38.0078L38.6484 27.0703L36.5391 28.125C34.9137 28.9374 33.1525 29.4433 31.3438 29.6172C30.8661 29.6654 30.3863 29.6888 29.9062 29.6875H16.9687C16.4833 29.6898 15.9981 29.6637 15.5156 29.6094C13.712 29.4397 11.9557 28.9364 10.3359 28.125L8.22656 27.0703L8.86719 26.5625ZM38.2812 29V30.75C38.2809 30.9312 38.2176 31.1067 38.1022 31.2463C37.9867 31.386 37.8263 31.4812 37.6484 31.5156L33.3047 32.3828C32.8229 32.4812 32.3223 32.4246 31.8747 32.2211C31.427 32.0176 31.0552 31.6777 30.8125 31.25L30.7969 31.2266C31.0391 31.211 31.2734 31.1953 31.5 31.1719C33.4989 30.9788 35.4453 30.42 37.2422 29.5235L38.2812 29ZM16.0781 31.2266L16.0625 31.25C15.8198 31.6777 15.448 32.0176 15.0003 32.2211C14.5527 32.4246 14.0521 32.4812 13.5703 32.3828L9.22656 31.5156C9.04866 31.4812 8.88826 31.386 8.77282 31.2463C8.65737 31.1067 8.59407 30.9312 8.59375 30.75V29L9.63281 29.5156C11.4223 30.4171 13.3645 30.9762 15.3594 31.1641C15.5938 31.1953 15.8359 31.211 16.0781 31.2266ZM11.7188 46.0938C11.7188 46.301 11.6364 46.4997 11.4899 46.6462C11.3434 46.7927 11.1447 46.875 10.9375 46.875H7.8125C7.6053 46.875 7.40659 46.7927 7.26007 46.6462C7.11356 46.4997 7.03125 46.301 7.03125 46.0938V44.7813C7.76351 45.1297 8.56405 45.3112 9.375 45.3125H11.7188V46.0938ZM16.5625 42.1875L17.6094 40.625L29.2734 40.6328L30.3125 42.1875H16.5625ZM39.8438 46.0938C39.8438 46.301 39.7614 46.4997 39.6149 46.6462C39.4684 46.7927 39.2697 46.875 39.0625 46.875H35.9375C35.7303 46.875 35.5316 46.7927 35.3851 46.6462C35.2386 46.4997 35.1562 46.301 35.1562 46.0938V45.3125H37.5C38.311 45.3112 39.1115 45.1297 39.8438 44.7813V46.0938ZM41.4062 39.8438C41.4025 40.8786 40.9898 41.87 40.258 42.6018C39.5263 43.3336 38.5349 43.7463 37.5 43.75H33.2266L30.5703 39.7578C30.4266 39.5438 30.2324 39.3684 30.0049 39.2471C29.7773 39.1259 29.5235 39.0625 29.2656 39.0625H17.6094C17.3507 39.0626 17.0961 39.1268 16.8684 39.2495C16.6406 39.3723 16.447 39.5496 16.3047 39.7656L13.6406 43.75H9.375C8.34026 43.7459 7.34908 43.333 6.61741 42.6014C5.88574 41.8697 5.47286 40.8785 5.46875 39.8438V35.6406C11.9188 36.7828 18.4503 37.4046 25 37.5C30.5169 37.4603 36.0149 36.8503 41.4062 35.6797V39.8438ZM39.8438 30.75V28.2188L39.9922 28.1485L41.1094 29.0469C41.2014 29.1196 41.276 29.2122 41.3273 29.3177C41.3787 29.4232 41.4057 29.5389 41.4062 29.6563V34.086C36.0174 35.2755 30.5185 35.8961 25 35.9375C18.4493 35.8404 11.9174 35.2107 5.46875 34.0547V29.6563C5.46955 29.5398 5.49584 29.4248 5.54578 29.3196C5.59572 29.2143 5.66809 29.1212 5.75781 29.0469L6.88281 28.1485L7.03125 28.2188V30.75C7.03254 31.2911 7.22059 31.8152 7.56364 32.2337C7.9067 32.6522 8.3837 32.9395 8.91406 33.0469L13.2578 33.9141C13.5149 33.9667 13.7767 33.9929 14.0391 33.9922C14.7257 33.9923 15.4001 33.811 15.9942 33.4666C16.5882 33.1223 17.0807 32.6271 17.4219 32.0313L17.8672 31.25H29.0078L29.4531 32.0313C29.7943 32.6271 30.2868 33.1223 30.8808 33.4666C31.4749 33.811 32.1493 33.9923 32.8359 33.9922C33.0983 33.9929 33.3601 33.9667 33.6172 33.9141L37.9609 33.0469C38.4913 32.9395 38.9683 32.6522 39.3114 32.2337C39.6544 31.8152 39.8425 31.2911 39.8438 30.75ZM43.75 23.4375H42.5469C42.9606 23.1956 43.3597 22.9295 43.7422 22.6406C43.7464 22.6449 43.7492 22.6503 43.75 22.6563V23.4375ZM43.4453 20.875C42.3738 21.8251 41.1134 22.5376 39.7468 22.9657C38.3802 23.3938 36.9385 23.5278 35.5165 23.3588C34.0945 23.1898 32.7243 22.7217 31.4961 21.9852C30.268 21.2488 29.2096 20.2607 28.3906 19.086C27.1988 17.3851 26.5604 15.3581 26.5625 13.2813C26.5599 11.584 26.9827 9.91309 27.7923 8.42131C28.6018 6.92953 29.7724 5.66444 31.1969 4.74164C32.6214 3.81883 34.2545 3.26776 35.9469 3.13876C37.6393 3.00977 39.337 3.30697 40.8849 4.00321C42.4328 4.69946 43.7816 5.77253 44.8079 7.12438C45.8342 8.47622 46.5054 10.0637 46.76 11.7418C47.0147 13.4199 46.8447 15.135 46.2657 16.7305C45.6866 18.326 44.717 19.7509 43.4453 20.875Z" fill="#0E0821"/>
</svg>
