<svg width="50" height="50" viewBox="0 0 50 50" fill="none" xmlns="http://www.w3.org/2000/svg">
<path d="M27.7686 47.3145C28.3079 47.3145 28.7451 46.8772 28.7451 46.3379C28.7451 45.7986 28.3079 45.3613 27.7686 45.3613C27.2292 45.3613 26.792 45.7986 26.792 46.3379C26.792 46.8772 27.2292 47.3145 27.7686 47.3145Z" fill="#0E0821"/>
<path d="M49.3456 22.5341C49.3411 22.5257 39.3242 5.17773 39.3242 5.17773C38.8867 4.4209 38.2568 3.79004 37.5 3.35352C36.7432 2.91699 35.8818 2.68555 35.0077 2.68555H14.9922C14.1182 2.68555 13.2568 2.91699 12.5 3.35352C11.7432 3.79004 11.1123 4.4209 10.6758 5.17773L0.667969 22.5088C0.230469 23.2646 0 24.126 0 25C0 25.874 0.230469 26.7354 0.667969 27.4922L10.6758 44.8232C11.1136 45.5806 11.7429 46.2094 12.5005 46.6467C13.2581 47.0839 14.1174 47.3142 14.9922 47.3145H23.374C23.9131 47.3145 24.3506 46.876 24.3506 46.3379C24.3506 45.7998 23.9131 45.3613 23.374 45.3613H14.9922C13.9121 45.3613 12.9072 44.7812 12.3672 43.8467L2.35937 26.5146C2.09375 26.0557 1.95312 25.5313 1.95312 25C1.95312 24.4687 2.09375 23.9453 2.35937 23.4854L12.3672 6.1543C12.9072 5.21973 13.9121 4.63867 14.9922 4.63867H20.2479C21.7284 6.08682 23.2051 7.50986 23.2207 7.525C23.35 7.64962 23.5112 7.73616 23.6865 7.7751L28.9881 8.95313L33.2569 10.9817L32.7019 13.7121C30.507 12.2104 27.8545 11.3306 25 11.3306C17.4613 11.3306 11.3281 17.4627 11.3281 25.0002C11.3281 32.5377 17.4613 38.6699 25 38.6699C32.4423 38.6699 38.5142 32.6934 38.6682 25.2884L42.159 24.6353C42.3333 24.6026 42.4954 24.5232 42.6279 24.4055L44.6447 22.6145L47.7883 23.78C47.9581 24.1651 48.0461 24.5812 48.0468 25.0021C48.0468 25.5077 47.917 26.0074 47.6739 26.4531C47.253 26.1034 46.8324 25.7532 46.4123 25.4025C46.2602 25.2755 46.0731 25.1977 45.8758 25.1796C45.6785 25.1614 45.4803 25.2037 45.3076 25.3009L40.4992 28.0052C40.321 28.1054 40.1788 28.259 40.0925 28.4444C40.0063 28.6298 39.9804 28.8375 40.0185 29.0384L40.4782 31.4619L39.7071 32.3029C39.5856 32.4355 39.503 32.5991 39.4685 32.7756C39.434 32.9521 39.449 33.1348 39.5117 33.3033L41.1606 37.7362L37.6327 43.8468C37.0928 44.7813 36.0869 45.3614 35.0077 45.3614H32.163C31.6249 45.3614 31.1864 45.7999 31.1864 46.338C31.1864 46.8761 31.6249 47.3146 32.163 47.3146H35.0077C35.8817 47.3146 36.7432 47.0841 37.5 46.6466C38.2572 46.209 38.8863 45.5803 39.3242 44.8233L49.332 27.4913C49.7691 26.7345 49.9995 25.876 50 25.0021C49.9998 24.1365 49.7743 23.286 49.3456 22.5341ZM25 36.7167C18.5383 36.7167 13.2812 31.4606 13.2812 25.0001C13.2812 18.5396 18.5383 13.2836 25 13.2836C31.4616 13.2836 36.7188 18.5396 36.7188 25.0001C36.7188 31.4606 31.4616 36.7167 25 36.7167ZM44.774 20.5792C44.608 20.5177 44.4284 20.5025 44.2544 20.5352C44.0804 20.5678 43.9186 20.6471 43.7861 20.7646L41.893 22.4459C41.884 22.4286 41.8756 22.4112 41.8655 22.3943L41.2646 21.3927C40.9869 20.9303 40.3873 20.7802 39.9246 21.0578C39.4622 21.3354 39.3122 21.9352 39.5896 22.3977L39.9841 23.055L38.5685 23.3198C38.404 21.9821 38.0409 20.6765 37.4912 19.4459L38.3315 19.1659C38.8433 18.9954 39.1198 18.4424 38.9493 17.9307C38.7788 17.419 38.226 17.1426 37.7142 17.3129L36.8126 17.6134C36.728 17.6418 36.6477 17.6817 36.574 17.7319C35.9679 16.7704 35.2451 15.8876 34.4221 15.1037L34.415 15.089L35.2888 10.7912L36.2426 10.5131C36.7604 10.3621 37.0578 9.82002 36.9068 9.30225C36.7559 8.78437 36.2131 8.48691 35.696 8.63809L33.9485 9.14756L30.1445 7.33984L30.4282 7.03047C30.7927 6.63291 30.7659 6.01523 30.3684 5.65068C29.9708 5.28613 29.3531 5.31299 28.9886 5.71045L28.0429 6.74189L24.3788 5.92773C23.9343 5.49855 23.4905 5.06876 23.0472 4.63838H35.008C36.0872 4.63838 37.0931 5.21943 37.633 6.154L42.4484 14.4928L41.7091 14.9597C41.253 15.2477 41.1168 15.8508 41.4048 16.3067C41.4732 16.4152 41.5623 16.5092 41.6671 16.5832C41.7718 16.6572 41.8901 16.7099 42.0152 16.7381C42.1403 16.7664 42.2698 16.7697 42.3962 16.7479C42.5226 16.7261 42.6434 16.6796 42.7519 16.611L43.4259 16.1854L46.2866 21.1397L44.774 20.5792ZM45.6781 27.3333C45.8726 27.4952 46.3112 27.8602 46.6848 28.1707L46.1293 29.1326L45.8016 28.8994C45.3619 28.5867 44.7523 28.6896 44.4397 29.1291C44.1271 29.5686 44.23 30.1783 44.6694 30.4909L45.1482 30.8315L44.1023 32.6426C43.7118 32.2862 43.1067 32.3043 42.7391 32.6886C42.3664 33.0783 42.3801 33.6965 42.7699 34.0692C42.7699 34.0692 43.0852 34.3684 43.0988 34.3801L42.4282 35.5413L41.5507 33.1823L42.198 32.4763L43.0155 31.8224C43.4367 31.4854 43.5051 30.8709 43.1682 30.4498C42.9311 30.1534 42.5566 30.0326 42.2087 30.104L42.0683 29.3636L45.6781 27.3333Z" fill="#0E0821"/>
<path d="M34.3625 4.92749C33.8696 4.70835 33.2924 4.93032 33.0734 5.42309L32.873 5.87377C32.654 6.36665 32.8758 6.94379 33.3686 7.16284C33.4933 7.21848 33.6283 7.24726 33.7648 7.24731C34.1389 7.24731 34.496 7.0311 34.6578 6.66723L34.8582 6.21655C35.0771 5.72368 34.8553 5.14653 34.3625 4.92749ZM38.5194 12.626L39.1706 11.7747C39.4981 11.3462 39.4166 10.7333 38.9882 10.4057C38.5594 10.078 37.9467 10.1597 37.6191 10.5881L36.9679 11.4395C36.6404 11.8679 36.7219 12.4808 37.1504 12.8084C37.3203 12.9389 37.5286 13.0095 37.7428 13.0094C37.8931 13.0096 38.0413 12.9751 38.176 12.9086C38.3107 12.8421 38.4282 12.7454 38.5194 12.626ZM40.3653 14.0593C40.0481 13.6231 39.4373 13.5269 39.0011 13.8439L38.7258 14.0442C38.2895 14.3615 38.1931 14.9722 38.5104 15.4083C38.601 15.5331 38.7199 15.6346 38.8573 15.7046C38.9947 15.7745 39.1468 15.8108 39.3009 15.8106C39.5002 15.8106 39.7012 15.7499 39.8746 15.6238L40.15 15.4235C40.5862 15.1063 40.6826 14.4956 40.3653 14.0593ZM42.3223 17.9552C41.9166 17.6 41.2994 17.6412 40.9444 18.0471L40.5938 18.4478C40.2386 18.8537 40.2798 19.4706 40.6856 19.8258C40.8633 19.9818 41.0918 20.0677 41.3283 20.0674C41.4676 20.0676 41.6053 20.038 41.7321 19.9804C41.8589 19.9229 41.972 19.8388 42.0635 19.7339L42.4141 19.3332C42.7693 18.9273 42.7282 18.3104 42.3223 17.9552Z" fill="#0E0821"/>
</svg>
