<svg width="50" height="50" viewBox="0 0 50 50" fill="none" xmlns="http://www.w3.org/2000/svg">
<path d="M29.2 33.1667C29.5444 33.1667 29.8889 33.0778 30.2111 32.9L43.8555 25.0222C44.3222 24.7556 44.6555 24.3111 44.8 23.7889C44.9444 23.2667 44.8666 22.7222 44.6 22.2556L36.7222 8.61114C36.1666 7.64447 34.9222 7.31114 33.9555 7.86669L28.3111 11.1222C28.0444 11.2778 27.9555 11.6111 28.1111 11.8778C28.2666 12.1445 28.6 12.2334 28.8666 12.0778L34.5111 8.82225C34.9444 8.56669 35.5111 8.72225 35.7666 9.15558L43.6333 22.8C43.7555 23.0111 43.7889 23.2556 43.7222 23.5C43.6555 23.7334 43.5111 23.9334 43.3 24.0556L29.6555 31.9334C29.2222 32.1889 28.6555 32.0334 28.4 31.6L20.5222 17.9556C20.4 17.7445 20.3666 17.5 20.4333 17.2556C20.5 17.0111 20.6444 16.8222 20.8555 16.7L26.5111 13.4445C26.7778 13.2889 26.8666 12.9556 26.7111 12.6889C26.5555 12.4222 26.2222 12.3334 25.9555 12.4889L20.3111 15.7445C19.8444 16.0111 19.5111 16.4556 19.3666 16.9778C19.2222 17.5 19.3 18.0445 19.5666 18.5111L27.4444 32.1556C27.8222 32.8 28.5 33.1667 29.2 33.1667Z" fill="#0E0821"/>
<path d="M31.6446 10.3889C31.9558 10.3889 32.2002 10.1444 32.2002 9.83333C32.2002 9.52222 31.9558 9.27777 31.6446 9.27777C31.3335 9.27777 31.0891 9.52222 31.0891 9.83333C31.0891 10.1444 31.3335 10.3889 31.6446 10.3889Z" fill="#0E0821"/>
<path d="M32.5221 31.4778C32.8332 31.4778 33.0776 31.2334 33.0776 30.9223C33.0776 30.6111 32.8332 30.3667 32.5221 30.3667C32.211 30.3667 31.9665 30.6111 31.9665 30.9223C31.9665 31.2334 32.211 31.4778 32.5221 31.4778Z" fill="#0E0821"/>
<path d="M27.4109 15.5222C27.6998 15.5222 27.9332 15.3111 27.9665 15.0222C27.9776 14.9667 28.1554 13.5889 29.8887 12.7889C30.0887 12.7 30.2109 12.5 30.2109 12.2889C30.2109 12.0778 30.0887 11.8778 29.8887 11.7889C28.1554 10.9889 27.9665 9.60002 27.9665 9.54446C27.9332 9.26669 27.6998 9.04446 27.4109 9.05558C27.122 9.05558 26.8887 9.26669 26.8665 9.55558C26.8554 9.61113 26.6776 10.9889 24.9443 11.7889C24.7443 11.8778 24.622 12.0778 24.622 12.2889C24.622 12.5 24.7443 12.7 24.9443 12.7889C26.6776 13.5889 26.8665 14.9667 26.8665 15.0334C26.8887 15.3111 27.122 15.5222 27.4109 15.5222ZM28.5443 12.2778C28.022 12.6556 27.6554 13.0778 27.3998 13.4778C27.1443 13.0778 26.7887 12.6556 26.2554 12.2778C26.7776 11.9 27.1443 11.4778 27.3998 11.0778C27.6554 11.4778 28.022 11.9 28.5443 12.2778Z" fill="#0E0821"/>
<path d="M41.5887 12.0334C41.8776 12.0334 42.1109 11.8222 42.1442 11.5334C42.1553 11.4778 42.3331 10.1 44.0664 9.30002C44.2664 9.21113 44.3887 9.01113 44.3887 8.80002C44.3887 8.58891 44.2664 8.38891 44.0664 8.30002C42.3331 7.48891 42.1442 6.10002 42.1442 6.04446C42.1109 5.76669 41.8776 5.54446 41.5887 5.55558C41.2998 5.55558 41.0664 5.76669 41.0442 6.05558C41.0331 6.11113 40.8553 7.48891 39.122 8.28891C38.922 8.3778 38.7998 8.5778 38.7998 8.78891C38.7998 9.00002 38.922 9.20002 39.122 9.28891C40.8776 10.1 41.0442 11.5111 41.0442 11.5222C41.0664 11.8111 41.2998 12.0334 41.5887 12.0334ZM42.7331 8.78891C42.2109 9.16669 41.8442 9.58891 41.5887 9.98891C41.3331 9.58891 40.9776 9.1778 40.4442 8.78891C40.9664 8.41113 41.3331 7.98891 41.5887 7.58891C41.8442 7.98891 42.1998 8.41113 42.7331 8.78891Z" fill="#0E0821"/>
<path d="M23.1556 7.71111C23.4445 7.71111 23.6778 7.5 23.7111 7.21111C23.7222 7.15556 23.9 5.77778 25.6333 4.97778C25.8333 4.88889 25.9556 4.68889 25.9556 4.47778C25.9556 4.26667 25.8333 4.06667 25.6333 3.97778C23.9 3.17778 23.7111 1.78889 23.7111 1.73333C23.6778 1.45556 23.4445 1.24445 23.1556 1.24445C22.8778 1.24445 22.6333 1.45556 22.6111 1.74445C22.6 1.8 22.4222 3.17778 20.6889 3.97778C20.4889 4.06667 20.3667 4.26667 20.3667 4.47778C20.3667 4.68889 20.4889 4.88889 20.6889 4.97778C22.4111 5.77778 22.6 7.16667 22.6 7.22222C22.6333 7.5 22.8778 7.71111 23.1556 7.71111ZM24.2889 4.47778C23.7667 4.85556 23.4 5.27778 23.1445 5.67778C22.8889 5.27778 22.5333 4.86667 22 4.47778C22.5222 4.1 22.8889 3.67778 23.1445 3.27778C23.4 3.67778 23.7667 4.1 24.2889 4.47778Z" fill="#0E0821"/>
<path d="M34.4554 7.01113C34.7443 7.01113 34.9776 6.80002 35.0109 6.51113C35.022 6.45558 35.1998 5.0778 36.9331 4.2778C37.1331 4.18891 37.2554 3.98891 37.2554 3.7778C37.2554 3.56669 37.1331 3.36669 36.9331 3.2778C35.1998 2.4778 35.0109 1.10002 35.0109 1.03336C34.9776 0.755578 34.7443 0.533356 34.4554 0.544467C34.1665 0.544467 33.9331 0.755578 33.9109 1.04447C33.8998 1.10002 33.722 2.4778 31.9887 3.2778C31.7887 3.36669 31.6665 3.56669 31.6665 3.7778C31.6665 3.98891 31.7887 4.18891 31.9887 4.2778C33.7443 5.08891 33.9109 6.50002 33.9109 6.51113C33.9331 6.78891 34.1665 7.01113 34.4554 7.01113ZM35.5998 3.76669C35.0776 4.14447 34.7109 4.56669 34.4554 4.96669C34.1998 4.5778 33.8443 4.15558 33.3109 3.76669C33.8331 3.38891 34.1998 2.96669 34.4554 2.56669C34.7109 2.96669 35.0665 3.38891 35.5998 3.76669Z" fill="#0E0821"/>
<path d="M12.1224 49.6333H20.7335C21.0446 49.6333 21.2891 49.3889 21.2891 49.0778V43.5111C21.2891 40.1889 18.5891 37.4778 15.2557 37.4778H9.77795C9.61128 37.4778 9.45573 37.5556 9.34462 37.6889C9.23351 37.8222 9.20017 37.9889 9.23351 38.1556L11.5668 49.2C11.6335 49.4556 11.8668 49.6333 12.1224 49.6333ZM20.178 48.5222H12.5668L10.4668 38.5889H15.2557C17.9668 38.5889 20.178 40.8 20.178 43.5111V48.5222Z" fill="#0E0821"/>
<path d="M18.3002 39.5223C18.4113 39.5223 18.5113 39.4889 18.6113 39.4334C21.9891 37.1889 19.6557 31.6 17.9446 27.5223C17.6113 26.7334 17.3002 25.9889 17.0779 25.3889L14.0224 16.9778C13.9446 16.7556 13.7335 16.6111 13.5002 16.6111H6.06683C5.90017 16.6111 5.74461 16.6889 5.64461 16.8111C5.5335 16.9334 5.48906 17.1 5.52239 17.2667L9.30017 38.1556C9.35572 38.4556 9.64461 38.6556 9.94461 38.6C10.2446 38.5445 10.4446 38.2556 10.3891 37.9556L6.72239 17.7223H13.1002L16.0224 25.7667C16.2557 26.4 16.5668 27.1556 16.9002 27.9556C18.3779 31.4667 20.6002 36.7778 17.9891 38.5111C17.7335 38.6778 17.6668 39.0223 17.8335 39.2778C17.9446 39.4334 18.1113 39.5223 18.3002 39.5223Z" fill="#0E0821"/>
<path d="M9.77794 17.7111C10.0891 17.7111 10.3335 17.4667 10.3335 17.1556V13.7556C10.3335 13.4445 10.0891 13.2 9.77794 13.2C9.46683 13.2 9.22238 13.4445 9.22238 13.7556V17.1556C9.22238 17.4556 9.46683 17.7111 9.77794 17.7111Z" fill="#0E0821"/>
<path d="M6.99988 14.3111H9.77766C12.3777 14.3111 14.4888 12.2 14.4888 9.60002V8.36669C14.4888 5.76669 12.3777 3.65558 9.77766 3.65558H6.99988C5.94433 3.65558 5.07766 4.52225 5.07766 5.5778V12.3778C5.06655 13.4445 5.93321 14.3111 6.99988 14.3111ZM9.77766 4.7778C11.7554 4.7778 13.3777 6.38891 13.3777 8.3778V9.61113C13.3777 11.5889 11.7665 13.2111 9.77766 13.2111H6.99988C6.55544 13.2111 6.18877 12.8445 6.18877 12.4V5.58891C6.18877 5.14447 6.55544 4.7778 6.99988 4.7778H9.77766Z" fill="#0E0821"/>
<path d="M20.7335 49.6333H43.4557C43.7668 49.6333 44.0112 49.3889 44.0112 49.0778V42.9333C44.0112 40.7445 42.9223 38.4889 41.2446 37.1889C40.0001 36.2333 38.5557 35.9 37.1779 36.2445L20.0779 40.6333C19.7779 40.7111 19.6001 41.0111 19.6779 41.3111C19.7557 41.6111 20.0557 41.7889 20.3557 41.7111L37.4446 37.3333C38.789 36.9889 39.8779 37.5445 40.5557 38.0778C41.9557 39.1667 42.889 41.1222 42.889 42.9445V48.5333H20.7335C20.4223 48.5333 20.1779 48.7778 20.1779 49.0889C20.1779 49.4 20.4335 49.6333 20.7335 49.6333Z" fill="#0E0821"/>
</svg>
