<svg width="50" height="50" viewBox="0 0 50 50" fill="none" xmlns="http://www.w3.org/2000/svg">
<path d="M2.77574 25.7031L4.33824 26.4843C4.52369 26.577 4.73833 26.5921 4.93495 26.5265C5.0323 26.494 5.12231 26.4426 5.19981 26.3753C5.27732 26.308 5.34082 26.2262 5.38668 26.1343C5.43254 26.0425 5.45986 25.9426 5.46709 25.8402C5.47432 25.7378 5.46132 25.635 5.42882 25.5376C5.39632 25.4403 5.34496 25.3503 5.27768 25.2728C5.21039 25.1953 5.1285 25.1318 5.03668 25.0859L3.47418 24.3046C3.28873 24.212 3.07409 24.1969 2.87747 24.2625C2.68085 24.3281 2.51836 24.4692 2.42574 24.6546C2.33312 24.8401 2.31797 25.0547 2.3836 25.2514C2.44924 25.448 2.5903 25.6105 2.77574 25.7031Z" fill="#0E0821"/>
<path d="M5.46875 28.125H2.34375C2.13655 28.125 1.93784 28.2073 1.79132 28.3538C1.64481 28.5003 1.5625 28.699 1.5625 28.9062C1.5625 29.1135 1.64481 29.3122 1.79132 29.4587C1.93784 29.6052 2.13655 29.6875 2.34375 29.6875H5.46875C5.67595 29.6875 5.87466 29.6052 6.02118 29.4587C6.16769 29.3122 6.25 29.1135 6.25 28.9062C6.25 28.699 6.16769 28.5003 6.02118 28.3538C5.87466 28.2073 5.67595 28.125 5.46875 28.125Z" fill="#0E0821"/>
<path d="M4.33824 31.3281L2.77574 32.1093C2.5903 32.202 2.44924 32.3644 2.3836 32.5611C2.31797 32.7577 2.33312 32.9723 2.42574 33.1578C2.51836 33.3432 2.68085 33.4843 2.87747 33.5499C3.07409 33.6155 3.28873 33.6004 3.47418 33.5078L5.03668 32.7265C5.1285 32.6807 5.21039 32.6172 5.27768 32.5397C5.34496 32.4622 5.39632 32.3721 5.42882 32.2748C5.46132 32.1774 5.47432 32.0746 5.46709 31.9722C5.45986 31.8699 5.43254 31.7699 5.38668 31.6781C5.34082 31.5863 5.27732 31.5044 5.19981 31.4371C5.12231 31.3698 5.0323 31.3184 4.93495 31.2859C4.73833 31.2203 4.52369 31.2355 4.33824 31.3281Z" fill="#0E0821"/>
<path d="M42.1875 26.6086V25C42.1875 24.7928 42.1052 24.5941 41.9587 24.4476C41.8122 24.301 41.6134 24.2187 41.4062 24.2187H38.2812C38.074 24.2187 37.8753 24.301 37.7288 24.4476C37.5823 24.5941 37.5 24.7928 37.5 25V25.7812H35.9375V24.2187C35.9375 24.0115 35.8552 23.8128 35.7087 23.6663C35.5622 23.5198 35.3635 23.4375 35.1562 23.4375H28.6383L30.2391 21.8367L37.2016 20.2344C37.3445 20.2014 37.4753 20.1288 37.5789 20.025L42.55 15.0531C42.6965 15.1996 42.8952 15.2819 43.1023 15.2819C43.3095 15.2819 43.5082 15.1996 43.6547 15.0531L45.8648 12.8437C46.0113 12.6972 46.0936 12.4986 46.0936 12.2914C46.0936 12.0842 46.0113 11.8856 45.8648 11.739L35.9211 1.79139C35.7718 1.65024 35.5742 1.57159 35.3687 1.57159C35.1633 1.57159 34.9657 1.65024 34.8164 1.79139L32.607 4.00155C32.4606 4.14806 32.3783 4.34673 32.3783 4.55389C32.3783 4.76105 32.4606 4.95973 32.607 5.10624L31.6797 6.0328C31.6051 6.10487 31.5456 6.19107 31.5046 6.28639C31.4637 6.38171 31.4421 6.48422 31.4412 6.58795C31.4403 6.69169 31.4601 6.79456 31.4994 6.89058C31.5386 6.98659 31.5967 7.07382 31.67 7.14717C31.7434 7.22052 31.8306 7.27853 31.9266 7.31782C32.0226 7.3571 32.1255 7.37687 32.2292 7.37596C32.333 7.37506 32.4355 7.35351 32.5308 7.31257C32.6261 7.27162 32.7123 7.2121 32.7844 7.13749L33.7117 6.21092L41.4461 13.9453L37.0273 18.3648L29.293 10.6305L30.5758 9.34764C30.7181 9.2003 30.7968 9.00295 30.7951 8.79811C30.7933 8.59327 30.7111 8.39732 30.5663 8.25247C30.4214 8.10762 30.2255 8.02546 30.0206 8.02368C29.8158 8.0219 29.6184 8.10064 29.4711 8.24296L27.6352 10.0781C27.5313 10.1817 27.4588 10.3125 27.4258 10.4555L25.8188 17.418L23.768 19.4687C23.6215 19.6152 23.5392 19.8139 23.5392 20.0211C23.5392 20.2282 23.6215 20.4269 23.768 20.5734L21.8195 22.5219C21.53 22.8131 21.1856 23.044 20.8062 23.2012C20.4268 23.3583 20.02 23.4387 19.6094 23.4375H18.75C18.75 23.2303 18.6677 23.0316 18.5212 22.8851C18.3747 22.7385 18.176 22.6562 17.9688 22.6562H14.8438C14.6365 22.6562 14.4378 22.7385 14.2913 22.8851C14.1448 23.0316 14.0625 23.2303 14.0625 23.4375V32.0312H12.5V25C12.5 24.7928 12.4177 24.5941 12.2712 24.4476C12.1247 24.301 11.926 24.2187 11.7188 24.2187C11.5115 24.2187 11.3128 24.301 11.1663 24.4476C11.0198 24.5941 10.9375 24.7928 10.9375 25V26.5625H8.59375C8.38655 26.5625 8.18784 26.6448 8.04132 26.7913C7.89481 26.9378 7.8125 27.1365 7.8125 27.3437V30.4687C7.8125 30.6759 7.89481 30.8747 8.04132 31.0212C8.18784 31.1677 8.38655 31.25 8.59375 31.25H10.9375V32.8125C10.9375 33.0197 11.0198 33.2184 11.1663 33.3649C11.3128 33.5114 11.5115 33.5937 11.7188 33.5937H14.0625V34.375C14.0625 34.5822 14.1448 34.7809 14.2913 34.9274C14.4378 35.0739 14.6365 35.1562 14.8438 35.1562H17.9688C18.176 35.1562 18.3747 35.0739 18.5212 34.9274C18.6677 34.7809 18.75 34.5822 18.75 34.375H21.875C22.0822 34.375 22.2809 34.2927 22.4274 34.1462C22.5739 33.9997 22.6562 33.8009 22.6562 33.5937V28.9062C22.6562 28.699 22.7386 28.5003 22.8851 28.3538C23.0316 28.2073 23.2303 28.125 23.4375 28.125C23.6447 28.125 23.8434 28.2073 23.9899 28.3538C24.1364 28.5003 24.2188 28.699 24.2188 28.9062V39.518C24.2178 40.1245 24.0766 40.7226 23.8062 41.2656L21.3703 46.1367C21.3144 46.2488 21.2326 46.3461 21.1317 46.4204C21.0307 46.4947 20.9136 46.544 20.7899 46.5641C20.6662 46.5843 20.5395 46.5747 20.4202 46.5363C20.301 46.4978 20.1925 46.4316 20.1039 46.343C19.9863 46.2257 19.9086 46.0743 19.882 45.9103C19.8553 45.7464 19.881 45.5782 19.9555 45.4297L22.5742 40.1953C22.6286 40.0861 22.6567 39.9657 22.6562 39.8437V36.7187C22.6562 36.5115 22.5739 36.3128 22.4274 36.1663C22.2809 36.0198 22.0822 35.9375 21.875 35.9375C21.6678 35.9375 21.4691 36.0198 21.3226 36.1663C21.1761 36.3128 21.0938 36.5115 21.0938 36.7187V39.6594L18.5578 44.7305C18.3363 45.1723 18.2598 45.6726 18.339 46.1604C18.4183 46.6483 18.6493 47.0987 18.9992 47.4476C19.2155 47.6665 19.473 47.8402 19.7569 47.9588C20.0408 48.0773 20.3455 48.1384 20.6531 48.1383C20.784 48.1382 20.9146 48.1275 21.0438 48.1062C21.4125 48.0484 21.762 47.9028 22.0627 47.6818C22.3634 47.4607 22.6067 47.1706 22.7719 46.8359L25.2078 41.9641C25.5854 41.204 25.7817 40.3667 25.7812 39.518V39.0625H27.3438V40.625C27.3438 40.8322 27.4261 41.0309 27.5726 41.1774C27.7191 41.3239 27.9178 41.4062 28.125 41.4062H30.6867L32.8523 47.9031C32.8848 48.0006 32.9361 48.0907 33.0033 48.1683C33.0706 48.246 33.1524 48.3096 33.2443 48.3556C33.3361 48.4016 33.4361 48.4291 33.5386 48.4364C33.641 48.4438 33.7439 48.4308 33.8414 48.3984C33.9389 48.366 34.029 48.3147 34.1066 48.2475C34.1843 48.1802 34.2479 48.0983 34.2939 48.0065C34.3399 47.9146 34.3674 47.8146 34.3747 47.7122C34.382 47.6097 34.3691 47.5068 34.3367 47.4094L33.6359 45.3125H35.9375C36.1447 45.3125 36.3434 45.2302 36.4899 45.0837C36.6364 44.9372 36.7188 44.7384 36.7188 44.5312C36.7188 44.324 36.6364 44.1253 36.4899 43.9788C36.3434 43.8323 36.1447 43.75 35.9375 43.75H33.1156L32.5945 42.1875H35.1562C35.3635 42.1875 35.5622 42.1052 35.7087 41.9587C35.8552 41.8122 35.9375 41.6134 35.9375 41.4062C35.9375 41.199 35.8552 41.0003 35.7087 40.8538C35.5622 40.7073 35.3635 40.625 35.1562 40.625H32.0734L31.9914 40.3781C31.9396 40.2225 31.8401 40.0871 31.707 39.9912C31.5739 39.8953 31.414 39.8437 31.25 39.8437H28.9062V37.5H29.6875C29.6938 37.5 29.6984 37.5 29.7047 37.5C30.0643 37.9852 30.5326 38.3794 31.072 38.651C31.6114 38.9227 32.207 39.0642 32.8109 39.0642C33.4149 39.0642 34.0104 38.9227 34.5499 38.651C35.0893 38.3794 35.5576 37.9852 35.9172 37.5H36.9531L40.6742 47.9187C40.7282 48.0699 40.8274 48.2009 40.9583 48.2937C41.0893 48.3865 41.2457 48.4367 41.4062 48.4375C41.5314 48.4375 41.6548 48.4074 41.7659 48.3498C41.8771 48.2922 41.9727 48.2087 42.0448 48.1064C42.117 48.0041 42.1635 47.886 42.1804 47.762C42.1974 47.6379 42.1842 47.5116 42.1422 47.3937L38.2359 36.4562C38.1818 36.3044 38.082 36.1731 37.9502 36.0802C37.8185 35.9873 37.6612 35.9375 37.5 35.9375H36.6406C36.7509 35.4004 36.7453 34.8459 36.624 34.3111C36.5028 33.7764 36.2687 33.2737 35.9375 32.8367V32.0312H37.5V32.8125C37.5 33.0197 37.5823 33.2184 37.7288 33.3649C37.8753 33.5114 38.074 33.5937 38.2812 33.5937H41.4062C41.6134 33.5937 41.8122 33.5114 41.9587 33.3649C42.1052 33.2184 42.1875 33.0197 42.1875 32.8125V31.3937C42.6429 31.5547 43.0374 31.8525 43.3171 32.2463C43.5968 32.6401 43.748 33.1107 43.75 33.5937V47.6562C43.75 47.8634 43.8323 48.0622 43.9788 48.2087C44.1253 48.3552 44.3241 48.4375 44.5312 48.4375C44.7384 48.4375 44.9372 48.3552 45.0837 48.2087C45.2302 48.0622 45.3125 47.8634 45.3125 47.6562V33.5937C45.3115 32.6935 45.0001 31.8212 44.4309 31.1239C43.8616 30.4265 43.0693 29.9468 42.1875 29.7656V28.1797C43.4886 28.3693 44.678 29.0205 45.5386 30.0145C46.3992 31.0085 46.8736 32.2789 46.875 33.5937V47.6562C46.875 47.8634 46.9573 48.0622 47.1038 48.2087C47.2503 48.3552 47.4491 48.4375 47.6562 48.4375C47.8634 48.4375 48.0622 48.3552 48.2087 48.2087C48.3552 48.0622 48.4375 47.8634 48.4375 47.6562V33.5937C48.435 31.8652 47.7966 30.198 46.644 28.9098C45.4914 27.6216 43.9051 26.8025 42.1875 26.6086ZM9.375 29.6875V28.125H10.9375V29.6875H9.375ZM35.3687 3.44842L44.2078 12.2875L43.1023 13.3922L34.2641 4.55389L35.3687 3.44842ZM28.6312 12.1789L35.4773 19.025L30.0867 20.2672L27.3852 17.5656L28.6312 12.1789ZM26.5297 18.9164L28.7398 21.1265L27.6352 22.2312L25.425 20.0211L26.5297 18.9164ZM15.625 33.5937V24.2187H17.1875V33.5937H15.625ZM23.4375 26.5625C22.8159 26.5625 22.2198 26.8094 21.7802 27.249C21.3407 27.6885 21.0938 28.2846 21.0938 28.9062V32.8125H18.75V25H19.6094C20.2251 25.0016 20.835 24.8811 21.4038 24.6455C21.9727 24.4099 22.4892 24.0638 22.9234 23.6273L24.8719 21.6789L26.0859 22.8906C25.9926 23.1256 25.9585 23.3799 25.9867 23.6311C26.0148 23.8823 26.1044 24.1228 26.2474 24.3312C26.3905 24.5397 26.5827 24.7097 26.8069 24.8263C27.0312 24.943 27.2808 25.0026 27.5336 25H34.375V26.5625H30.4688C30.2615 26.5625 30.0628 26.6448 29.9163 26.7913C29.7698 26.9378 29.6875 27.1365 29.6875 27.3437V30.4687C29.6867 30.6146 29.7267 30.7577 29.8031 30.882C29.8795 31.0063 29.9891 31.1067 30.1195 31.1719L31.1047 31.664C30.5546 31.932 30.0751 32.3254 29.7047 32.8125C29.6984 32.8125 29.6938 32.8125 29.6875 32.8125H25.7812V28.9062C25.7812 28.2846 25.5343 27.6885 25.0948 27.249C24.6552 26.8094 24.0591 26.5625 23.4375 26.5625ZM34.375 31.5484L31.25 29.9859V28.125H34.375V31.5484ZM28.125 35.9375C27.9178 35.9375 27.7191 36.0198 27.5726 36.1663C27.4261 36.3128 27.3438 36.5115 27.3438 36.7187V37.5H25.7812V34.375H28.9844C28.8791 34.8905 28.8791 35.422 28.9844 35.9375H28.125ZM32.8125 37.5C32.3489 37.5 31.8958 37.3625 31.5104 37.105C31.125 36.8475 30.8246 36.4814 30.6472 36.0532C30.4698 35.6249 30.4233 35.1536 30.5138 34.699C30.6042 34.2444 30.8274 33.8267 31.1552 33.499C31.483 33.1712 31.9006 32.948 32.3553 32.8575C32.8099 32.7671 33.2811 32.8135 33.7094 32.9909C34.1377 33.1683 34.5037 33.4687 34.7613 33.8541C35.0188 34.2395 35.1562 34.6927 35.1562 35.1562C35.1562 35.7778 34.9093 36.374 34.4698 36.8135C34.0302 37.2531 33.4341 37.5 32.8125 37.5ZM35.9375 30.4687V27.3437H37.5V30.4687H35.9375ZM40.625 32.0312H39.0625V25.7812H40.625V32.0312Z" fill="#0E0821"/>
<path d="M32.8125 35.9375C33.244 35.9375 33.5938 35.5877 33.5938 35.1562C33.5938 34.7248 33.244 34.375 32.8125 34.375C32.381 34.375 32.0312 34.7248 32.0312 35.1562C32.0312 35.5877 32.381 35.9375 32.8125 35.9375Z" fill="#0E0821"/>
</svg>
