<svg width="50" height="50" viewBox="0 0 50 50" fill="none" xmlns="http://www.w3.org/2000/svg">
<path d="M46.0938 30.4688V27.3438C46.0938 27.1366 46.0114 26.9378 45.8649 26.7913C45.7184 26.6448 45.5197 26.5625 45.3125 26.5625H40.8445L40.5602 25.4258C40.3078 24.4116 39.7232 23.511 38.8996 22.8675C38.076 22.224 37.0608 21.8746 36.0156 21.875H34.7422C36.4941 19.703 37.465 17.0052 37.499 14.2149C37.533 11.4246 36.6281 8.70393 34.9297 6.48986C34.868 6.40697 34.7904 6.33716 34.7015 6.28446C34.6126 6.23176 34.5141 6.19723 34.4117 6.18287C34.3094 6.1685 34.2052 6.17458 34.1052 6.20077C34.0052 6.22695 33.9114 6.27271 33.8293 6.3354C33.7471 6.39808 33.6782 6.47645 33.6265 6.56596C33.5748 6.65547 33.5415 6.75434 33.5283 6.85685C33.5151 6.95936 33.5224 7.06347 33.5497 7.16314C33.577 7.26281 33.6239 7.35607 33.6875 7.43752C35.1496 9.33622 35.9409 11.6661 35.9375 14.0625C35.9375 16.2257 35.296 18.3404 34.0942 20.1391C32.8924 21.9377 31.1842 23.3396 29.1856 24.1674C27.187 24.9953 24.9879 25.2119 22.8662 24.7899C20.7445 24.3678 18.7957 23.3261 17.266 21.7965C15.7364 20.2669 14.6947 18.318 14.2727 16.1963C13.8506 14.0746 14.0672 11.8755 14.8951 9.87691C15.7229 7.87835 17.1248 6.17014 18.9235 4.96832C20.7221 3.76649 22.8368 3.12502 25 3.12502C27.3964 3.12164 29.7263 3.91293 31.625 5.37502C31.7064 5.43865 31.7997 5.48548 31.8994 5.51282C31.999 5.54015 32.1032 5.54743 32.2057 5.53425C32.3082 5.52106 32.407 5.48766 32.4966 5.436C32.5861 5.38433 32.6644 5.31541 32.7271 5.23324C32.7898 5.15107 32.8356 5.05728 32.8618 4.9573C32.8879 4.85731 32.894 4.75313 32.8797 4.65078C32.8653 4.54843 32.8308 4.44995 32.7781 4.36104C32.7254 4.27213 32.6555 4.19456 32.5727 4.13283C30.4022 2.46217 27.739 1.55825 25 1.56252C22.644 1.55993 20.3353 2.22398 18.3408 3.47794C16.3462 4.7319 14.7471 6.5246 13.7282 8.64891C12.7094 10.7732 12.3124 13.1424 12.583 15.4829C12.8537 17.8233 13.781 20.0393 15.2578 21.875H13.9844C12.9387 21.8739 11.9227 22.223 11.0985 22.8665C10.2743 23.5101 9.68924 24.411 9.43672 25.4258L8.22656 30.2695L5.46875 29.807V28.125H6.64062C6.84783 28.125 7.04654 28.0427 7.19305 27.8962C7.33956 27.7497 7.42188 27.551 7.42188 27.3438C7.42188 27.1366 7.33956 26.9378 7.19305 26.7913C7.04654 26.6448 6.84783 26.5625 6.64062 26.5625H4.6875C4.4803 26.5625 4.28159 26.6448 4.13507 26.7913C3.98856 26.9378 3.90625 27.1366 3.90625 27.3438V30.4688C3.90634 30.6537 3.97202 30.8326 4.09161 30.9736C4.2112 31.1147 4.37695 31.2087 4.55937 31.2391L7.74922 31.7711L4.13516 35.3852C3.98863 35.5317 3.90629 35.7303 3.90625 35.9375V45.3125C3.90625 46.1413 4.23549 46.9362 4.82154 47.5222C5.40759 48.1083 6.20245 48.4375 7.03125 48.4375C7.86005 48.4375 8.65491 48.1083 9.24096 47.5222C9.82701 46.9362 10.1562 46.1413 10.1562 45.3125V43.75H25C25.2072 43.75 25.4059 43.6677 25.5524 43.5212C25.6989 43.3747 25.7812 43.176 25.7812 42.9688C25.7812 42.7616 25.6989 42.5629 25.5524 42.4163C25.4059 42.2698 25.2072 42.1875 25 42.1875H17.1875V40.625H32.8125V42.1875H28.125C27.9178 42.1875 27.7191 42.2698 27.5726 42.4163C27.4261 42.5629 27.3438 42.7616 27.3438 42.9688C27.3438 43.176 27.4261 43.3747 27.5726 43.5212C27.7191 43.6677 27.9178 43.75 28.125 43.75H39.8438V45.3125C39.8438 46.1413 40.173 46.9362 40.759 47.5222C41.3451 48.1083 42.1399 48.4375 42.9688 48.4375C43.7976 48.4375 44.5924 48.1083 45.1785 47.5222C45.7645 46.9362 46.0938 46.1413 46.0938 45.3125V35.9375C46.0937 35.7303 46.0114 35.5317 45.8648 35.3852L42.2508 31.7711L45.4406 31.2391C45.6231 31.2087 45.7888 31.1147 45.9084 30.9736C46.028 30.8326 46.0937 30.6537 46.0938 30.4688ZM8.59375 45.3125C8.59375 45.7269 8.42913 46.1243 8.1361 46.4174C7.84308 46.7104 7.44565 46.875 7.03125 46.875C6.61685 46.875 6.21942 46.7104 5.9264 46.4174C5.63337 46.1243 5.46875 45.7269 5.46875 45.3125V43.75H8.59375V45.3125ZM17.1875 39.0625V37.5H32.8125V39.0625H17.1875ZM34.375 36.7188C34.375 36.5116 34.2927 36.3129 34.1462 36.1663C33.9997 36.0198 33.801 35.9375 33.5938 35.9375H16.4062C16.199 35.9375 16.0003 36.0198 15.8538 36.1663C15.7073 36.3129 15.625 36.5116 15.625 36.7188V42.1875H5.46875V36.7188H9.375C9.5822 36.7188 9.78091 36.8011 9.92743 36.9476C10.0739 37.0941 10.1562 37.2928 10.1562 37.5V38.2813H7.8125C7.6053 38.2813 7.40659 38.3636 7.26007 38.5101C7.11356 38.6566 7.03125 38.8553 7.03125 39.0625C7.03125 39.2697 7.11356 39.4684 7.26007 39.6149C7.40659 39.7615 7.6053 39.8438 7.8125 39.8438H10.9375C11.1447 39.8438 11.3434 39.7615 11.4899 39.6149C11.6364 39.4684 11.7188 39.2697 11.7188 39.0625V37.5C11.7188 36.8784 11.4718 36.2823 11.0323 35.8427C10.5927 35.4032 9.9966 35.1563 9.375 35.1563H6.57344L8.91719 32.8125H28.9062C29.1135 32.8125 29.3122 32.7302 29.4587 32.5837C29.6052 32.4372 29.6875 32.2385 29.6875 32.0313C29.6875 31.8241 29.6052 31.6253 29.4587 31.4788C29.3122 31.3323 29.1135 31.25 28.9062 31.25H21.0938C21.0938 30.214 20.6822 29.2204 19.9496 28.4879C19.2171 27.7553 18.2235 27.3438 17.1875 27.3438C16.1515 27.3438 15.1579 27.7553 14.4254 28.4879C13.6928 29.2204 13.2812 30.214 13.2812 31.25H9.59375L10.9547 25.8039C11.1238 25.1283 11.5137 24.5285 12.0626 24.0997C12.6115 23.671 13.2879 23.4379 13.9844 23.4375H16.757C19.0292 25.4517 21.9605 26.5638 24.9969 26.5638C28.0333 26.5638 30.9645 25.4517 33.2367 23.4375H36.0156C36.7126 23.4372 37.3898 23.67 37.9393 24.0988C38.4888 24.5275 38.8792 25.1277 39.0484 25.8039L40.4062 31.25H32.0312C31.824 31.25 31.6253 31.3323 31.4788 31.4788C31.3323 31.6253 31.25 31.8241 31.25 32.0313C31.25 32.2385 31.3323 32.4372 31.4788 32.5837C31.6253 32.7302 31.824 32.8125 32.0312 32.8125H41.0828L43.4266 35.1563H40.625C40.0034 35.1563 39.4073 35.4032 38.9677 35.8427C38.5282 36.2823 38.2812 36.8784 38.2812 37.5V39.0625C38.2812 39.2697 38.3636 39.4684 38.5101 39.6149C38.6566 39.7615 38.8553 39.8438 39.0625 39.8438H44.5312V42.1875H34.375V36.7188ZM14.8438 31.25C14.8438 30.6284 15.0907 30.0323 15.5302 29.5927C15.9698 29.1532 16.5659 28.9063 17.1875 28.9063C17.8091 28.9063 18.4052 29.1532 18.8448 29.5927C19.2843 30.0323 19.5312 30.6284 19.5312 31.25H14.8438ZM44.5312 38.2813H39.8438V37.5C39.8438 37.2928 39.9261 37.0941 40.0726 36.9476C40.2191 36.8011 40.4178 36.7188 40.625 36.7188H44.5312V38.2813ZM44.5312 45.3125C44.5312 45.7269 44.3666 46.1243 44.0736 46.4174C43.7806 46.7104 43.3832 46.875 42.9688 46.875C42.5543 46.875 42.1569 46.7104 41.8639 46.4174C41.5709 46.1243 41.4062 45.7269 41.4062 45.3125V43.75H44.5312V45.3125ZM44.5312 29.807L41.7703 30.2672L41.2352 28.125H44.5312V29.807Z" fill="#0E0821"/>
<path d="M30.2953 9.87189H32.1812C32.3884 9.87189 32.5871 9.78958 32.7336 9.64307C32.8801 9.49656 32.9625 9.29784 32.9625 9.09064C32.9625 8.88344 32.8801 8.68473 32.7336 8.53822C32.5871 8.3917 32.3884 8.30939 32.1812 8.30939H30.7531V6.88127C30.7531 6.67407 30.6708 6.47535 30.5243 6.32884C30.3777 6.18233 30.179 6.10002 29.9718 6.10002C29.7646 6.10002 29.5659 6.18233 29.4194 6.32884C29.2729 6.47535 29.1906 6.67407 29.1906 6.88127V8.76721L26.5625 11.3953L25.7812 10.6141V10.4797L27.8961 8.36486C28.0384 8.21752 28.1171 8.02017 28.1153 7.81533C28.1135 7.61049 28.0314 7.41454 27.8865 7.26969C27.7417 7.12484 27.5457 7.04268 27.3409 7.0409C27.1361 7.03912 26.9387 7.11786 26.7914 7.26017L25.7812 8.27033V6.57345L26.3336 6.02111C26.4082 5.94904 26.4677 5.86284 26.5086 5.76752C26.5496 5.67221 26.5711 5.56969 26.572 5.46596C26.5729 5.36222 26.5532 5.25935 26.5139 5.16333C26.4746 5.06732 26.4166 4.98009 26.3432 4.90674C26.2699 4.83339 26.1827 4.77538 26.0866 4.73609C25.9906 4.69681 25.8878 4.67705 25.784 4.67795C25.6803 4.67885 25.5778 4.7004 25.4825 4.74134C25.3871 4.78229 25.3009 4.84181 25.2289 4.91642L25 5.14533L24.7711 4.91642C24.6237 4.77411 24.4264 4.69537 24.2215 4.69715C24.0167 4.69893 23.8207 4.78109 23.6759 4.92594C23.531 5.07079 23.4489 5.26674 23.4471 5.47158C23.4453 5.67642 23.5241 5.87377 23.6664 6.02111L24.2187 6.57345V8.27033L23.2086 7.26017C23.0612 7.11786 22.8639 7.03912 22.659 7.0409C22.4542 7.04268 22.2582 7.12484 22.1134 7.26969C21.9685 7.41454 21.8864 7.61049 21.8846 7.81533C21.8828 8.02017 21.9616 8.21752 22.1039 8.36486L24.2187 10.4797V10.6141L23.4375 11.3953L20.8093 8.76721V6.88127C20.8093 6.67407 20.727 6.47535 20.5805 6.32884C20.434 6.18233 20.2353 6.10002 20.0281 6.10002C19.8209 6.10002 19.6222 6.18233 19.4757 6.32884C19.3291 6.47535 19.2468 6.67407 19.2468 6.88127V8.30939H17.8187C17.6115 8.30939 17.4128 8.3917 17.2663 8.53822C17.1198 8.68473 17.0375 8.88344 17.0375 9.09064C17.0375 9.29784 17.1198 9.49656 17.2663 9.64307C17.4128 9.78958 17.6115 9.87189 17.8187 9.87189H19.7046L22.3328 12.5L21.5515 13.2813H21.4171L19.3023 11.1664C19.155 11.0241 18.9576 10.9454 18.7528 10.9471C18.5479 10.9489 18.352 11.0311 18.2071 11.1759C18.0623 11.3208 17.9801 11.5167 17.9783 11.7216C17.9766 11.9264 18.0553 12.1238 18.1976 12.2711L19.2078 13.2813H17.5109L16.9586 12.7289C16.8112 12.5866 16.6139 12.5079 16.409 12.5096C16.2042 12.5114 16.0082 12.5936 15.8634 12.7384C15.7185 12.8833 15.6364 13.0792 15.6346 13.2841C15.6328 13.4889 15.7116 13.6863 15.8539 13.8336L16.0828 14.0625L15.8539 14.2914C15.7792 14.3635 15.7197 14.4497 15.6788 14.545C15.6378 14.6403 15.6163 14.7428 15.6154 14.8466C15.6145 14.9503 15.6343 15.0532 15.6735 15.1492C15.7128 15.2452 15.7708 15.3324 15.8442 15.4058C15.9175 15.4791 16.0048 15.5372 16.1008 15.5764C16.1968 15.6157 16.2997 15.6355 16.4034 15.6346C16.5071 15.6337 16.6096 15.6121 16.705 15.5712C16.8003 15.5302 16.8865 15.4707 16.9586 15.3961L17.5109 14.8438H19.2078L18.1976 15.8539C18.123 15.926 18.0635 16.0122 18.0225 16.1075C17.9816 16.2028 17.96 16.3053 17.9591 16.4091C17.9582 16.5128 17.978 16.6157 18.0173 16.7117C18.0566 16.8077 18.1146 16.8949 18.1879 16.9683C18.2613 17.0416 18.3485 17.0997 18.4445 17.1389C18.5405 17.1782 18.6434 17.198 18.7471 17.1971C18.8509 17.1962 18.9534 17.1746 19.0487 17.1337C19.144 17.0927 19.2302 17.0332 19.3023 16.9586L21.4171 14.8438H21.5515L22.3328 15.625L19.7046 18.2531H17.8187C17.6115 18.2531 17.4128 18.3355 17.2663 18.482C17.1198 18.6285 17.0375 18.8272 17.0375 19.0344C17.0375 19.2416 17.1198 19.4403 17.2663 19.5868C17.4128 19.7333 17.6115 19.8156 17.8187 19.8156H19.2468V21.2438C19.2468 21.451 19.3291 21.6497 19.4757 21.7962C19.6222 21.9427 19.8209 22.025 20.0281 22.025C20.2353 22.025 20.434 21.9427 20.5805 21.7962C20.727 21.6497 20.8093 21.451 20.8093 21.2438V19.3578L23.4375 16.7297L24.2187 17.511V17.6453L22.1039 19.7602C21.9616 19.9075 21.8828 20.1049 21.8846 20.3097C21.8864 20.5145 21.9685 20.7105 22.1134 20.8553C22.2582 21.0002 22.4542 21.0824 22.659 21.0841C22.8639 21.0859 23.0612 21.0072 23.2086 20.8649L24.2187 19.8547V21.5516L23.6664 22.1039C23.5241 22.2513 23.4453 22.4486 23.4471 22.6535C23.4489 22.8583 23.531 23.0542 23.6759 23.1991C23.8207 23.3439 24.0167 23.4261 24.2215 23.4279C24.4264 23.4297 24.6237 23.3509 24.7711 23.2086L25 22.9797L25.2289 23.2086C25.3762 23.3509 25.5736 23.4297 25.7784 23.4279C25.9832 23.4261 26.1792 23.3439 26.324 23.1991C26.4689 23.0542 26.551 22.8583 26.5528 22.6535C26.5546 22.4486 26.4759 22.2513 26.3336 22.1039L25.7812 21.5516V19.8547L26.7914 20.8649C26.9387 21.0072 27.1361 21.0859 27.3409 21.0841C27.5457 21.0824 27.7417 21.0002 27.8865 20.8553C28.0314 20.7105 28.1135 20.5145 28.1153 20.3097C28.1171 20.1049 28.0384 19.9075 27.8961 19.7602L25.7812 17.6453V17.511L26.5625 16.7297L29.1906 19.3578V21.2438C29.1906 21.451 29.2729 21.6497 29.4194 21.7962C29.5659 21.9427 29.7646 22.025 29.9718 22.025C30.179 22.025 30.3777 21.9427 30.5243 21.7962C30.6708 21.6497 30.7531 21.451 30.7531 21.2438V19.8156H32.1812C32.3884 19.8156 32.5871 19.7333 32.7336 19.5868C32.8801 19.4403 32.9625 19.2416 32.9625 19.0344C32.9625 18.8272 32.8801 18.6285 32.7336 18.482C32.5871 18.3355 32.3884 18.2531 32.1812 18.2531H30.2953L27.6671 15.625L28.4484 14.8438H28.5828L30.6976 16.9586C30.845 17.1009 31.0423 17.1797 31.2471 17.1779C31.452 17.1761 31.6479 17.0939 31.7928 16.9491C31.9376 16.8042 32.0198 16.6083 32.0216 16.4035C32.0234 16.1986 31.9446 16.0013 31.8023 15.8539L30.7921 14.8438H32.489L33.0414 15.3961C33.1887 15.5384 33.3861 15.6172 33.5909 15.6154C33.7957 15.6136 33.9917 15.5314 34.1365 15.3866C34.2814 15.2417 34.3635 15.0458 34.3653 14.841C34.3671 14.6361 34.2884 14.4388 34.1461 14.2914L33.9171 14.0625L34.1461 13.8336C34.2884 13.6863 34.3671 13.4889 34.3653 13.2841C34.3635 13.0792 34.2814 12.8833 34.1365 12.7384C33.9917 12.5936 33.7957 12.5114 33.5909 12.5096C33.3861 12.5079 33.1887 12.5866 33.0414 12.7289L32.489 13.2813H30.7921L31.8023 12.2711C31.9446 12.1238 32.0234 11.9264 32.0216 11.7216C32.0198 11.5167 31.9376 11.3208 31.7928 11.1759C31.6479 11.0311 31.452 10.9489 31.2471 10.9471C31.0423 10.9454 30.845 11.0241 30.6976 11.1664L28.5828 13.2813H28.4484L27.6671 12.5L30.2953 9.87189ZM25 16.0828L22.9796 14.0625L25 12.0422L27.0203 14.0625L25 16.0828Z" fill="#0E0821"/>
<path d="M39.0625 19.5312H39.8438V20.3125C39.8438 20.5197 39.9261 20.7184 40.0726 20.8649C40.2191 21.0114 40.4178 21.0938 40.625 21.0938C40.8322 21.0938 41.0309 21.0114 41.1774 20.8649C41.3239 20.7184 41.4062 20.5197 41.4062 20.3125V19.5312H42.1875C42.3947 19.5312 42.5934 19.4489 42.7399 19.3024C42.8864 19.1559 42.9688 18.9572 42.9688 18.75C42.9688 18.5428 42.8864 18.3441 42.7399 18.1976C42.5934 18.0511 42.3947 17.9688 42.1875 17.9688H41.4062V17.1875C41.4062 16.9803 41.3239 16.7816 41.1774 16.6351C41.0309 16.4886 40.8322 16.4062 40.625 16.4062C40.4178 16.4062 40.2191 16.4886 40.0726 16.6351C39.9261 16.7816 39.8438 16.9803 39.8438 17.1875V17.9688H39.0625C38.8553 17.9688 38.6566 18.0511 38.5101 18.1976C38.3636 18.3441 38.2812 18.5428 38.2812 18.75C38.2812 18.9572 38.3636 19.1559 38.5101 19.3024C38.6566 19.4489 38.8553 19.5312 39.0625 19.5312Z" fill="#0E0821"/>
<path d="M7.98206 18.2368C7.77486 18.2368 7.57614 18.3191 7.42963 18.4656C7.28312 18.6121 7.20081 18.8108 7.20081 19.018V19.7993H6.41956C6.21236 19.7993 6.01364 19.8816 5.86713 20.0281C5.72062 20.1746 5.63831 20.3733 5.63831 20.5805C5.63831 20.7877 5.72062 20.9864 5.86713 21.1329C6.01364 21.2794 6.21236 21.3618 6.41956 21.3618H7.20081V22.143C7.20081 22.3502 7.28312 22.5489 7.42963 22.6954C7.57614 22.8419 7.77486 22.9243 7.98206 22.9243C8.18926 22.9243 8.38797 22.8419 8.53448 22.6954C8.681 22.5489 8.76331 22.3502 8.76331 22.143V21.3618H9.54456C9.75176 21.3618 9.95047 21.2794 10.097 21.1329C10.2435 20.9864 10.3258 20.7877 10.3258 20.5805C10.3258 20.3733 10.2435 20.1746 10.097 20.0281C9.95047 19.8816 9.75176 19.7993 9.54456 19.7993H8.76331V19.018C8.76331 18.8108 8.681 18.6121 8.53448 18.4656C8.38797 18.3191 8.18926 18.2368 7.98206 18.2368Z" fill="#0E0821"/>
<path d="M4.64453 14.5172H5.42578V15.2985C5.42578 15.5057 5.50809 15.7044 5.6546 15.8509C5.80112 15.9974 5.99983 16.0797 6.20703 16.0797C6.41423 16.0797 6.61295 15.9974 6.75946 15.8509C6.90597 15.7044 6.98828 15.5057 6.98828 15.2985V14.5172H7.76953C7.97673 14.5172 8.17545 14.4349 8.32196 14.2884C8.46847 14.1419 8.55078 13.9432 8.55078 13.736C8.55078 13.5288 8.46847 13.33 8.32196 13.1835C8.17545 13.037 7.97673 12.9547 7.76953 12.9547H6.98828V12.1735C6.98828 11.9663 6.90597 11.7675 6.75946 11.621C6.61295 11.4745 6.41423 11.3922 6.20703 11.3922C5.99983 11.3922 5.80112 11.4745 5.6546 11.621C5.50809 11.7675 5.42578 11.9663 5.42578 12.1735V12.9547H4.64453C4.43733 12.9547 4.23862 13.037 4.0921 13.1835C3.94559 13.33 3.86328 13.5288 3.86328 13.736C3.86328 13.9432 3.94559 14.1419 4.0921 14.2884C4.23862 14.4349 4.43733 14.5172 4.64453 14.5172Z" fill="#0E0821"/>
<path d="M39.8438 9.375H40.625V10.1562C40.625 10.3635 40.7073 10.5622 40.8538 10.7087C41.0003 10.8552 41.199 10.9375 41.4062 10.9375C41.6135 10.9375 41.8122 10.8552 41.9587 10.7087C42.1052 10.5622 42.1875 10.3635 42.1875 10.1562V9.375H42.9688C43.176 9.375 43.3747 9.29269 43.5212 9.14618C43.6677 8.99966 43.75 8.80095 43.75 8.59375C43.75 8.38655 43.6677 8.18784 43.5212 8.04132C43.3747 7.89481 43.176 7.8125 42.9688 7.8125H42.1875V7.03125C42.1875 6.82405 42.1052 6.62534 41.9587 6.47882C41.8122 6.33231 41.6135 6.25 41.4062 6.25C41.199 6.25 41.0003 6.33231 40.8538 6.47882C40.7073 6.62534 40.625 6.82405 40.625 7.03125V7.8125H39.8438C39.6365 7.8125 39.4378 7.89481 39.2913 8.04132C39.1448 8.18784 39.0625 8.38655 39.0625 8.59375C39.0625 8.80095 39.1448 8.99966 39.2913 9.14618C39.4378 9.29269 39.6365 9.375 39.8438 9.375Z" fill="#0E0821"/>
</svg>
