<svg width="50" height="50" viewBox="0 0 50 50" fill="none" xmlns="http://www.w3.org/2000/svg">
<g clip-path="url(#clip0_217_3958)">
<path d="M1.5625 40.625H4.6875C4.8947 40.625 5.09341 40.5427 5.23993 40.3962C5.38644 40.2497 5.46875 40.051 5.46875 39.8438V36.7188H7.03125V39.5008C7.03228 40.4202 7.39799 41.3017 8.04814 41.9519C8.69828 42.602 9.57977 42.9677 10.4992 42.9688C10.7709 42.9688 11.0394 43.0268 11.2868 43.1391C11.5341 43.2513 11.7547 43.4151 11.9336 43.6195L15.0586 47.1875C15.6162 47.8253 16.3038 48.3365 17.0752 48.6869C17.8466 49.0372 18.684 49.2185 19.5312 49.2188H35.9375C36.8377 49.2176 37.7099 48.9062 38.4072 48.3369C39.1045 47.7677 39.5843 46.9755 39.7656 46.0938H44.5312C45.1529 46.0938 45.749 45.8468 46.1885 45.4073C46.6281 44.9677 46.875 44.3716 46.875 43.75C46.875 43.1284 46.6281 42.5323 46.1885 42.0927C45.749 41.6532 45.1529 41.4062 44.5312 41.4062H39.8438V34.375H42.9688V38.2812C42.9688 38.4885 43.0511 38.6872 43.1976 38.8337C43.3441 38.9802 43.5428 39.0625 43.75 39.0625H48.4117C48.6189 39.0625 48.8176 38.9802 48.9641 38.8337C49.1107 38.6872 49.193 38.4885 49.193 38.2812V24.2188C49.193 24.0115 49.1107 23.8128 48.9641 23.6663C48.8176 23.5198 48.6189 23.4375 48.4117 23.4375H43.75C43.5428 23.4375 43.3441 23.5198 43.1976 23.6663C43.0511 23.8128 42.9688 24.0115 42.9688 24.2188V28.125H39.8438V26.5625C39.8425 25.5269 39.4306 24.534 38.6983 23.8017C37.966 23.0694 36.9731 22.6575 35.9375 22.6562C35.9375 21.8274 35.6083 21.0326 35.0222 20.4465C34.4362 19.8605 33.6413 19.5312 32.8125 19.5312C31.9837 19.5312 31.1888 19.8605 30.6028 20.4465C30.0167 21.0326 29.6875 21.8274 29.6875 22.6562C29.6875 21.8274 29.3583 21.0326 28.7722 20.4465C28.1862 19.8605 27.3913 19.5312 26.5625 19.5312C25.7337 19.5312 24.9388 19.8605 24.3528 20.4465C23.7667 21.0326 23.4375 21.8274 23.4375 22.6562C23.4375 21.8274 23.1083 21.0326 22.5222 20.4465C21.9362 19.8605 21.1413 19.5312 20.3125 19.5312C19.4837 19.5312 18.6888 19.8605 18.1028 20.4465C17.5167 21.0326 17.1875 21.8274 17.1875 22.6562C17.1875 21.8274 16.8583 21.0326 16.2722 20.4465C15.6862 19.8605 14.8913 19.5312 14.0625 19.5312C13.2337 19.5312 12.4388 19.8605 11.8528 20.4465C11.2667 21.0326 10.9375 21.8274 10.9375 22.6562C9.90188 22.6575 8.90903 23.0694 8.17673 23.8017C7.44444 24.534 7.03249 25.5269 7.03125 26.5625V32.0312H5.46875V28.9062C5.46875 28.699 5.38644 28.5003 5.23993 28.3538C5.09341 28.2073 4.8947 28.125 4.6875 28.125H1.5625C1.3553 28.125 1.15659 28.2073 1.01007 28.3538C0.86356 28.5003 0.78125 28.699 0.78125 28.9062V39.8438C0.78125 40.051 0.86356 40.2497 1.01007 40.3962C1.15659 40.5427 1.3553 40.625 1.5625 40.625ZM44.5312 25H47.6305V37.5H44.5312V25ZM45.3125 43.75C45.3125 43.9572 45.2302 44.1559 45.0837 44.3024C44.9372 44.4489 44.7384 44.5312 44.5312 44.5312H35.1562C34.1206 44.53 33.1278 44.1181 32.3955 43.3858C31.6632 42.6535 31.2512 41.6606 31.25 40.625V34.375C31.25 34.1678 31.3323 33.9691 31.4788 33.8226C31.6253 33.6761 31.824 33.5938 32.0312 33.5938C32.2385 33.5938 32.4372 33.6761 32.5837 33.8226C32.7302 33.9691 32.8125 34.1678 32.8125 34.375V40.625C32.8125 41.2466 33.0594 41.8427 33.499 42.2823C33.9385 42.7218 34.5346 42.9688 35.1562 42.9688H44.5312C44.7384 42.9688 44.9372 43.0511 45.0837 43.1976C45.2302 43.3441 45.3125 43.5428 45.3125 43.75ZM22.6562 42.9688H23.9727C24.2492 43.551 24.6264 44.08 25.0867 44.5312H22.6562C21.6206 44.53 20.6278 44.1181 19.8955 43.3858C19.1632 42.6535 18.7512 41.6606 18.75 40.625V34.375C18.75 34.1678 18.8323 33.9691 18.9788 33.8226C19.1253 33.6761 19.324 33.5938 19.5312 33.5938C19.7385 33.5938 19.9372 33.6761 20.0837 33.8226C20.2302 33.9691 20.3125 34.1678 20.3125 34.375V40.625C20.3125 41.2466 20.5594 41.8427 20.999 42.2823C21.4385 42.7218 22.0346 42.9688 22.6562 42.9688ZM25 40.625V34.375C25 34.1678 25.0823 33.9691 25.2288 33.8226C25.3753 33.6761 25.574 33.5938 25.7812 33.5938C25.9885 33.5938 26.1872 33.6761 26.3337 33.8226C26.4802 33.9691 26.5625 34.1678 26.5625 34.375V40.625C26.5625 41.2466 26.8094 41.8427 27.249 42.2823C27.6885 42.7218 28.2846 42.9688 28.9062 42.9688H30.2227C30.4981 43.5505 30.8736 44.0794 31.332 44.5312H28.9062C27.8706 44.53 26.8778 44.1181 26.1455 43.3858C25.4132 42.6535 25.0012 41.6606 25 40.625ZM35.1562 41.4062C34.9491 41.4062 34.7503 41.3239 34.6038 41.1774C34.4573 41.0309 34.375 40.8322 34.375 40.625V34.375C34.375 33.7534 34.1281 33.1573 33.6885 32.7177C33.249 32.2782 32.6529 32.0312 32.0312 32.0312C31.4096 32.0312 30.8135 32.2782 30.374 32.7177C29.9344 33.1573 29.6875 33.7534 29.6875 34.375V40.625C29.6897 40.8866 29.7106 41.1477 29.75 41.4062H28.9062C28.699 41.4062 28.5003 41.3239 28.3538 41.1774C28.2073 41.0309 28.125 40.8322 28.125 40.625V34.375C28.125 33.7534 27.8781 33.1573 27.4385 32.7177C26.999 32.2782 26.4029 32.0312 25.7812 32.0312C25.1596 32.0312 24.5635 32.2782 24.124 32.7177C23.6844 33.1573 23.4375 33.7534 23.4375 34.375V40.625C23.4397 40.8866 23.4606 41.1477 23.5 41.4062H22.6562C22.449 41.4062 22.2503 41.3239 22.1038 41.1774C21.9573 41.0309 21.875 40.8322 21.875 40.625V34.375C21.875 33.7534 21.6281 33.1573 21.1885 32.7177C20.749 32.2782 20.1529 32.0312 19.5312 32.0312C18.9096 32.0312 18.3135 32.2782 17.874 32.7177C17.4344 33.1573 17.1875 33.7534 17.1875 34.375V40.625C17.1892 42.0749 17.7659 43.4649 18.7911 44.4902C19.8163 45.5154 21.2064 46.0921 22.6562 46.0938H38.1375C37.9765 46.5491 37.6787 46.9437 37.2849 47.2234C36.8911 47.5031 36.4205 47.6542 35.9375 47.6562H19.5312C18.9064 47.6563 18.2888 47.5228 17.7198 47.2646C17.1508 47.0064 16.6435 46.6296 16.232 46.1594L13.107 42.5914C12.7818 42.2195 12.381 41.9214 11.9312 41.717C11.4815 41.5126 10.9932 41.4067 10.4992 41.4062C9.99405 41.4056 9.50974 41.2047 9.15253 40.8475C8.79532 40.4903 8.59437 40.006 8.59375 39.5008V28.9062H38.2812V41.4062H35.1562ZM42.9688 29.6875V32.8125H39.8438V29.6875H42.9688ZM32.8125 21.0938C33.2269 21.0938 33.6243 21.2584 33.9174 21.5514C34.2104 21.8444 34.375 22.2418 34.375 22.6562H31.25C31.25 22.2418 31.4146 21.8444 31.7076 21.5514C32.0007 21.2584 32.3981 21.0938 32.8125 21.0938ZM26.5625 21.0938C26.9769 21.0938 27.3743 21.2584 27.6674 21.5514C27.9604 21.8444 28.125 22.2418 28.125 22.6562H25C25 22.2418 25.1646 21.8444 25.4576 21.5514C25.7507 21.2584 26.1481 21.0938 26.5625 21.0938ZM20.3125 21.0938C20.7269 21.0938 21.1243 21.2584 21.4174 21.5514C21.7104 21.8444 21.875 22.2418 21.875 22.6562H18.75C18.75 22.2418 18.9146 21.8444 19.2076 21.5514C19.5007 21.2584 19.8981 21.0938 20.3125 21.0938ZM14.0625 21.0938C14.4769 21.0938 14.8743 21.2584 15.1674 21.5514C15.4604 21.8444 15.625 22.2418 15.625 22.6562H12.5C12.5 22.2418 12.6646 21.8444 12.9576 21.5514C13.2507 21.2584 13.6481 21.0938 14.0625 21.0938ZM10.9375 24.2188H35.9375C36.5591 24.2188 37.1552 24.4657 37.5948 24.9052C38.0343 25.3448 38.2812 25.9409 38.2812 26.5625V27.3438H8.59375V26.5625C8.59375 25.9409 8.84068 25.3448 9.28022 24.9052C9.71976 24.4657 10.3159 24.2188 10.9375 24.2188ZM7.03125 33.5938V35.1562H5.46875V33.5938H7.03125ZM2.34375 29.6875H3.90625V39.0625H2.34375V29.6875Z" fill="#0E0821"/>
<path d="M10.1562 30.4688H11.7188V32.0312H10.1562V30.4688Z" fill="#0E0821"/>
<path d="M35.1562 30.4688H36.7188V32.0312H35.1562V30.4688Z" fill="#0E0821"/>
<path d="M10.1562 38.2812H11.7188V39.8438H10.1562V38.2812Z" fill="#0E0821"/>
<path d="M18.75 1.5625V4.36406L17.4164 5.69766C17.2699 5.84414 17.1875 6.04282 17.1875 6.25V8.59375C17.1875 8.80095 17.2698 8.99966 17.4163 9.14618C17.5628 9.29269 17.7615 9.375 17.9688 9.375H32.0312C32.2385 9.375 32.4372 9.29269 32.5837 9.14618C32.7302 8.99966 32.8125 8.80095 32.8125 8.59375V6.25C32.8125 6.04282 32.7301 5.84414 32.5836 5.69766L31.25 4.36406V1.5625C31.25 1.3553 31.1677 1.15659 31.0212 1.01007C30.8747 0.86356 30.676 0.78125 30.4688 0.78125H19.5312C19.324 0.78125 19.1253 0.86356 18.9788 1.01007C18.8323 1.15659 18.75 1.3553 18.75 1.5625ZM31.25 7.8125H18.75V6.57344L19.8547 5.46875H30.1453L31.25 6.57344V7.8125ZM20.3125 2.34375H29.6875V3.90625H20.3125V2.34375Z" fill="#0E0821"/>
<path d="M8.11719 17.3363L9.22204 16.2314L10.3269 17.3363L9.22204 18.4412L8.11719 17.3363Z" fill="#0E0821"/>
<path d="M10.3267 15.1279L11.4315 14.023L12.5364 15.1279L11.4315 16.2327L10.3267 15.1279Z" fill="#0E0821"/>
<path d="M12.5366 12.9187L13.6415 11.8138L14.7463 12.9187L13.6415 14.0236L12.5366 12.9187Z" fill="#0E0821"/>
<path d="M14.7461 10.7092L15.8509 9.60431L16.9558 10.7092L15.8509 11.814L14.7461 10.7092Z" fill="#0E0821"/>
<path d="M37.4553 15.1305L38.5602 14.0256L39.665 15.1305L38.5602 16.2353L37.4553 15.1305Z" fill="#0E0821"/>
<path d="M35.2468 12.9211L36.3517 11.8162L37.4565 12.9211L36.3517 14.0259L35.2468 12.9211Z" fill="#0E0821"/>
<path d="M39.6636 17.3406L40.7684 16.2358L41.8733 17.3406L40.7684 18.4455L39.6636 17.3406Z" fill="#0E0821"/>
<path d="M33.0364 10.7109L34.1412 9.60608L35.2461 10.7109L34.1412 11.8158L33.0364 10.7109Z" fill="#0E0821"/>
<path d="M24.2188 14.0625H25.7812V15.625H24.2188V14.0625Z" fill="#0E0821"/>
<path d="M24.2188 17.1875H25.7812V18.7492H24.2188V17.1875Z" fill="#0E0821"/>
<path d="M24.2188 10.9375H25.7812V12.5H24.2188V10.9375Z" fill="#0E0821"/>
<path d="M19.687 11.9916L20.3858 10.594L21.7833 11.2928L21.0846 12.6903L19.687 11.9916Z" fill="#0E0821"/>
<path d="M16.8901 17.5795L17.5889 16.1819L18.9865 16.8807L18.2877 18.2782L16.8901 17.5795Z" fill="#0E0821"/>
<path d="M18.3069 14.7767L19.005 13.3789L20.4029 14.077L19.7047 15.4749L18.3069 14.7767Z" fill="#0E0821"/>
<path d="M29.6189 14.0891L31.0168 13.3909L31.7149 14.7888L30.317 15.4869L29.6189 14.0891Z" fill="#0E0821"/>
<path d="M28.1924 11.2878L29.5899 10.5891L30.2887 11.9866L28.8912 12.6854L28.1924 11.2878Z" fill="#0E0821"/>
<path d="M30.9856 16.877L32.3831 16.1782L33.0819 17.5757L31.6844 18.2745L30.9856 16.877Z" fill="#0E0821"/>
</g>
<defs>
<clipPath id="clip0_217_3958">
<rect width="50" height="50" fill="white"/>
</clipPath>
</defs>
</svg>
