<svg width="50" height="50" viewBox="0 0 50 50" fill="none" xmlns="http://www.w3.org/2000/svg">
<g clip-path="url(#clip0_217_4036)">
<path d="M21.0938 0C9.4625 0 0 9.4625 0 21.0938C0 32.725 9.4625 42.1875 21.0938 42.1875C25.568 42.1875 29.8563 40.7852 33.4945 38.1312C33.843 37.8773 33.9203 37.3891 33.6656 37.0406C33.4125 36.6922 32.9234 36.6141 32.575 36.8695C32.3172 37.0578 32.0492 37.2258 31.7852 37.4L31.5211 36.1086C31.4352 35.6859 31.0187 35.4125 30.5992 35.5C30.1766 35.5859 29.9031 35.9992 29.9906 36.4219L30.3656 38.2547C27.8414 39.6297 25.0703 40.4219 22.193 40.5828L22.6172 39.3109C22.7539 38.9016 22.5328 38.4586 22.1234 38.3227C21.7102 38.1859 21.2711 38.407 21.1352 38.8164L20.5367 40.6117C17.5805 40.5281 14.7875 39.7859 12.2977 38.5242L13.3047 37.6312C13.6273 37.3453 13.657 36.8516 13.3711 36.5289C13.0844 36.2039 12.5906 36.1766 12.2688 36.4625L10.8539 37.7172C8.41641 36.2102 6.33594 34.182 4.76406 31.7906L6.07969 31.5211C6.50234 31.4352 6.77578 31.0219 6.68828 30.5992C6.60234 30.1766 6.18906 29.9047 5.76641 29.9906L3.91016 30.3703C2.57734 27.9117 1.75859 25.1367 1.59531 22.1891L2.87812 22.6164C2.96016 22.6437 3.04375 22.657 3.125 22.657C3.45234 22.657 3.75703 22.45 3.86562 22.1227C4.00234 21.7133 3.78125 21.2703 3.37188 21.1344L1.57656 20.5359C1.66016 17.5797 2.40234 14.7867 3.66406 12.2969L4.55703 13.3039C4.71094 13.4789 4.92656 13.5672 5.14141 13.5672C5.32578 13.5672 5.51094 13.5023 5.65938 13.3703C5.98203 13.0844 6.01172 12.5906 5.72578 12.268L4.47109 10.8531C5.97813 8.41563 8.00625 6.33516 10.3977 4.76328L10.6672 6.07891C10.743 6.44922 11.0688 6.70391 11.432 6.70391C11.4836 6.70391 11.5367 6.69844 11.5891 6.6875C12.0117 6.60156 12.2852 6.18828 12.1977 5.76562L11.818 3.90938C14.2766 2.57656 17.0516 1.75781 19.9992 1.59453L19.5719 2.87734C19.4352 3.28672 19.6562 3.72969 20.0656 3.86562C20.1477 3.89297 20.2313 3.90625 20.3125 3.90625C20.6398 3.90625 20.9445 3.69922 21.0531 3.37188L21.6516 1.57656C24.6078 1.66016 27.4008 2.40234 29.8906 3.66406L28.8836 4.55703C28.5609 4.84297 28.5313 5.33672 28.8172 5.65938C28.9711 5.83437 29.1867 5.92266 29.4016 5.92266C29.5859 5.92266 29.7711 5.85781 29.9195 5.72578L31.3344 4.47109C33.7719 5.97813 35.8523 8.00625 37.4242 10.3977L36.1086 10.6672C35.6859 10.7531 35.4125 11.1664 35.5 11.5891C35.5758 11.9594 35.9016 12.2141 36.2648 12.2141C36.3164 12.2141 36.3695 12.2086 36.4219 12.1977L38.2781 11.818C39.6109 14.2766 40.4297 17.0516 40.593 19.9992L39.3102 19.5719C38.8977 19.4352 38.4586 19.6562 38.3219 20.0656C38.1852 20.475 38.4062 20.918 38.8156 21.0539L40.6117 21.6523C40.5805 22.7094 40.4648 23.7828 40.2555 24.8508C40.1734 25.2742 40.4492 25.6844 40.8727 25.7672C41.2945 25.8492 41.7055 25.5734 41.7891 25.15C42.0539 23.7953 42.1883 22.4312 42.1883 21.0945C42.1875 9.4625 32.725 0 21.0938 0Z" fill="#0E0821"/>
<path d="M35.9375 28.125C35.7375 28.125 35.5375 28.0484 35.3851 27.896L33.8226 26.3335C33.5171 26.0281 33.5171 25.5343 33.8226 25.2289C34.1281 24.9234 34.6218 24.9234 34.9273 25.2289L36.4898 26.7914C36.7953 27.0968 36.7953 27.5906 36.4898 27.896C36.3375 28.0484 36.1375 28.125 35.9375 28.125Z" fill="#0E0821"/>
<path d="M34.375 34.375C34.175 34.375 33.975 34.2984 33.8226 34.146C33.5171 33.8406 33.5171 33.3468 33.8226 33.0414L35.3851 31.4789C35.6906 31.1734 36.1843 31.1734 36.4898 31.4789C36.7953 31.7843 36.7953 32.2781 36.4898 32.5835L34.9273 34.146C34.775 34.2984 34.575 34.375 34.375 34.375Z" fill="#0E0821"/>
<path d="M34.375 30.4688H32.0312C31.5992 30.4688 31.25 30.1195 31.25 29.6875C31.25 29.2555 31.5992 28.9062 32.0312 28.9062H34.375C34.807 28.9062 35.1562 29.2555 35.1562 29.6875C35.1562 30.1195 34.807 30.4688 34.375 30.4688Z" fill="#0E0821"/>
<path d="M17.1875 21.0938C17.1875 23.2477 18.9398 25 21.0938 25C23.2477 25 25 23.2477 25 21.0938C25 18.9398 23.2477 17.1875 21.0938 17.1875C18.9398 17.1875 17.1875 18.9398 17.1875 21.0938ZM23.4375 21.0938C23.4375 22.3859 22.3859 23.4375 21.0938 23.4375C19.8016 23.4375 18.75 22.3859 18.75 21.0938C18.75 19.8016 19.8016 18.75 21.0938 18.75C22.3859 18.75 23.4375 19.8016 23.4375 21.0938Z" fill="#0E0821"/>
<path d="M21.0938 7.03125C13.3398 7.03125 7.03125 13.3398 7.03125 21.0938C7.03125 28.8477 13.3398 35.1562 21.0938 35.1562C24.5953 35.1562 27.957 33.8477 30.5586 31.4727C30.8773 31.182 30.9008 30.6875 30.6086 30.3695C30.318 30.05 29.8234 30.0273 29.5055 30.3195C28.1703 31.5383 26.6063 32.4289 24.9281 32.9742C24.9664 32.6633 25 32.3508 25 32.0312C25 28.9648 23.2844 26.5625 21.0938 26.5625C18.9031 26.5625 17.1875 28.9648 17.1875 32.0312C17.1875 32.3547 17.2203 32.6719 17.2602 32.9867C15.5578 32.4367 14.0219 31.5258 12.725 30.3516C13.0148 30.2305 13.3023 30.1031 13.575 29.9453C14.7914 29.2438 15.7578 28.2563 16.2969 27.1648C16.8883 25.9695 16.9102 24.7844 16.3578 23.8281C15.2609 21.9305 12.3227 21.6461 9.66875 23.1797C9.38828 23.3414 9.12969 23.5289 8.87656 23.7211C8.69453 22.8734 8.59375 21.9953 8.59375 21.0938C8.59375 18.0406 9.69766 15.243 11.5227 13.0695C11.9648 13.2 12.3945 13.3648 12.7937 13.5953C13.7461 14.1445 14.493 14.8977 14.8961 15.7148C15.1008 16.1266 15.3859 16.918 15.0047 17.5781C14.4766 18.493 12.8547 18.6898 11.2297 18.0336C10.8336 17.875 10.3742 18.0656 10.2125 18.4664C10.0516 18.8664 10.2445 19.3219 10.6453 19.4836C11.493 19.8258 12.332 19.9906 13.1047 19.9906C14.5375 19.9906 15.7437 19.4227 16.3578 18.3594C16.9102 17.4023 16.8883 16.218 16.2969 15.0227C15.7578 13.932 14.7906 12.9445 13.575 12.2422C13.3023 12.0844 13.0148 11.957 12.725 11.8359C14.0219 10.6625 15.5586 9.75156 17.2602 9.20078C17.2203 9.51563 17.1875 9.83281 17.1875 10.1562C17.1875 13.2227 18.9031 15.625 21.0938 15.625C23.2844 15.625 25 13.2227 25 10.1562C25 9.83281 24.9672 9.51563 24.9273 9.20078C26.6297 9.75078 28.1656 10.6617 29.4625 11.8359C29.1727 11.957 28.8852 12.0844 28.6125 12.2422C27.3961 12.9437 26.4297 13.9313 25.8906 15.0227C25.2992 16.218 25.2773 17.4031 25.8297 18.3594C26.4523 19.4367 27.6688 19.9937 29.0891 19.9937C30.1711 19.9937 31.3719 19.6711 32.5195 19.0078C32.8 18.8461 33.0586 18.6586 33.3117 18.4664C33.4937 19.3141 33.5945 20.1922 33.5945 21.0938C33.5945 21.8062 33.5258 22.5352 33.3844 23.3211C33.3078 23.7461 33.5906 24.1516 34.0156 24.2281C34.4383 24.3039 34.8461 24.0211 34.9227 23.5969C35.0805 22.7188 35.157 21.9 35.157 21.0938C35.157 13.3398 28.8477 7.03125 21.0938 7.03125ZM18.75 32.0312C18.75 29.9141 19.8234 28.125 21.0938 28.125C22.3641 28.125 23.4375 29.9141 23.4375 32.0312C23.4375 32.5023 23.3672 32.9563 23.2625 33.3977C22.5508 33.5242 21.8258 33.5938 21.0938 33.5938C20.3523 33.5938 19.6297 33.5164 18.9234 33.3922C18.8195 32.9523 18.75 32.5 18.75 32.0312ZM10.45 24.5328C12.2844 23.4742 14.3695 23.5086 15.0047 24.6094C15.3859 25.2695 15.1008 26.0602 14.8961 26.4727C14.4922 27.2898 13.7453 28.043 12.7937 28.5922C12.3945 28.8227 11.9641 28.9883 11.5227 29.118C10.5945 28.0125 9.86406 26.7414 9.36016 25.3609C9.68828 25.0523 10.0445 24.7664 10.45 24.5328ZM23.4375 10.1562C23.4375 12.2734 22.3641 14.0625 21.0938 14.0625C19.8234 14.0625 18.75 12.2734 18.75 10.1562C18.75 9.6875 18.8195 9.23516 18.9234 8.79531C19.6297 8.67109 20.3523 8.59375 21.0938 8.59375C21.8352 8.59375 22.5578 8.67109 23.2641 8.79531C23.368 9.23516 23.4375 9.6875 23.4375 10.1562ZM31.7375 17.6547C29.9039 18.7125 27.818 18.6797 27.1828 17.5781C26.8016 16.918 27.0867 16.1273 27.2914 15.7148C27.6953 14.8977 28.4422 14.1445 29.3938 13.5953C29.793 13.3648 30.2234 13.1992 30.6648 13.0695C31.593 14.175 32.3234 15.4461 32.8273 16.8266C32.4992 17.1352 32.143 17.4211 31.7375 17.6547Z" fill="#0E0821"/>
<path d="M31.5423 22.7047C29.1227 21.7281 26.7743 22.1914 25.8298 23.8281C24.8391 25.543 25.7493 27.9469 27.993 29.5422C28.1313 29.6406 28.2891 29.6875 28.4454 29.6875C28.6891 29.6875 28.9305 29.5734 29.0821 29.3594C29.3321 29.0078 29.2501 28.5195 28.8993 28.2695C27.3774 27.1867 26.6235 25.5789 27.1837 24.6086C27.7118 23.6938 29.3352 23.4977 30.9587 24.1531C31.3555 24.3117 31.8141 24.1211 31.9759 23.7203C32.1368 23.3203 31.9438 22.8648 31.543 22.7031L31.5423 22.7047Z" fill="#0E0821"/>
<path d="M47.378 35.9782L46.8749 34.9719V34.375C46.8749 33.943 46.5257 33.5938 46.0937 33.5938C45.6616 33.5938 45.3124 33.943 45.3124 34.375V35.1563C45.3124 35.2774 45.3405 35.3977 45.3944 35.5055L46.1757 37.068C46.3085 37.3329 46.5788 37.5 46.8749 37.5C47.7366 37.5 48.4374 38.2008 48.4374 39.0625V46.875C48.4374 47.7368 47.7366 48.4375 46.8749 48.4375H40.6249C39.7632 48.4375 39.0624 47.7368 39.0624 46.875V39.0625C39.0624 38.2008 39.7632 37.5 40.6249 37.5C40.921 37.5 41.1913 37.3329 41.3241 37.068L41.8897 35.9375H43.7507C44.1827 35.9375 44.5319 35.5883 44.5319 35.1563C44.5319 34.7243 44.1827 34.375 43.7507 34.375H42.1882V32.8125H49.2194C49.4491 32.8125 49.6671 32.7118 49.8155 32.536C49.964 32.3602 50.028 32.129 49.9905 31.9024C49.9538 31.6844 49.0577 26.5618 45.314 26.5618H39.8452C39.6374 26.5618 39.439 26.6438 39.2929 26.7907L38.5116 27.5719C38.3647 27.7188 38.2827 27.9165 38.2827 28.1243V28.9055H37.5015C37.0694 28.9055 36.7202 29.2547 36.7202 29.6868C36.7202 30.1188 37.0694 30.468 37.5015 30.468H38.2827V31.2493C38.2827 31.4571 38.3647 31.6555 38.5116 31.8016L39.2929 32.5829C39.4397 32.7297 39.6374 32.8118 39.8452 32.8118H40.6265V34.9711L40.1233 35.9774C38.6382 36.2188 37.5015 37.5102 37.5015 39.0618V46.8743C37.5015 48.5977 38.903 49.9993 40.6265 49.9993H46.8765C48.5999 49.9993 50.0015 48.5977 50.0015 46.8743V39.0618C50.0015 37.5102 48.8647 36.218 47.3796 35.9774L47.378 35.9782ZM40.1679 31.25L39.8444 30.9266V28.4485L40.1679 28.125H45.3132C46.9991 28.125 47.8538 30.0602 48.2202 31.25H40.1679Z" fill="#0E0821"/>
<path d="M43.75 45.3125C42.0266 45.3125 40.625 43.9109 40.625 42.1875C40.625 40.4641 42.0266 39.0625 43.75 39.0625C45.4734 39.0625 46.875 40.4641 46.875 42.1875C46.875 43.9109 45.4734 45.3125 43.75 45.3125ZM43.75 40.625C42.8883 40.625 42.1875 41.3258 42.1875 42.1875C42.1875 43.0492 42.8883 43.75 43.75 43.75C44.6117 43.75 45.3125 43.0492 45.3125 42.1875C45.3125 41.3258 44.6117 40.625 43.75 40.625Z" fill="#0E0821"/>
</g>
<defs>
<clipPath id="clip0_217_4036">
<rect width="50" height="50" fill="white"/>
</clipPath>
</defs>
</svg>
