<svg width="50" height="50" viewBox="0 0 50 50" fill="none" xmlns="http://www.w3.org/2000/svg">
<g clip-path="url(#clip0_79_832)">
<path d="M23.4375 8.20312C23.4375 8.74393 23.5979 9.2726 23.8983 9.72226C24.1988 10.1719 24.6258 10.5224 25.1255 10.7294C25.6251 10.9363 26.1749 10.9905 26.7053 10.885C27.2357 10.7795 27.723 10.519 28.1054 10.1366C28.4878 9.75421 28.7482 9.26699 28.8537 8.73658C28.9592 8.20616 28.9051 7.65637 28.6981 7.15673C28.4911 6.65708 28.1407 6.23003 27.691 5.92958C27.2413 5.62912 26.7127 5.46875 26.1719 5.46875C25.4469 5.46955 24.7519 5.75789 24.2393 6.27052C23.7266 6.78314 23.4383 7.47817 23.4375 8.20312ZM27.3438 8.20312C27.3438 8.4349 27.275 8.66147 27.1463 8.85418C27.0175 9.0469 26.8345 9.1971 26.6203 9.2858C26.4062 9.37449 26.1706 9.3977 25.9433 9.35248C25.7159 9.30727 25.5071 9.19566 25.3432 9.03177C25.1793 8.86788 25.0677 8.65907 25.0225 8.43175C24.9773 8.20443 25.0005 7.9688 25.0892 7.75467C25.1779 7.54054 25.3281 7.35751 25.5208 7.22875C25.7135 7.09998 25.9401 7.03125 26.1719 7.03125C26.4826 7.03159 26.7804 7.15516 27.0001 7.37486C27.2198 7.59455 27.3434 7.89243 27.3438 8.20312Z" fill="#0E0821"/>
<path d="M0 31.6406C0 32.1814 0.160368 32.7101 0.460825 33.1598C0.761282 33.6094 1.18833 33.9599 1.68798 34.1669C2.18762 34.3738 2.73741 34.428 3.26783 34.3225C3.79824 34.217 4.28546 33.9565 4.66787 33.5741C5.05028 33.1917 5.3107 32.7045 5.41621 32.1741C5.52172 31.6437 5.46757 31.0939 5.26061 30.5942C5.05365 30.0946 4.70318 29.6675 4.25351 29.3671C3.80385 29.0666 3.27518 28.9063 2.73438 28.9062C2.00942 28.9071 1.31439 29.1954 0.801765 29.708C0.289144 30.2206 0.000801299 30.9157 0 31.6406ZM2.73438 30.4688C2.96615 30.4688 3.19272 30.5375 3.38543 30.6662C3.57815 30.795 3.72835 30.978 3.81705 31.1922C3.90574 31.4063 3.92895 31.6419 3.88373 31.8692C3.83852 32.0966 3.72691 32.3054 3.56302 32.4693C3.39913 32.6332 3.19032 32.7448 2.963 32.79C2.73567 32.8352 2.50005 32.812 2.28592 32.7233C2.07179 32.6346 1.88876 32.4844 1.76 32.2917C1.63123 32.099 1.5625 31.8724 1.5625 31.6406C1.56284 31.3299 1.68641 31.0321 1.90611 30.8124C2.1258 30.5927 2.42368 30.4691 2.73438 30.4688Z" fill="#0E0821"/>
<path d="M3.90625 14.8438H2.34375V16.4062H3.90625V14.8438Z" fill="#0E0821"/>
<path d="M19.5312 30.4688H17.9688V32.0312H19.5312V30.4688Z" fill="#0E0821"/>
<path d="M13.2813 16.4062C13.4215 16.4062 13.5591 16.3685 13.6797 16.297C13.8003 16.2255 13.8994 16.1229 13.9667 15.9999L15.2381 13.6757L17.5623 12.4043C17.6853 12.337 17.7879 12.2379 17.8594 12.1173C17.9309 11.9967 17.9686 11.8591 17.9686 11.7189C17.9686 11.5787 17.9309 11.4411 17.8594 11.3205C17.7879 11.1999 17.6853 11.1008 17.5623 11.0335L15.2381 9.76209L13.9667 7.43787C13.8994 7.31488 13.8003 7.21226 13.6797 7.14077C13.5591 7.06928 13.4215 7.03156 13.2813 7.03156C13.1411 7.03156 13.0035 7.06928 12.8829 7.14077C12.7623 7.21226 12.6632 7.31488 12.5959 7.43787L11.3245 9.76209L9.00031 11.0335C8.87732 11.1008 8.77469 11.1999 8.70321 11.3205C8.63172 11.4411 8.59399 11.5787 8.59399 11.7189C8.59399 11.8591 8.63172 11.9967 8.70321 12.1173C8.77469 12.2379 8.87732 12.337 9.00031 12.4043L11.3245 13.6757L12.5959 15.9999C12.6632 16.1229 12.7623 16.2255 12.8829 16.297C13.0035 16.3685 13.1411 16.4062 13.2813 16.4062ZM12.2754 12.4144L11.0031 11.7187L12.275 11.023C12.4061 10.9513 12.5138 10.8435 12.5856 10.7125L13.2813 9.4406L13.977 10.7125C14.0487 10.8435 14.1565 10.9513 14.2875 11.023L15.5594 11.7187L14.2871 12.4144C14.1561 12.4862 14.0483 12.5939 13.9766 12.725L13.2813 13.9969L12.5856 12.7246C12.5139 12.5937 12.4063 12.4861 12.2754 12.4144Z" fill="#0E0821"/>
<path d="M47.4274 9.60381L42.7399 4.91631L41.9587 4.13506L41.1035 3.28008L44.152 1.45117L43.348 0.111328L39.4418 2.45508C39.34 2.51616 39.2534 2.59964 39.1887 2.69919C39.124 2.79874 39.0828 2.91174 39.0683 3.02959C39.0538 3.14744 39.0663 3.26705 39.105 3.37932C39.1436 3.4916 39.2073 3.59359 39.2913 3.67754L40.2325 4.61875L26.2437 15.6626L20.9832 16.4146C20.7971 16.4411 20.6269 16.5339 20.5037 16.6759C20.3805 16.8179 20.3126 16.9995 20.3125 17.1875C20.326 17.9245 20.4356 18.6566 20.6384 19.3652C20.7344 19.6931 20.8632 20.0104 21.0228 20.3125H18.8114C18.1865 20.3105 17.5695 20.4523 17.0081 20.7269C16.4467 21.0015 15.956 21.4015 15.5739 21.896L5.63584 34.6733C5.61399 34.7014 5.59408 34.7309 5.57627 34.7617C5.57412 34.7654 5.57178 34.769 5.56963 34.7728C5.55396 34.8007 5.54004 34.8295 5.52793 34.8592C5.52549 34.8651 5.52324 34.871 5.521 34.877C5.50944 34.9063 5.49966 34.9362 5.4917 34.9667L5.49111 34.9692V34.9702L4.71084 38.0918C4.70335 38.122 4.69768 38.1527 4.69385 38.1836C4.10737 38.5995 3.65358 39.176 3.38711 39.8438H0V41.4062H3.125V43.1586C3.12246 43.95 3.37413 44.7214 3.84293 45.3591C4.31174 45.9967 4.97292 46.467 5.7291 46.7007L16.1732 49.9645C16.2487 49.988 16.3272 50 16.4062 50H33.5938C33.6576 50 33.7212 49.9922 33.7832 49.9767L44.0641 47.4064C44.8674 47.2066 45.5807 46.7435 46.0902 46.091C46.5997 45.4385 46.876 44.6342 46.875 43.8063V41.4062H50V39.8438H46.6129C46.3384 39.153 45.863 38.5604 45.2482 38.1426C44.6334 37.7247 43.9074 37.5009 43.1641 37.5H38.2812V35.9375H39.8438C40.0509 35.9375 40.2497 35.8552 40.3962 35.7087C40.5427 35.5622 40.625 35.3634 40.625 35.1562V32.4134L47.3546 27.179C47.4485 27.106 47.5245 27.0125 47.5767 26.9057C47.629 26.7988 47.6562 26.6814 47.6562 26.5625V25H49.2188C49.4259 25 49.6247 24.9177 49.7712 24.7712C49.9177 24.6247 50 24.426 50 24.2188V21.875C50 21.6678 49.9177 21.4691 49.7712 21.3226C49.6247 21.1761 49.4259 21.0938 49.2188 21.0938H47.6562C47.6562 20.8865 47.5739 20.6878 47.4274 20.5413C47.2809 20.3948 47.0822 20.3125 46.875 20.3125H40.2189C41.2602 19.8853 42.1515 19.1589 42.78 18.2252C43.4085 17.2915 43.7461 16.1924 43.75 15.0669V13.6567L46.817 11.2031L47.8851 12.2712C47.9576 12.3437 48.0437 12.4013 48.1385 12.4405C48.2333 12.4798 48.3349 12.5 48.4375 12.5H50V10.9375H48.761L47.4274 9.60381ZM30.4688 27.3437H36.3281C37.0531 27.3429 37.7481 27.0546 38.2607 26.542C38.7734 26.0294 39.0617 25.3343 39.0625 24.6094V24.2188H42.9688V24.5979L38.031 28.125H26.1719C25.6641 28.1257 25.1761 27.9285 24.8113 27.5753C24.4465 27.2221 24.2338 26.7406 24.2182 26.2331C24.2026 25.7256 24.3854 25.2319 24.7278 24.857C25.0702 24.482 25.5452 24.2553 26.0521 24.2248C26.377 25.1365 26.9757 25.9256 27.7663 26.4839C28.557 27.0422 29.5009 27.3426 30.4688 27.3437ZM21.925 17.8579L25.7812 17.307V20.3125H23.4375C22.373 20.3125 22.0331 18.7763 21.925 17.8579ZM17.2685 48.4375C17.8118 45.791 21.0711 43.75 25 43.75C28.9289 43.75 32.1882 45.791 32.7315 48.4375H17.2685ZM45.3125 41.2109V43.8063C45.313 44.2856 45.1531 44.7513 44.8581 45.129C44.5632 45.5068 44.1502 45.7749 43.6852 45.8906L34.2861 48.2403C34.004 46.6906 33.0526 45.2703 31.5362 44.1675C29.7806 42.8906 27.4594 42.1875 25 42.1875C22.5406 42.1875 20.2194 42.8906 18.4638 44.1675C16.9647 45.2576 16.0178 46.6577 15.7236 48.1869L6.19512 45.2093C5.75731 45.074 5.37452 44.8017 5.10311 44.4325C4.8317 44.0633 4.68601 43.6167 4.6875 43.1585V41.2109C4.68815 40.6413 4.91471 40.0952 5.31748 39.6925C5.72025 39.2897 6.26634 39.0631 6.83594 39.0625H43.1641C43.7337 39.0631 44.2798 39.2897 44.6825 39.6925C45.0853 40.0952 45.3119 40.6413 45.3125 41.2109ZM36.7188 37.5H6.46934L6.85996 35.9375H36.7188V37.5ZM48.4375 22.6562V23.4375H47.6562V22.6562H48.4375ZM46.0938 24.2188V26.1804L39.3642 31.4147C39.2703 31.4878 39.1943 31.5813 39.142 31.6881C39.0897 31.7949 39.0625 31.9123 39.0625 32.0312V34.375H7.84736L16.8071 22.8552C17.0437 22.5491 17.3475 22.3014 17.695 22.1315C18.0426 21.9615 18.4246 21.8738 18.8114 21.875H25.7812V22.6562C25.7812 22.6637 25.7817 22.671 25.7818 22.6784C24.8896 22.7791 24.0697 23.2173 23.4903 23.9032C22.9109 24.5891 22.6159 25.4707 22.6658 26.3672C22.7157 27.2637 23.1067 28.1071 23.7586 28.7245C24.4106 29.3419 25.274 29.6864 26.1719 29.6875H38.2812C38.4441 29.6875 38.6028 29.6366 38.7354 29.542L44.2041 25.6357C44.3053 25.5635 44.3878 25.4681 44.4447 25.3575C44.5016 25.2469 44.5313 25.1244 44.5312 25V23.4375C44.5312 23.2303 44.4489 23.0316 44.3024 22.8851C44.1559 22.7386 43.9572 22.6562 43.75 22.6562H39.0625V21.875H46.0938V24.2188ZM42.4805 12.6712C42.389 12.7444 42.3152 12.8373 42.2645 12.9429C42.2138 13.0485 42.1875 13.1641 42.1875 13.2812V15.0669C42.1847 15.9575 41.8933 16.8232 41.3569 17.5342C40.8206 18.2452 40.0683 18.7633 39.2127 19.0106C39.1702 19.0228 39.1288 19.0385 39.089 19.0576L37.9429 19.6083C37.8102 19.672 37.6983 19.772 37.6199 19.8966C37.5416 20.0211 37.5 20.1653 37.5 20.3125V24.6094C37.5 24.8929 37.3966 25.1668 37.2092 25.3796C36.9239 25.0562 36.7517 24.6487 36.7188 24.2188V17.9688H35.1562V24.2188C35.18 24.7665 35.3302 25.3012 35.595 25.7812H34.5748C34.2974 25.6192 34.0634 25.3924 33.8926 25.1204C33.7217 24.8483 33.6192 24.539 33.5938 24.2188V17.9688H32.0312V24.2188C32.0545 24.7663 32.204 25.3011 32.4683 25.7812H31.4498C31.1724 25.6192 30.9384 25.3924 30.7676 25.1204C30.5967 24.8483 30.4942 24.539 30.4688 24.2188V17.9688H28.9062V24.2188C28.9239 24.6671 29.028 25.1079 29.2127 25.5168C28.6574 25.2725 28.1851 24.872 27.8533 24.3642C27.5215 23.8563 27.3444 23.2629 27.3438 22.6562V16.7849L41.345 5.73125L41.6351 6.02129L45.7055 10.0916L42.4805 12.6712Z" fill="#0E0821"/>
<path d="M47.885 30.6975L46.3225 32.26L47.4274 33.3649L48.9899 31.8025L47.885 30.6975Z" fill="#0E0821"/>
<path d="M44.76 33.8225L43.1975 35.385L44.3024 36.4899L45.8649 34.9275L44.76 33.8225Z" fill="#0E0821"/>
<path d="M4.45868 22.1038L3.35376 23.2087L4.91623 24.7712L6.02115 23.6662L4.45868 22.1038Z" fill="#0E0821"/>
<path d="M7.58356 25.2288L6.47864 26.3337L8.04111 27.8961L9.14603 26.7912L7.58356 25.2288Z" fill="#0E0821"/>
<path d="M10.7087 21.3225L9.60376 22.4274L11.1662 23.9899L12.2712 22.885L10.7087 21.3225Z" fill="#0E0821"/>
</g>
<defs>
<clipPath id="clip0_79_832">
<rect width="50" height="50" fill="white"/>
</clipPath>
</defs>
</svg>
