<svg width="50" height="50" viewBox="0 0 50 50" fill="none" xmlns="http://www.w3.org/2000/svg">
<path d="M41.0423 28.6218L39.3742 20.5488C39.0978 19.214 37.9521 18.2818 36.5881 18.2818H13.4121C12.0477 18.2818 10.902 19.2153 10.6259 20.5519L8.95771 28.6221C6.38613 28.9039 4.37842 31.0885 4.37842 33.7338V45.6284C4.37842 46.0046 4.6834 46.3095 5.05947 46.3095H17.3783V47.4326C17.3783 47.8088 17.6833 48.1137 18.0594 48.1137H31.9435C32.3196 48.1137 32.6245 47.8088 32.6245 47.4326V46.3096H44.9405C45.3167 46.3096 45.6216 46.0047 45.6216 45.6285V33.7311C45.6217 31.0863 43.6137 28.9023 41.0423 28.6218ZM11.96 20.8274C12.1038 20.1307 12.701 19.6439 13.4121 19.6439H36.5881C37.2992 19.6439 37.8964 20.1296 38.0403 20.8247L39.6449 28.5905H36.8799C36.6991 26.4687 34.9154 24.7969 32.7475 24.7969C30.5796 24.7969 28.7959 26.4687 28.615 28.5905H10.3553L11.96 20.8274ZM35.5106 28.5905H29.9845C30.1595 27.2212 31.3314 26.1591 32.7476 26.1591C34.1637 26.1591 35.3356 27.2213 35.5106 28.5905ZM5.74063 36.5894H9.23721C9.95557 36.5894 10.5399 37.1726 10.5399 37.8894V39.7917H5.74063V36.5894ZM31.2624 46.7517H18.7405V44.5082H31.2624V46.7517ZM32.6245 44.9475V43.8271C32.6245 43.451 32.3196 43.1461 31.9435 43.1461H18.0595C17.6833 43.1461 17.3784 43.451 17.3784 43.8271V44.9475H5.74063V41.1538H11.221C11.5972 41.1538 11.9021 40.8489 11.9021 40.4728V37.8894C11.9021 36.4215 10.7065 35.2272 9.23721 35.2272H5.74063V33.7339C5.74063 31.649 7.43682 29.9527 9.52178 29.9527H40.481C42.5644 29.9527 44.2595 31.6478 44.2595 33.7312V35.2273H40.7629C39.2949 35.2273 38.1007 36.4216 38.1007 37.8895V40.4729C38.1007 40.849 38.4057 41.1539 38.7817 41.1539H44.2594V44.9476H32.6245V44.9475ZM44.2596 36.5894V39.7917H39.463V37.8894C39.463 37.1726 40.0462 36.5894 40.763 36.5894H44.2596ZM13.5571 47.5792V48.5601C13.5571 49.3271 12.9331 49.9513 12.166 49.9513H8.14307C7.37598 49.9513 6.75186 49.3284 6.75186 48.5629V47.5793C6.75186 47.2031 7.05684 46.8982 7.43291 46.8982C7.80898 46.8982 8.11396 47.2031 8.11396 47.5793V48.5629C8.11396 48.5745 8.12764 48.5892 8.14297 48.5892H12.1659C12.1793 48.5892 12.1949 48.5765 12.1949 48.5602V47.5793C12.1949 47.2031 12.4999 46.8982 12.876 46.8982C13.2522 46.8981 13.5571 47.203 13.5571 47.5792ZM43.2482 47.5792V48.5601C43.2482 49.3271 42.6242 49.9513 41.857 49.9513H37.8369C37.0698 49.9513 36.4457 49.3284 36.4457 48.5629V47.5793C36.4457 47.2031 36.7506 46.8982 37.1268 46.8982C37.5029 46.8982 37.8078 47.2031 37.8078 47.5793V48.5629C37.8078 48.5753 37.8197 48.5892 37.8368 48.5892H41.8569C41.8703 48.5892 41.8859 48.5765 41.8859 48.5602V47.5793C41.8859 47.2031 42.1909 46.8982 42.567 46.8982C42.9434 46.8981 43.2482 47.203 43.2482 47.5792ZM33.9301 35.2272H16.0701C15.8555 35.2272 15.6534 35.3284 15.5248 35.5003C15.3962 35.6721 15.3562 35.8945 15.4168 36.1005L16.7596 40.6649C16.8448 40.9548 17.1108 41.1538 17.4129 41.1538H32.5872C32.8894 41.1538 33.1554 40.9548 33.2405 40.6649L34.5833 36.1005C34.6438 35.8946 34.6039 35.6722 34.4753 35.5003C34.3468 35.3284 34.1447 35.2272 33.9301 35.2272ZM32.0776 39.7917H17.9225L16.9804 36.5894H33.0197L32.0776 39.7917ZM14.8902 11.6616H36.3283C37.7079 11.6616 38.8302 10.5381 38.8302 9.15703C38.8302 7.77598 37.7079 6.65234 36.3283 6.65234H35.7951L30.4722 3.58027V0.729883C30.4722 0.353711 30.1672 0.0488281 29.7911 0.0488281H21.4275C21.0514 0.0488281 20.7465 0.353711 20.7465 0.729883V3.58027L15.4234 6.65234H14.8902C13.5106 6.65234 12.3884 7.77598 12.3884 9.15703C12.3884 10.5381 13.5107 11.6616 14.8902 11.6616ZM29.1101 1.41094V3.35059H22.1086V1.41094H29.1101ZM21.5094 4.7127H29.7093L33.0701 6.65234H18.1485L21.5094 4.7127ZM14.8902 8.01455H36.3283C36.9567 8.01455 37.4681 8.52715 37.4681 9.15713C37.4681 9.78711 36.9567 10.2996 36.3283 10.2996H14.8902C14.2618 10.2996 13.7505 9.78711 13.7505 9.15713C13.7506 8.52715 14.2618 8.01455 14.8902 8.01455ZM35.315 12.9379L36.912 15.98C37.0869 16.3131 36.9586 16.7248 36.6256 16.8996C36.5246 16.9526 36.4163 16.9778 36.3096 16.9778C36.0645 16.9778 35.8277 16.8451 35.706 16.6132L34.109 13.5711C33.9341 13.238 34.0624 12.8264 34.3954 12.6515C34.7285 12.4768 35.1402 12.605 35.315 12.9379ZM32.06 12.9375L33.6598 15.9796C33.8349 16.3125 33.7068 16.7243 33.3739 16.8994C33.2728 16.9526 33.1644 16.9778 33.0575 16.9778C32.8127 16.9778 32.576 16.8453 32.4541 16.6136L30.8543 13.5715C30.6792 13.2386 30.8072 12.8268 31.1401 12.6517C31.473 12.4766 31.885 12.6047 32.06 12.9375ZM28.8052 12.9375L30.405 15.9796C30.5801 16.3125 30.4521 16.7243 30.1191 16.8994C30.018 16.9526 29.9096 16.9778 29.8027 16.9778C29.5579 16.9778 29.3212 16.8453 29.1993 16.6136L27.5995 13.5715C27.4244 13.2386 27.5524 12.8268 27.8854 12.6517C28.2183 12.4766 28.6302 12.6047 28.8052 12.9375ZM16.8232 12.6515C17.1562 12.8264 17.2845 13.238 17.1097 13.5711L15.5127 16.6132C15.3909 16.8451 15.1541 16.9778 14.9091 16.9778C14.8023 16.9778 14.6941 16.9526 14.5931 16.8996C14.2601 16.7247 14.1317 16.3131 14.3066 15.98L15.9036 12.9379C16.0785 12.605 16.49 12.4768 16.8232 12.6515ZM20.078 12.6515C20.411 12.8264 20.5393 13.238 20.3645 13.5711L18.7675 16.6132C18.6457 16.8451 18.4089 16.9778 18.1639 16.9778C18.0571 16.9778 17.9489 16.9526 17.8479 16.8996C17.5148 16.7247 17.3865 16.3131 17.5614 15.98L19.1584 12.9379C19.3333 12.605 19.7449 12.4768 20.078 12.6515ZM23.3333 12.6517C23.6662 12.8268 23.7941 13.2386 23.6191 13.5715L22.0193 16.6136C21.8975 16.8453 21.6608 16.9778 21.4159 16.9778C21.309 16.9778 21.2007 16.9526 21.0995 16.8994C20.7666 16.7243 20.6387 16.3125 20.8137 15.9796L22.4135 12.9375C22.5886 12.6046 23.0004 12.4767 23.3333 12.6517Z" fill="#0E0821"/>
</svg>
