<svg width="50" height="50" viewBox="0 0 50 50" fill="none" xmlns="http://www.w3.org/2000/svg">
<path d="M46.375 14.5488C45.0801 14.2646 43.4033 14.6182 42.3828 15.5244C42.001 14.5166 41.4648 13.3223 40.8281 12.1777C39.4922 9.77441 38.2451 8.52539 37.1201 8.46387C31.417 7.37793 20.7051 7.37793 15.002 8.46387C13.249 8.56152 11.5244 11.5947 10.6094 13.5049C9.64453 12.7266 8.27051 12.2393 6.74805 12.2393C3.83496 12.2393 1.46484 14.0205 1.46484 16.2109V38.376C1.46484 40.5664 3.83496 42.3477 6.74707 42.3477C9.55469 42.3477 11.8564 40.6924 12.0195 38.6113C13.4121 38.4678 14.832 38.0811 16.21 37.7041C17.9287 37.2344 19.7061 36.749 21.3994 36.749C22.584 36.749 23.7148 36.9189 24.585 37.2275C25.001 37.376 25.4473 37.3145 25.8086 37.0596C26.1699 36.8047 26.377 36.4053 26.377 35.9629V35.1377H36.0615C36.3447 35.1377 36.6045 35.2832 36.7559 35.5264C36.8085 35.6108 36.8817 35.6805 36.9686 35.7289C37.0556 35.7772 37.1534 35.8026 37.2529 35.8027H39.1777V37.0332C39.1777 38.3096 40.2158 39.3477 41.4922 39.3477H44.2373C45.5137 39.3477 46.5518 38.3096 46.5518 37.0332V31.7129C46.6572 30.915 46.7139 30.0615 46.7139 29.1865V21.666C46.7139 21.5225 46.6611 21.3848 46.5664 21.2773L44.6494 19.1162C45.7773 19.0889 46.832 18.9014 47.5781 18.5918C48.1396 18.3594 48.5059 17.8389 48.5322 17.2334C48.5938 15.8613 47.7871 14.8584 46.375 14.5488ZM26.376 30.3545H33.2275C33.3447 30.3545 33.4316 30.3936 33.5088 30.4805C33.5869 30.5674 33.6152 30.6582 33.6025 30.7744C33.5813 30.9602 33.4925 31.1318 33.3529 31.2562C33.2133 31.3807 33.0327 31.4494 32.8457 31.4492H26.376V30.3545ZM26.376 24.1172H31.25C31.3154 24.1172 31.3701 24.1719 31.3701 24.2373V24.7363C31.3701 25.4756 30.7686 26.0771 30.0303 26.0771H26.377V24.1172H26.376ZM26.1943 16.5713C25.3242 15.7432 23.5186 15.2285 21.4824 15.2285C19.6064 15.2285 17.7471 15.7236 15.9492 16.2031C14.9316 16.4736 13.9502 16.7354 12.998 16.9023C13.3613 15.9209 13.8633 14.9111 14.1016 14.4482C14.5195 13.6387 15.2715 12.3848 15.7324 11.9365C19.2334 11.2773 23.2979 11.2002 26.0605 11.2002C28.8232 11.2002 32.8877 11.2773 36.3887 11.9365C36.8506 12.3848 37.6025 13.6387 38.0195 14.4482C38.3369 15.0625 39.0547 16.5156 39.3789 17.6758C39.0068 17.7715 38.5732 17.8232 38.1299 17.8232H26.376V16.9961C26.376 16.835 26.3105 16.6816 26.1943 16.5713ZM6.74707 13.4111C9.01367 13.4111 10.8574 14.667 10.8574 16.2109C10.8574 17.7549 9.01367 19.0107 6.74707 19.0107C4.48047 19.0107 2.63672 17.7549 2.63672 16.2109C2.63672 14.667 4.48047 13.4111 6.74707 13.4111ZM6.74707 41.1758C4.48047 41.1758 2.63672 39.9199 2.63672 38.376V18.7012C3.60547 19.6035 5.08789 20.1826 6.74707 20.1826C8.40625 20.1826 9.88867 19.6035 10.8574 18.7012V38.375C10.8584 39.9199 9.01367 41.1758 6.74707 41.1758ZM25.2041 35.9629C25.2041 36.0254 25.1836 36.0664 25.1318 36.1016C25.0801 36.1387 25.0361 36.1445 24.9766 36.123C23.9844 35.7705 22.7139 35.5771 21.3994 35.5771C19.5498 35.5771 17.6953 36.084 15.9014 36.5732C14.5566 36.9404 13.2754 37.29 12.0293 37.4316V18.2129C13.4238 18.0869 14.8574 17.7051 16.249 17.334C17.9746 16.874 19.7588 16.3994 21.4814 16.3994C23.2461 16.3994 24.5693 16.8164 25.2041 17.2705V35.9629ZM44.2373 38.1748H41.4922C40.8623 38.1748 40.3496 37.6621 40.3496 37.0322V35.8018H44.5117C44.8496 35.8018 45.1553 35.6719 45.3799 35.4443V37.0322C45.3799 37.6631 44.8672 38.1748 44.2373 38.1748ZM45.542 29.1855C45.542 31.3867 45.1758 33.4102 44.5615 34.5996C44.5488 34.624 44.5381 34.6299 44.5107 34.6299H37.543C37.1689 34.209 36.6348 33.9658 36.0605 33.9658H26.376V32.6211H32.8457C33.8301 32.6211 34.6563 31.8838 34.7666 30.9063C34.8174 30.4551 34.6855 30.0381 34.3828 29.6992C34.0811 29.3604 33.6807 29.1816 33.2266 29.1816H26.375V27.248H30.0283C31.4131 27.248 32.54 26.1211 32.54 24.7354V24.2363C32.54 23.5244 31.9609 22.9443 31.248 22.9443H26.375V18.9941H38.1299C38.9375 18.9941 39.709 18.8525 40.3037 18.5957C40.4279 18.5421 40.5297 18.4471 40.5918 18.327C40.654 18.2068 40.6726 18.0689 40.6445 17.9365L40.6143 17.7949C40.3301 16.4551 39.4326 14.6309 39.0596 13.9082C39.0107 13.8135 37.8535 11.582 37.0127 10.9258C36.9395 10.8691 36.8535 10.8301 36.7627 10.8125L36.7129 10.8027C33.0898 10.1064 28.8965 10.0254 26.0586 10.0254C23.2207 10.0254 19.0273 10.1064 15.4043 10.8027L15.3545 10.8125C15.2637 10.8301 15.1777 10.8691 15.1045 10.9258C14.2646 11.582 13.1064 13.8135 13.0576 13.9082C12.7861 14.4336 12.3711 15.2783 12.0254 16.1543C12.0137 15.5352 11.8135 14.9512 11.4658 14.4307C12.8975 11.2979 14.3545 9.64648 15.0781 9.63184C15.1113 9.63086 15.1445 9.62793 15.1768 9.62109C20.668 8.56543 31.4482 8.56543 36.9395 9.62109C36.9717 9.62695 37.0049 9.63086 37.0381 9.63184C37.543 9.6416 38.5332 10.4648 39.8008 12.7451C40.8223 14.582 41.5879 16.5898 41.79 17.5449C41.8115 17.6445 41.8574 17.7363 41.9248 17.8125L45.5381 21.8857V29.1855H45.542ZM47.3613 17.1797C47.3545 17.332 47.2715 17.4482 47.1289 17.5078C46.4551 17.7871 45.4453 17.9473 44.3574 17.9473C44.0684 17.9473 43.8203 17.9404 43.5957 17.9268L42.9053 17.1494C42.8809 17.0459 42.8496 16.9316 42.8154 16.8135C43.3164 15.9668 44.875 15.4199 46.124 15.6943C46.9805 15.8809 47.3965 16.3809 47.3613 17.1797ZM42.0459 30.8828C42.0459 31.2061 41.7832 31.4687 41.46 31.4687H38.627C38.3037 31.4687 38.041 31.2061 38.041 30.8828C38.041 30.5596 38.3037 30.2969 38.627 30.2969H41.46C41.7832 30.2969 42.0459 30.5596 42.0459 30.8828ZM35.3818 22.8271C34.8086 22.9443 34.4053 23.4541 34.4238 24.0391L34.4277 24.165C34.4688 25.4727 35.5664 26.5361 36.874 26.5361H41.0791C42.2783 26.5361 43.2861 25.5986 43.3721 24.4023L43.4814 22.8867C43.5117 22.4648 43.3535 22.0791 43.0361 21.7998C42.7188 21.5205 42.3154 21.4131 41.9004 21.498L35.3818 22.8271ZM42.2627 22.6797C42.3037 22.7158 42.3164 22.7471 42.3125 22.8018L42.2031 24.3174C42.1602 24.9141 41.6768 25.3633 41.0791 25.3633H36.874C36.2041 25.3633 35.6201 24.7969 35.5996 24.127L35.5957 24.001C35.5957 23.9854 35.6016 23.9775 35.6162 23.9746L42.1357 22.6445C42.1875 22.6357 42.2227 22.6445 42.2627 22.6797ZM6.74707 18.1133C8.2168 18.1133 9.36816 17.2773 9.36816 16.2109C9.36816 15.1445 8.2168 14.3086 6.74707 14.3086C5.27734 14.3086 4.12598 15.1445 4.12598 16.2109C4.12598 17.2773 5.27734 18.1133 6.74707 18.1133ZM6.74707 15.4805C7.63184 15.4805 8.19629 15.9131 8.19629 16.2109C8.19629 16.5088 7.63184 16.9414 6.74707 16.9414C5.8623 16.9414 5.29785 16.5088 5.29785 16.2109C5.29785 15.9131 5.86328 15.4805 6.74707 15.4805Z" fill="#0E0821"/>
</svg>
