<svg width="50" height="50" viewBox="0 0 50 50" fill="none" xmlns="http://www.w3.org/2000/svg">
<g clip-path="url(#clip0_33_6)">
<path d="M32.4292 16.2796C32.1592 14.5372 31.4543 12.8909 30.3795 11.4931C30.2594 11.3369 30.0822 11.2347 29.8868 11.2091C29.6913 11.1836 29.4937 11.2367 29.3375 11.3568C29.1812 11.4769 29.0791 11.6542 29.0535 11.8496C29.0279 12.045 29.081 12.2426 29.2011 12.3989C30.0504 13.5029 30.6321 14.7889 30.9003 16.1558H13.1571C13.9801 11.9111 17.69 8.86273 22.0292 8.86273C23.6841 8.86273 25.3664 9.31812 26.8447 10.2506C27.0114 10.3557 27.2131 10.3904 27.4053 10.3468C27.5975 10.3033 27.7646 10.1852 27.8697 10.0184C27.9749 9.85174 28.0095 9.65008 27.9659 9.45785C27.9224 9.26562 27.8043 9.09856 27.6376 8.99342C26.9192 8.54047 26.1484 8.1766 25.3421 7.90983V3.10422C25.3421 2.3377 24.7185 1.71416 23.952 1.71416H20.1064C19.3398 1.71416 18.7163 2.3377 18.7163 3.10422V7.90983C15.0513 9.12372 12.2442 12.3099 11.629 16.2796C10.6537 16.6025 9.9478 17.5224 9.9478 18.6045C9.9478 19.6396 10.5935 20.526 11.503 20.8839V38.5392C11.503 38.7363 11.5813 38.9253 11.7207 39.0647C11.8601 39.204 12.0491 39.2823 12.2462 39.2823C12.4433 39.2823 12.6323 39.204 12.7716 39.0647C12.911 38.9253 12.9893 38.7363 12.9893 38.5392V21.0535H31.069V25.3365H23.2713C21.9763 25.3365 20.9227 26.3901 20.9227 27.6851V41.1798C20.9227 42.4748 21.9763 43.5284 23.2713 43.5284H31.069V47.2502C31.069 47.947 30.5021 48.5138 29.8054 48.5138H14.2529C13.5562 48.5138 12.9893 47.947 12.9893 47.2502V42.0072C12.9893 41.8101 12.911 41.6211 12.7716 41.4818C12.6323 41.3424 12.4433 41.2641 12.2462 41.2641C12.0491 41.2641 11.8601 41.3424 11.7207 41.4818C11.5813 41.6211 11.503 41.8101 11.503 42.0072V47.2502C11.503 48.7665 12.7366 50.0001 14.2529 50.0001H29.8054C31.3216 50.0001 32.5553 48.7665 32.5553 47.2502V20.8841C33.4647 20.5262 34.1105 19.6398 34.1105 18.6047C34.1106 17.5223 33.4046 16.6024 32.4292 16.2796ZM20.2026 7.53519V3.20043H23.8559V7.53519C23.2975 7.43739 22.6422 7.37646 22.0292 7.37646C21.4189 7.37646 20.7893 7.43214 20.2026 7.53519ZM23.2714 42.0421C22.7959 42.0421 22.4091 41.6553 22.4091 41.1798V27.6851C22.4091 27.2096 22.7959 26.8228 23.2714 26.8228H31.0691V42.0421H23.2714ZM31.7621 19.562C31.7574 19.5623 31.7528 19.5621 31.748 19.5625C31.6684 19.5692 12.4123 19.5713 12.3104 19.5625C12.3056 19.5621 12.301 19.5623 12.2962 19.562C11.8125 19.5116 11.4341 19.1015 11.4341 18.6046C11.4341 18.1498 11.754 17.6851 12.3967 17.642C20.3974 17.642 28.2714 17.6394 31.7604 17.6471C32.245 17.6966 32.6243 18.1072 32.6243 18.6046C32.6243 19.1015 32.2458 19.5117 31.7621 19.562Z" fill="#0E0821"/>
<path d="M22.0292 6.37778C22.2263 6.37778 22.4153 6.29949 22.5547 6.16013C22.694 6.02076 22.7723 5.83174 22.7723 5.63465V4.79857C22.7723 4.60148 22.694 4.41246 22.5547 4.2731C22.4153 4.13373 22.2263 4.05544 22.0292 4.05544C21.8321 4.05544 21.6431 4.13373 21.5037 4.2731C21.3644 4.41246 21.2861 4.60148 21.2861 4.79857V5.63465C21.2861 5.83174 21.3644 6.02076 21.5037 6.16013C21.6431 6.29949 21.8321 6.37778 22.0292 6.37778ZM30.2121 7.65221C30.5302 7.65221 30.8244 7.44711 30.9225 7.12706C31.0424 6.7337 30.8215 6.31853 30.4291 6.19864C30.0367 6.07875 29.6206 6.29971 29.5017 6.69208C29.3565 7.16323 29.7045 7.65221 30.2121 7.65221ZM27.1801 6.72577C27.4982 6.72577 27.7925 6.51967 27.8905 6.19963C28.0104 5.80726 27.7895 5.39209 27.3971 5.2722C27.0047 5.15231 26.5886 5.37326 26.4687 5.76564C26.3228 6.24293 26.6804 6.72577 27.1801 6.72577ZM36.4941 8.05251C36.4008 8.02375 36.3027 8.01368 36.2055 8.02288C36.1083 8.03207 36.0139 8.06035 35.9277 8.1061C35.8414 8.15184 35.7651 8.21415 35.7029 8.28946C35.6408 8.36477 35.5942 8.4516 35.5656 8.54496C35.5371 8.63833 35.5272 8.7364 35.5365 8.83358C35.5459 8.93077 35.5743 9.02516 35.6201 9.11137C35.6659 9.19758 35.7283 9.27393 35.8036 9.33604C35.8789 9.39816 35.9657 9.44483 36.0591 9.47339C36.1524 9.50195 36.2505 9.51184 36.3477 9.5025C36.4449 9.49316 36.5393 9.46477 36.6255 9.41895C36.7117 9.37313 36.788 9.31078 36.8502 9.23545C36.9123 9.16013 36.9589 9.07331 36.9875 8.97995C37.1074 8.58757 36.8864 8.17142 36.4941 8.05251ZM33.4611 7.12508C33.0687 7.00519 32.6535 7.22615 32.5337 7.61852C32.4138 8.0109 32.6347 8.42705 33.0271 8.54695C33.1204 8.57548 33.2184 8.58536 33.3155 8.576C33.4126 8.56664 33.5069 8.53824 33.5931 8.49241C33.6792 8.44659 33.7554 8.38424 33.8175 8.30893C33.8795 8.23362 33.9261 8.14682 33.9545 8.0535C34.0744 7.66113 33.8535 7.24497 33.4611 7.12508ZM39.5261 8.97896C39.1337 8.85906 38.7175 9.08002 38.5976 9.4724C38.4777 9.86477 38.6987 10.2799 39.0911 10.3998C39.4682 10.5186 39.8958 10.3099 40.0195 9.90639C40.0771 9.71797 40.0574 9.5144 39.9649 9.34048C39.8723 9.16655 39.7145 9.03651 39.5261 8.97896ZM39.5261 1.45447C39.7145 1.39692 39.8723 1.26687 39.9649 1.09295C40.0574 0.919018 40.0771 0.715454 40.0195 0.527034C39.991 0.433597 39.9444 0.346686 39.8823 0.271265C39.8203 0.195845 39.7439 0.133394 39.6577 0.0874788C39.5715 0.0415638 39.4771 0.0130849 39.3799 0.00366898C39.2826 -0.00574694 39.1845 0.0040846 39.0911 0.032602C38.6987 0.153485 38.4777 0.56865 38.5976 0.961025C38.6554 1.14953 38.7856 1.3074 38.9597 1.39993C39.1338 1.49246 39.3375 1.51207 39.5261 1.45447ZM30.4291 4.23478C30.5225 4.20622 30.6093 4.15955 30.6846 4.09744C30.7599 4.03532 30.8223 3.95898 30.8681 3.87277C30.9139 3.78655 30.9423 3.69216 30.9516 3.59498C30.961 3.49779 30.9511 3.39972 30.9225 3.30636C30.894 3.213 30.8473 3.12618 30.7852 3.05085C30.7231 2.97553 30.6467 2.91318 30.5605 2.86736C30.4743 2.82154 30.3799 2.79314 30.2827 2.7838C30.1855 2.77446 30.0875 2.78436 29.9941 2.81292C29.9007 2.84143 29.8139 2.88809 29.7386 2.95021C29.6633 3.01233 29.601 3.0887 29.5552 3.17495C29.5095 3.26119 29.4812 3.35561 29.472 3.45281C29.4628 3.55 29.4729 3.64805 29.5017 3.74134C29.53 3.83471 29.5766 3.92156 29.6386 3.99692C29.7006 4.07228 29.7768 4.13466 29.863 4.1805C29.9491 4.22634 30.0435 4.25473 30.1406 4.26404C30.2378 4.27336 30.3358 4.26341 30.4291 4.23478ZM33.4611 3.30834C33.8535 3.18746 34.0744 2.77229 33.9545 2.37992C33.8346 1.98754 33.4195 1.76658 33.0271 1.88648C32.6347 2.00637 32.4138 2.42153 32.5337 2.81391C32.6544 3.20817 33.0704 3.42595 33.4611 3.30834ZM36.0591 0.960034C35.8707 1.01759 35.7128 1.14763 35.6203 1.32156C35.5277 1.49548 35.5081 1.69905 35.5656 1.88747C35.6882 2.28747 36.1113 2.49981 36.4941 2.38091C36.8864 2.26102 37.1074 1.84585 36.9875 1.45348C36.8676 1.0611 36.4515 0.840142 36.0591 0.960034ZM27.1791 5.19392C27.6792 5.19392 28.0363 4.70979 27.8905 4.2328C27.7707 3.84043 27.3545 3.61947 26.9621 3.73936C26.5697 3.85925 26.3488 4.27541 26.4687 4.66778C26.5153 4.81993 26.6094 4.95313 26.7373 5.04783C26.8651 5.14253 27.02 5.19373 27.1791 5.19392Z" fill="#0E0821"/>
<path d="M32.9677 5.96579C33.3781 5.96579 33.7108 5.63308 33.7108 5.22266C33.7108 4.81224 33.3781 4.47952 32.9677 4.47952C32.5572 4.47952 32.2245 4.81224 32.2245 5.22266C32.2245 5.63308 32.5572 5.96579 32.9677 5.96579Z" fill="#0E0821"/>
<path d="M39.3091 5.96579C39.7195 5.96579 40.0522 5.63308 40.0522 5.22266C40.0522 4.81224 39.7195 4.47952 39.3091 4.47952C38.8986 4.47952 38.5659 4.81224 38.5659 5.22266C38.5659 5.63308 38.8986 5.96579 39.3091 5.96579Z" fill="#0E0821"/>
<path d="M36.1383 5.96579C36.5488 5.96579 36.8815 5.63308 36.8815 5.22266C36.8815 4.81224 36.5488 4.47952 36.1383 4.47952C35.7279 4.47952 35.3952 4.81224 35.3952 5.22266C35.3952 5.63308 35.7279 5.96579 36.1383 5.96579Z" fill="#0E0821"/>
</g>
<defs>
<clipPath id="clip0_33_6">
<rect width="50" height="50" fill="white"/>
</clipPath>
</defs>
</svg>
