<svg width="50" height="50" viewBox="0 0 50 50" fill="none" xmlns="http://www.w3.org/2000/svg">
<path fill-rule="evenodd" clip-rule="evenodd" d="M8.3332 30.2149C8.73497 30.168 9.0226 29.8042 8.97563 29.4024L6.9978 12.483C6.95084 12.0812 6.58706 11.7936 6.18529 11.8406C5.78352 11.8875 5.4959 12.2513 5.54287 12.6531L7.5207 29.5725C7.56766 29.9743 7.93143 30.2619 8.3332 30.2149Z" fill="#0E0821"/>
<mask id="mask0_124_4964" style="mask-type:luminance" maskUnits="userSpaceOnUse" x="0" y="0" width="50" height="50">
<path d="M0 3.8147e-06H50V50H0V3.8147e-06Z" fill="white"/>
</mask>
<g mask="url(#mask0_124_4964)">
<path fill-rule="evenodd" clip-rule="evenodd" d="M9.01411 42.3494C9.10698 43.4287 10.1156 44.0959 11.1112 44.0959H22.9327C23.3372 44.0959 23.6651 43.768 23.6651 43.3635C23.6651 42.959 23.3372 42.6311 22.9327 42.6311H11.1112C10.6668 42.6311 10.4836 42.3542 10.4733 42.2203C10.4725 42.2108 10.4716 42.2013 10.4705 42.1918L9.34619 32.573C9.29923 32.1713 8.93546 31.8836 8.53369 31.9306C8.13192 31.9776 7.84429 32.3413 7.89125 32.7431L9.01411 42.3494Z" fill="#0E0821"/>
<path fill-rule="evenodd" clip-rule="evenodd" d="M31.5713 33.4714C31.973 33.5183 32.3368 33.2307 32.3838 32.8289L33.2032 25.8201C33.2502 25.4183 32.9626 25.0545 32.5608 25.0075C32.159 24.9606 31.7953 25.2482 31.7483 25.6499L30.9289 32.6588C30.8819 33.0606 31.1695 33.4244 31.5713 33.4714Z" fill="#0E0821"/>
<path fill-rule="evenodd" clip-rule="evenodd" d="M32.7517 23.3733C33.1535 23.4203 33.5172 23.1327 33.5642 22.7309L34.7422 12.6531C34.7892 12.2513 34.5016 11.8875 34.0998 11.8406C33.698 11.7936 33.3343 12.0812 33.2873 12.483L32.1093 22.5608C32.0623 22.9626 32.3499 23.3264 32.7517 23.3733Z" fill="#0E0821"/>
<path fill-rule="evenodd" clip-rule="evenodd" d="M2.15796 12.0798C2.15796 12.7539 2.70433 13.3005 3.37866 13.3005H36.9066C37.5807 13.3005 38.1273 12.754 38.1273 12.0798V7.12476C38.1273 6.45062 37.5807 5.90405 36.9066 5.90405H31.3657C30.9612 5.90405 30.6333 6.23197 30.6333 6.63647C30.6333 7.04098 30.9612 7.3689 31.3657 7.3689H36.6624V11.8357H3.6228V7.3689H28.1736C28.5781 7.3689 28.906 7.04098 28.906 6.63647C28.906 6.23197 28.5781 5.90405 28.1736 5.90405H3.37866C2.70433 5.90405 2.15796 6.45072 2.15796 7.12476V12.0798Z" fill="#0E0821"/>
<path fill-rule="evenodd" clip-rule="evenodd" d="M10.1406 40.2497C10.305 39.8801 10.1387 39.4472 9.76908 39.2828L6.16899 37.6815L6.16898 37.6815C0.182354 35.0186 -0.17013 26.6541 5.5711 23.4969C5.57111 23.4969 5.57111 23.4969 5.57111 23.4969L18.2479 16.5261C18.6023 16.3312 18.7316 15.8859 18.5367 15.5314C18.3418 15.177 17.8965 15.0477 17.542 15.2426L4.86528 22.2134L4.86527 22.2134C-1.93724 25.9541 -1.5196 35.8648 5.57364 39.0199C5.57365 39.0199 5.57365 39.0199 5.57365 39.0199L9.17374 40.6212C9.54333 40.7856 9.97622 40.6193 10.1406 40.2497Z" fill="#0E0821"/>
<path fill-rule="evenodd" clip-rule="evenodd" d="M16.6199 13.9385C16.6199 15.8839 18.1969 17.4611 20.1425 17.4611C22.088 17.4611 23.6651 15.8839 23.6651 13.9385V12.6657C23.6651 12.2612 23.3372 11.9333 22.9327 11.9333C22.5282 11.9333 22.2002 12.2612 22.2002 12.6657V13.9385C22.2002 15.0749 21.2789 15.9962 20.1425 15.9962C19.0059 15.9962 18.0847 15.0749 18.0847 13.9385V12.6657C18.0847 12.2612 17.7568 11.9333 17.3523 11.9333C16.9478 11.9333 16.6199 12.2612 16.6199 12.6657V13.9385Z" fill="#0E0821"/>
<path fill-rule="evenodd" clip-rule="evenodd" d="M43.1019 33.4648C43.5 33.3935 43.765 33.0129 43.6937 32.6147C42.9197 28.2929 39.1346 25.0025 34.5921 25.0025H28.6655C28.2171 25.0025 27.8535 24.639 27.8535 24.1904C27.8535 23.7419 28.2171 23.3783 28.6655 23.3783H34.5921C40.1069 23.3783 44.6782 27.5085 45.3715 32.8383C45.4237 33.2394 45.7912 33.5223 46.1923 33.4701C46.5935 33.418 46.8763 33.0505 46.8242 32.6494C46.0372 26.6 40.8532 21.9135 34.5921 21.9135H28.6655C27.4081 21.9135 26.3887 22.9329 26.3887 24.1904C26.3887 25.4479 27.4081 26.4674 28.6655 26.4674H34.5921C38.4117 26.4674 41.6004 29.2361 42.2518 32.873C42.3231 33.2711 42.7037 33.5361 43.1019 33.4648Z" fill="#0E0821"/>
<path fill-rule="evenodd" clip-rule="evenodd" d="M19.8562 36.7717C19.8562 37.4458 20.4028 37.9924 21.0769 37.9924H48.7793C49.4537 37.9924 50 37.4457 50 36.7717V35.6474C50 33.6393 48.3722 32.0114 46.364 32.0114H39.6326C39.2281 32.0114 38.9001 32.3393 38.9001 32.7438C38.9001 33.1483 39.2281 33.4763 39.6326 33.4763H46.364C47.5632 33.4763 48.5352 34.4483 48.5352 35.6474V36.5275H21.321V35.6474C21.321 34.4483 22.2931 33.4763 23.4922 33.4763H36.4404C36.8449 33.4763 37.1728 33.1483 37.1728 32.7438C37.1728 32.3393 36.8449 32.0114 36.4404 32.0114H23.4922C21.4841 32.0114 19.8562 33.6393 19.8562 35.6474V36.7717Z" fill="#0E0821"/>
<path fill-rule="evenodd" clip-rule="evenodd" d="M21.3591 42.3869C21.3591 43.3308 22.1243 44.0959 23.0681 44.0959H46.7878C47.7316 44.0959 48.4968 43.3308 48.4968 42.3869V37.5529C48.4968 37.1484 48.1689 36.8205 47.7644 36.8205C47.3599 36.8205 47.032 37.1484 47.032 37.5529V42.3869C47.032 42.5217 46.9226 42.631 46.7878 42.631H23.0681C22.9333 42.631 22.824 42.5218 22.824 42.3869V37.5529C22.824 37.1484 22.4961 36.8205 22.0916 36.8205C21.687 36.8205 21.3591 37.1484 21.3591 37.5529V42.3869Z" fill="#0E0821"/>
<path fill-rule="evenodd" clip-rule="evenodd" d="M34.928 44.0959C35.3325 44.0959 35.6604 43.768 35.6604 43.3635V37.5529C35.6604 37.1484 35.3325 36.8205 34.928 36.8205C34.5235 36.8205 34.1956 37.1484 34.1956 37.5529V43.3635C34.1956 43.768 34.5235 44.0959 34.928 44.0959Z" fill="#0E0821"/>
<path fill-rule="evenodd" clip-rule="evenodd" d="M26.2705 44.0959C26.675 44.0959 27.0029 43.768 27.0029 43.3635V37.5529C27.0029 37.1484 26.675 36.8205 26.2705 36.8205C25.866 36.8205 25.5381 37.1484 25.5381 37.5529V43.3635C25.5381 43.768 25.866 44.0959 26.2705 44.0959Z" fill="#0E0821"/>
<path fill-rule="evenodd" clip-rule="evenodd" d="M43.5857 44.0959C43.9902 44.0959 44.3181 43.768 44.3181 43.3635V37.5529C44.3181 37.1484 43.9902 36.8205 43.5857 36.8205C43.1812 36.8205 42.8533 37.1484 42.8533 37.5529V43.3635C42.8533 43.768 43.1812 44.0959 43.5857 44.0959Z" fill="#0E0821"/>
<path fill-rule="evenodd" clip-rule="evenodd" d="M39.2568 44.0959C39.6613 44.0959 39.9893 43.768 39.9893 43.3635V37.5529C39.9893 37.1484 39.6613 36.8205 39.2568 36.8205C38.8523 36.8205 38.5244 37.1484 38.5244 37.5529V43.3635C38.5244 43.768 38.8523 44.0959 39.2568 44.0959Z" fill="#0E0821"/>
<path fill-rule="evenodd" clip-rule="evenodd" d="M30.5994 44.0959C31.0039 44.0959 31.3318 43.768 31.3318 43.3635V37.5529C31.3318 37.1484 31.0039 36.8205 30.5994 36.8205C30.1949 36.8205 29.8669 37.1484 29.8669 37.5529V43.3635C29.8669 43.768 30.1949 44.0959 30.5994 44.0959Z" fill="#0E0821"/>
</g>
</svg>
