<svg width="50" height="50" viewBox="0 0 50 50" fill="none" xmlns="http://www.w3.org/2000/svg">
<path d="M42.2961 31.2712L39.7055 29.4774C39.535 29.3595 39.3248 29.3141 39.1209 29.3513C38.917 29.3884 38.7362 29.505 38.6183 29.6755C38.5004 29.8459 38.4551 30.0561 38.4922 30.26C38.5294 30.4639 38.646 30.6447 38.8164 30.7626L40.4828 31.9165L23.9422 43.4743L6.94217 31.8594L8.23748 30.9532C8.40728 30.8343 8.52289 30.6527 8.55885 30.4486C8.59482 30.2444 8.54821 30.0343 8.42928 29.8645C8.31035 29.6947 8.12883 29.5791 7.92467 29.5431C7.7205 29.5072 7.51041 29.5538 7.34061 29.6727L5.12186 31.2274C5.01831 31.2998 4.93388 31.3963 4.87581 31.5086C4.81775 31.6208 4.78777 31.7455 4.78846 31.8718C4.78916 31.9982 4.82049 32.1225 4.87978 32.2341C4.93908 32.3457 5.02456 32.4413 5.12889 32.5126L23.5062 45.0688C23.6372 45.1584 23.7923 45.2061 23.951 45.2054C24.1097 45.2047 24.2644 45.1557 24.3945 45.0649L42.2992 32.554C42.4013 32.4809 42.4844 32.3845 42.5416 32.2728C42.5988 32.1611 42.6286 32.0373 42.6282 31.9118C42.6279 31.7862 42.5976 31.6626 42.5399 31.5512C42.4821 31.4397 42.3985 31.3437 42.2961 31.2712Z" fill="#0E0821"/>
<path d="M46.6226 20.2054C46.5284 20.1186 46.4143 20.0563 46.2903 20.024C46.1663 19.9917 46.0363 19.9904 45.9117 20.0203L40.146 21.4062C40.0067 21.4416 39.8797 21.5144 39.7789 21.6168C39.678 21.7193 39.6072 21.8474 39.574 21.9872C39.5408 22.1271 39.5466 22.2734 39.5907 22.4102C39.6348 22.547 39.7155 22.6691 39.8242 22.7632L41.546 24.2164L28.3484 33.5211L24.4195 30.8125L33.4007 24.582C33.4954 24.5151 33.5742 24.428 33.6313 24.3271C33.6884 24.2262 33.7225 24.1139 33.7312 23.9983C33.7399 23.8826 33.7229 23.7665 33.6814 23.6582C33.6399 23.5499 33.575 23.4521 33.4914 23.3718L32.5656 22.4968L35.6851 21.8L34.9031 26.0148C34.8653 26.2186 34.9099 26.429 35.0273 26.5999C35.1447 26.7707 35.3251 26.8879 35.5289 26.9257C35.7326 26.9636 35.9431 26.9189 36.1139 26.8015C36.2848 26.6842 36.402 26.5037 36.4398 26.3L37.4374 20.9226C37.4609 20.7957 37.4526 20.6648 37.4132 20.5419C37.3738 20.4189 37.3045 20.3077 37.2115 20.218C37.1186 20.1284 37.0048 20.0632 36.8805 20.0283C36.7562 19.9934 36.6252 19.9898 36.4992 20.0179L30.789 21.2922C30.6515 21.3246 30.5253 21.3934 30.4236 21.4914C30.3219 21.5894 30.2485 21.7129 30.211 21.8491C30.1735 21.9853 30.1734 22.129 30.2106 22.2653C30.2479 22.4015 30.3211 22.5252 30.4226 22.6234L31.7187 23.8468L23.0445 29.8648L13.2749 23.1304C13.1043 23.0189 12.8968 22.9785 12.6968 23.0178C12.4968 23.0571 12.3201 23.1731 12.2044 23.3409C12.0887 23.5087 12.0431 23.7151 12.0775 23.916C12.1118 24.117 12.2233 24.2965 12.3882 24.4164L21.6726 30.8164L18.6593 32.9078L4.36089 22.6859C4.19224 22.5676 3.98368 22.5206 3.7806 22.5553C3.57751 22.59 3.39635 22.7035 3.27654 22.8711C3.15673 23.0387 3.10798 23.2468 3.1409 23.4502C3.17381 23.6536 3.28573 23.8357 3.45229 23.957L18.1976 34.4984C18.3287 34.5921 18.4855 34.643 18.6466 34.6441C18.8077 34.6453 18.9653 34.5965 19.0976 34.5047L23.0476 31.764L27.9109 35.1156C28.0423 35.2063 28.1983 35.2545 28.358 35.2538C28.5176 35.2531 28.6732 35.2035 28.8039 35.1117L43.2726 24.9109C43.3692 24.8414 43.4487 24.7509 43.5053 24.6462C43.5619 24.5416 43.594 24.4254 43.5993 24.3066C43.6046 24.1877 43.5828 24.0692 43.5357 23.9599C43.4886 23.8507 43.4173 23.7535 43.3273 23.6757L42.0109 22.5648L45.1445 21.8117L44.546 25.7062C44.5213 25.9078 44.5761 26.1112 44.6987 26.2731C44.8214 26.435 45.0023 26.5428 45.2031 26.5736C45.4038 26.6044 45.6087 26.5557 45.7743 26.438C45.9398 26.3203 46.053 26.1427 46.0898 25.9429L46.8656 20.8984C46.885 20.7718 46.8729 20.6424 46.8306 20.5216C46.7882 20.4008 46.7168 20.2922 46.6226 20.2054Z" fill="#0E0821"/>
<path d="M22.4844 24.0235C24.2926 24.0214 26.0262 23.3022 27.3048 22.0236C28.5834 20.745 29.3026 19.0114 29.3047 17.2032C29.2695 16.4782 29.4016 15.0852 28.3125 15.1962C28.211 15.2114 28.1136 15.2466 28.0257 15.2995C27.9378 15.3525 27.8611 15.4222 27.8002 15.5048C27.7393 15.5873 27.6952 15.6811 27.6705 15.7807C27.6458 15.8803 27.6409 15.9838 27.6563 16.0852C27.8102 16.854 27.7926 17.6474 27.6047 18.4086C27.4169 19.1698 27.0634 19.8802 26.5694 20.4892C26.0755 21.0981 25.4533 21.5905 24.7471 21.9314C24.041 22.2722 23.2684 22.4531 22.4844 22.461C21.0904 22.4596 19.7539 21.9052 18.7681 20.9194C17.7824 19.9337 17.228 18.5972 17.2266 17.2032C17.2266 12.979 21.0336 8.33836 22.4844 6.72273C24.2338 8.63707 25.6831 10.8054 26.7828 13.154C26.8652 13.3442 27.0197 13.4939 27.2125 13.5702C27.4052 13.6464 27.6203 13.643 27.8105 13.5606C28.0008 13.4783 28.1505 13.3237 28.2267 13.131C28.303 12.9382 28.2996 12.7231 28.2172 12.5329C26.9182 9.76082 25.1675 7.22392 23.0367 5.02586C22.8902 4.8794 22.6915 4.79712 22.4844 4.79712C22.2772 4.79712 22.0785 4.8794 21.932 5.02586C21.6758 5.28211 15.6641 11.361 15.6641 17.2032C15.6661 19.0114 16.3854 20.745 17.664 22.0236C18.9426 23.3022 20.6762 24.0214 22.4844 24.0235Z" fill="#0E0821"/>
<path d="M22.9508 18.8072C22.7734 18.8627 22.6214 18.9795 22.5222 19.1367C22.423 19.294 22.3829 19.4814 22.4091 19.6654C22.4353 19.8495 22.5261 20.0182 22.6652 20.1415C22.8044 20.2648 22.9829 20.3346 23.1688 20.3384C23.8905 20.1906 24.5388 19.7975 25.0035 19.2258C25.4682 18.6541 25.7207 17.9392 25.718 17.2025C25.7383 16.5665 25.6461 15.6033 24.7719 15.7095C23.9641 15.854 24.1133 16.5939 24.1555 17.2025C24.1541 17.564 24.0361 17.9154 23.8191 18.2045C23.602 18.4936 23.2975 18.7049 22.9508 18.8072Z" fill="#0E0821"/>
</svg>
