<svg width="50" height="50" viewBox="0 0 50 50" fill="none" xmlns="http://www.w3.org/2000/svg">
<mask id="mask0_124_5039" style="mask-type:luminance" maskUnits="userSpaceOnUse" x="0" y="0" width="50" height="50">
<path d="M0 3.8147e-06H50V50H0V3.8147e-06Z" fill="white"/>
</mask>
<g mask="url(#mask0_124_5039)">
<path fill-rule="evenodd" clip-rule="evenodd" d="M24.7472 49.9667C24.9128 50.0111 25.0872 50.0111 25.2528 49.9667C34.9021 47.3812 40.5063 41.9673 43.6564 35.0582C46.777 28.2138 47.4607 19.9647 47.4607 11.7188C47.4607 11.1794 47.0235 10.7422 46.4842 10.7422C41.0908 10.7422 36.7187 6.36995 36.7187 0.976562C36.7187 0.437222 36.2814 0 35.7421 0H14.2578C13.7185 0 13.2812 0.437222 13.2812 0.976562C13.2812 6.36994 8.909 10.7422 3.51562 10.7422C2.97628 10.7422 2.53906 11.1794 2.53906 11.7188C2.53906 19.9647 3.22286 28.2138 6.34349 35.0582C9.49361 41.9673 15.0979 47.3812 24.7472 49.9667ZM4.49529 12.6549C10.187 12.1839 14.7247 7.64523 15.1943 1.95312H34.8056C35.2752 7.64521 39.8128 12.1839 45.5045 12.6549C45.4516 20.5116 44.7049 28.0505 41.8792 34.248C38.9981 40.5671 33.9286 45.552 25 48.0115C16.0713 45.552 11.0018 40.5671 8.12062 34.248C5.29496 28.0505 4.54815 20.5116 4.49529 12.6549Z" fill="#0E0821"/>
<path fill-rule="evenodd" clip-rule="evenodd" d="M24.7182 45.8978C24.902 45.9532 25.098 45.9532 25.2818 45.8978C30.7525 44.249 35.4174 41.3231 38.5892 36.2606C42.3949 30.1866 43.323 22.1671 43.5123 15.1127C43.5244 14.6649 43.2302 14.2664 42.7988 14.1459C38.1992 12.8612 34.5755 9.22805 33.304 4.62288C33.1871 4.19948 32.8019 3.90622 32.3627 3.90622H17.6373C17.1981 3.90622 16.8129 4.19948 16.696 4.62289C16.435 5.56794 16.0748 6.47213 15.6274 7.32385C15.3765 7.80133 15.5603 8.39172 16.0377 8.64254C16.5152 8.89336 17.1056 8.70962 17.3564 8.23215C17.7537 7.47583 18.0912 6.68281 18.362 5.85935H31.638C33.1769 10.5398 36.8658 14.2431 41.5372 15.8016C41.3033 22.5969 40.3185 29.822 36.9341 35.2236L36.9341 35.2236C34.1241 39.7087 30.0079 42.3808 25 43.9414C19.9921 42.3808 15.876 39.7087 13.0659 35.2236L13.0659 35.2236C9.6816 29.822 8.69673 22.5969 8.46275 15.8015C9.27821 15.5294 10.0636 15.1919 10.8127 14.7955C11.2894 14.5432 11.4714 13.9523 11.2191 13.4756C10.9669 12.9988 10.3759 12.8169 9.89922 13.0691C9.04869 13.5192 8.1454 13.8822 7.20115 14.1459C6.76976 14.2664 6.47564 14.6649 6.48766 15.1127C6.67696 22.1671 7.60524 30.1866 11.4108 36.2606C14.5826 41.3231 19.2475 44.249 24.7182 45.8978Z" fill="#0E0821"/>
<path fill-rule="evenodd" clip-rule="evenodd" d="M22.2198 34.3224C23.1266 34.5652 24.0612 34.6884 25 34.6884C30.9328 34.6884 35.7422 29.879 35.7422 23.9462C35.7422 18.0134 30.9328 13.204 25 13.204C19.0672 13.204 14.2578 18.0134 14.2578 23.9462C14.2578 26.7952 15.3896 29.5275 17.4042 31.5421C17.5873 31.7252 17.8357 31.8281 18.0947 31.8281C18.3537 31.8281 18.6021 31.7252 18.7853 31.5421L25.6905 24.6367C26.0719 24.2553 26.0719 23.637 25.6905 23.2556C25.3092 22.8743 24.6908 22.8743 24.3095 23.2556L18.1332 29.432C16.8948 27.8819 16.2109 25.9493 16.2109 23.9462C16.2109 19.0921 20.1459 15.1571 25 15.1571C29.8541 15.1571 33.7891 19.0921 33.7891 23.9462C33.7891 28.8003 29.8541 32.7352 25 32.7352C24.232 32.7352 23.4672 32.6345 22.7251 32.4358C22.2041 32.2962 21.6687 32.6055 21.5291 33.1264C21.3896 33.6474 21.6988 34.1829 22.2198 34.3224Z" fill="#0E0821"/>
<path fill-rule="evenodd" clip-rule="evenodd" d="M20.1482 29.4696C23.0214 30.2881 26.2123 29.6159 28.441 27.3872C30.6696 25.1585 31.3418 21.9676 30.5233 19.0945C30.4307 18.7695 30.1767 18.5155 29.8517 18.4229C26.9785 17.6043 23.7876 18.2765 21.5589 20.5052C19.3303 22.7338 18.6581 25.9248 19.4766 28.7979C19.5692 29.1229 19.8232 29.377 20.1482 29.4696ZM21.2243 27.7219C20.8081 25.6324 21.3857 23.4405 22.94 21.8862C24.4943 20.3319 26.6862 19.7544 28.7756 20.1706C29.1918 22.26 28.6142 24.4519 27.0599 26.0062C25.5056 27.5604 23.3138 28.138 21.2243 27.7219Z" fill="#0E0821"/>
<path fill-rule="evenodd" clip-rule="evenodd" d="M12.9119 11.3187C12.9119 11.858 13.3491 12.2952 13.8884 12.2952H13.8892C14.4285 12.2952 14.8658 11.858 14.8658 11.3187C14.8658 10.7793 14.4285 10.3421 13.8892 10.3421H13.8884C13.3491 10.3421 12.9119 10.7793 12.9119 11.3187Z" fill="#0E0821"/>
</g>
</svg>
