<svg width="50" height="50" viewBox="0 0 50 50" fill="none" xmlns="http://www.w3.org/2000/svg">
<g clip-path="url(#clip0_124_5017)">
<path d="M36.0271 41.6794C35.7418 41.9388 35.4759 42.2279 35.2184 42.5075C34.6657 43.1087 34.1434 43.6764 33.5754 43.8053C33.0429 43.9262 32.3429 43.6497 31.6017 43.3567C30.862 43.0641 30.0968 42.7616 29.2931 42.7616C28.4893 42.7616 27.7245 43.0641 26.9844 43.3567C26.2432 43.6497 25.5432 43.9266 25.0107 43.8053C24.4427 43.6764 23.9204 43.1087 23.3677 42.5075C22.8424 41.9365 22.2992 41.3463 21.6049 41.0114C20.8961 40.6692 20.0855 40.6101 19.302 40.5529C18.4971 40.4941 17.7372 40.4385 17.297 40.0867C16.8526 39.7324 16.6294 39.0011 16.3933 38.2267C16.1648 37.4771 15.9279 36.702 15.4396 36.0901C14.9544 35.4824 14.2536 35.0819 13.5757 34.6947C12.8704 34.2914 12.204 33.9104 11.9545 33.3935C11.7126 32.8922 11.8275 32.1422 11.9492 31.3484C12.0682 30.5683 12.1918 29.7623 12.0159 28.989C11.8469 28.244 11.3945 27.5871 10.9577 26.9516C10.8978 26.8642 10.8383 26.778 10.78 26.6922C10.7788 26.6903 10.7777 26.6888 10.7765 26.6868C10.3848 26.1082 10.0533 25.5585 10.0533 25.0439C10.0533 24.4514 10.4927 23.8125 10.9577 23.1365C11.3949 22.501 11.8465 21.8437 12.0159 21.0987C12.1918 20.3258 12.0682 19.5194 11.9492 18.7393C11.8275 17.9455 11.7126 17.1955 11.9545 16.6942C12.204 16.1774 12.8704 15.7963 13.5757 15.3931C13.9622 15.1726 14.3616 14.9441 14.7224 14.6751C15.0471 14.4325 15.1138 13.9728 14.8716 13.6482C14.629 13.3236 14.1697 13.2568 13.8447 13.4991C13.5559 13.7146 13.2122 13.911 12.8479 14.1193C12.0193 14.5927 11.0806 15.1295 10.6331 16.0568C10.1936 16.9678 10.3489 17.9813 10.4988 18.9613C10.6018 19.6354 10.6991 20.2721 10.5854 20.7737C10.4786 21.244 10.1242 21.7594 9.74884 22.3049C9.20372 23.0972 8.58612 23.9956 8.58612 25.0439C8.58612 25.5134 8.71048 25.9525 8.89626 26.3657H7.75261C5.94559 26.3657 4.47578 27.8355 4.47578 29.6425V31.5853H4.25453C2.44789 31.5853 0.978088 33.0551 0.978088 34.8617V37.149C0.978088 37.3085 0.990295 37.4702 1.01395 37.6301C1.01929 37.6655 1.02768 37.6999 1.0376 37.7334C0.39978 38.3316 0 39.1811 0 40.1226V42.4099C0 42.569 0.012207 42.7307 0.0358582 42.8905C0.0892639 43.2503 0.397873 43.5165 0.761414 43.5165H22.1901C22.2256 43.5165 22.2603 43.5131 22.2946 43.5081C22.942 44.212 23.6759 45.0066 24.6857 45.2362C24.8882 45.282 25.09 45.3026 25.2903 45.3026C26.0536 45.3026 26.7986 45.0077 27.5242 44.7208C28.1643 44.4675 28.7689 44.2284 29.2931 44.2284C29.8172 44.2284 30.4218 44.4675 31.0619 44.7208C31.9782 45.0832 32.9254 45.4578 33.9008 45.2362C34.9136 45.0058 35.6491 44.2062 36.2984 43.5009C36.5444 43.2331 36.7771 42.9806 37.0136 42.7654C37.3135 42.493 37.3356 42.0292 37.0636 41.7293C36.7912 41.4295 36.327 41.407 36.0271 41.6794ZM5.94292 29.6425C5.94292 28.6446 6.75468 27.8328 7.75261 27.8328H9.78355C10.1456 28.36 10.4816 28.8582 10.5854 29.314C10.6995 29.8157 10.6022 30.4523 10.4988 31.1264C10.4763 31.2733 10.4538 31.4213 10.4332 31.5693H5.94292V29.6425ZM2.44522 34.8617C2.44522 33.8642 3.25699 33.0524 4.25453 33.0524H10.3668C10.4012 33.387 10.4809 33.715 10.6331 34.0309C11.0806 34.9583 12.0197 35.495 12.8483 35.9684C13.3194 36.2377 13.7695 36.4948 14.0888 36.7885H2.44522V34.8617ZM1.46713 40.1226C1.46713 39.1247 2.2789 38.3133 3.27644 38.3133H14.8846C14.9197 38.4254 14.9548 38.5391 14.9902 38.6547C15.2813 39.6088 15.5823 40.5949 16.3815 41.2334C17.1768 41.8686 18.203 41.9433 19.1952 42.0158C19.3394 42.0265 19.4813 42.0372 19.6209 42.0494H1.46713V40.1226Z" fill="#0E0821"/>
<path d="M48.8374 27.7828C49.3825 26.9905 50.0001 26.0922 50.0001 25.0439C50.0001 23.9956 49.3825 23.0976 48.8374 22.3049C48.462 21.7594 48.1076 21.2441 48.0008 20.7737C47.8867 20.2721 47.9844 19.6354 48.0874 18.9613C48.2373 17.9813 48.3926 16.9678 47.9531 16.0568C47.5056 15.1295 46.5665 14.5928 45.7379 14.1194C45.1543 13.7859 44.603 13.4709 44.2929 13.0821C43.9793 12.6896 43.7932 12.0793 43.596 11.433C43.3049 10.479 43.0039 9.49251 42.2047 8.85431C41.4094 8.21916 40.3832 8.14439 39.391 8.07153C38.7147 8.02232 38.0757 7.9754 37.6187 7.75491C37.177 7.54167 36.7501 7.0778 36.2981 6.58685C35.6492 5.88151 34.9137 5.08195 33.9005 4.85154C32.9255 4.62991 31.9779 5.00451 31.062 5.36691C30.4219 5.62021 29.8173 5.85939 29.2931 5.85939C28.769 5.85939 28.164 5.62021 27.5239 5.36691C26.608 5.00451 25.6608 4.62991 24.6854 4.85154C23.6722 5.08195 22.9367 5.88151 22.2878 6.58685C21.8362 7.0778 21.4093 7.54167 20.9676 7.75491C20.5106 7.9754 19.8712 8.02194 19.1949 8.07153C18.2027 8.14401 17.1769 8.21916 16.3815 8.85431C15.5823 9.49251 15.2692 10.5187 14.9926 11.4243C14.8743 11.8118 15.0925 12.2215 15.4801 12.3398C15.8677 12.4581 16.2778 12.2399 16.396 11.8523C16.631 11.0825 16.8526 10.3554 17.2967 10.0006C17.7373 9.64929 18.4972 9.59359 19.3017 9.53485C20.0856 9.47763 20.8962 9.4185 21.605 9.07632C22.2993 8.74139 22.8421 8.15088 23.3678 7.5802C23.9205 6.979 24.4427 6.41137 25.0108 6.28244C25.5433 6.16113 26.2433 6.43808 26.9845 6.73105C27.7241 7.02363 28.4894 7.32614 29.2931 7.32614C30.0969 7.32614 30.8617 7.02363 31.6018 6.73105C32.343 6.43808 33.0426 6.16113 33.5755 6.28244C34.1435 6.41137 34.6658 6.979 35.2185 7.5802C35.7438 8.15126 36.287 8.74139 36.9813 9.07632C37.69 9.4185 38.5003 9.47763 39.2842 9.53485C40.0891 9.59398 40.849 9.64929 41.2892 10.001C41.7336 10.3554 41.9568 11.0867 42.1929 11.8611C42.4214 12.6106 42.6583 13.3858 43.1466 13.9977C43.6318 14.6057 44.3326 15.0059 45.0101 15.3931C45.7158 15.7963 46.3822 16.1774 46.6317 16.6943C46.8735 17.1955 46.7587 17.9455 46.637 18.7397C46.518 19.5194 46.3944 20.3259 46.5703 21.0991C46.7397 21.8437 47.1913 22.501 47.6285 23.1365C48.0935 23.8129 48.5329 24.4515 48.5329 25.0439C48.5329 25.6367 48.0935 26.2753 47.6285 26.9516C47.1913 27.5871 46.7397 28.2444 46.5703 28.989C46.3944 29.7623 46.518 30.5687 46.637 31.3484C46.7587 32.1423 46.8735 32.8922 46.6317 33.3935C46.3822 33.9108 45.7158 34.2915 45.0101 34.6947C44.3326 35.0819 43.6318 35.4824 43.1466 36.0901C42.6579 36.702 42.4214 37.4771 42.1929 38.2267C41.9564 39.0011 41.7332 39.7324 41.2892 40.0871C40.849 40.4385 40.0891 40.4942 39.2842 40.5529L39.058 40.5697C38.654 40.6006 38.3515 40.9531 38.3824 41.3571C38.4118 41.742 38.7334 42.0349 39.1133 42.0349C39.132 42.0349 39.1507 42.0342 39.1698 42.0326L39.3914 42.0162C40.3836 41.9438 41.4094 41.8686 42.2047 41.2335C43.0043 40.5953 43.3053 39.6088 43.5963 38.6551C43.7936 38.0089 43.9797 37.3985 44.2933 37.0056C44.6034 36.6173 45.1546 36.3022 45.7383 35.9688C46.5668 35.495 47.5056 34.9587 47.9531 34.0313C48.3926 33.1204 48.2377 32.1068 48.0878 31.1264C47.9844 30.4524 47.8871 29.8157 48.0008 29.3144C48.1076 28.8437 48.462 28.3283 48.8374 27.7828Z" fill="#0E0821"/>
<path d="M22.9238 18.6696C22.9238 17.1681 21.7023 15.947 20.2008 15.947C18.6994 15.947 17.4783 17.1685 17.4783 18.6696C17.4783 20.171 18.6997 21.3925 20.2008 21.3925C21.7023 21.3925 22.9238 20.171 22.9238 18.6696ZM18.9454 18.6696C18.9454 17.9772 19.5085 17.4142 20.2008 17.4142C20.8932 17.4142 21.4566 17.9772 21.4566 18.6696C21.4566 19.3619 20.8932 19.9254 20.2008 19.9254C19.5085 19.9254 18.9454 19.3619 18.9454 18.6696Z" fill="#0E0821"/>
<path d="M41.6676 26.5419C43.1691 26.5419 44.3905 25.3208 44.3905 23.8194C44.3905 22.3179 43.1691 21.0964 41.6676 21.0964C40.1665 21.0964 38.9451 22.3179 38.9451 23.8194C38.9451 25.3208 40.1665 26.5419 41.6676 26.5419ZM41.6676 22.5636C42.36 22.5636 42.9234 23.127 42.9234 23.8194C42.9234 24.5117 42.36 25.0748 41.6676 25.0748C40.9753 25.0748 40.4122 24.5117 40.4122 23.8194C40.4122 23.127 40.9753 22.5636 41.6676 22.5636Z" fill="#0E0821"/>
<path d="M27.4265 23.8194C27.4265 25.0081 28.3935 25.9751 29.5822 25.9751C30.7709 25.9751 31.7383 25.0081 31.7383 23.8194C31.7383 22.6307 30.7712 21.6633 29.5822 21.6633C28.3935 21.6633 27.4265 22.6307 27.4265 23.8194ZM30.2711 23.8194C30.2711 24.199 29.9621 24.5079 29.5822 24.5079C29.2026 24.5079 28.8936 24.199 28.8936 23.8194C28.8936 23.4395 29.2026 23.1305 29.5822 23.1305C29.9621 23.1305 30.2711 23.4395 30.2711 23.8194Z" fill="#0E0821"/>
<path d="M21.6203 35.5079C23.9045 35.5079 25.7626 33.6494 25.7626 31.3655C25.7626 29.0813 23.9045 27.2231 21.6203 27.2231C19.3364 27.2231 17.4783 29.0813 17.4783 31.3655C17.4783 33.6494 19.3364 35.5079 21.6203 35.5079ZM21.6203 28.6903C23.0954 28.6903 24.2955 29.8904 24.2955 31.3655C24.2955 32.8407 23.0954 34.0408 21.6203 34.0408C20.1451 34.0408 18.9454 32.8407 18.9454 31.3655C18.9454 29.8904 20.1451 28.6903 21.6203 28.6903Z" fill="#0E0821"/>
<path d="M37.2539 13.639C37.2539 11.5574 35.5606 9.86401 33.4789 9.86401C31.3976 9.86401 29.7039 11.5574 29.7039 13.639C29.7039 15.7203 31.3976 17.4141 33.4789 17.4141C35.5606 17.4141 37.2539 15.7203 37.2539 13.639ZM31.171 13.639C31.171 12.3665 32.2063 11.3311 33.4789 11.3311C34.7515 11.3311 35.7868 12.3665 35.7868 13.639C35.7868 14.9116 34.7515 15.9469 33.4789 15.9469C32.2063 15.9469 31.171 14.9116 31.171 13.639Z" fill="#0E0821"/>
<path d="M35.3917 29.261C33.3104 29.261 31.6167 30.9543 31.6167 33.036C31.6167 35.1173 33.3104 36.811 35.3917 36.811C37.4734 36.811 39.1671 35.1173 39.1671 33.036C39.1671 30.9543 37.4734 29.261 35.3917 29.261ZM35.3917 35.3439C34.1191 35.3439 33.0838 34.3086 33.0838 33.036C33.0838 31.7634 34.1191 30.7281 35.3917 30.7281C36.6647 30.7281 37.7 31.7634 37.7 33.036C37.7 34.3086 36.6647 35.3439 35.3917 35.3439Z" fill="#0E0821"/>
</g>
<defs>
<clipPath id="clip0_124_5017">
<rect width="50" height="50" fill="white"/>
</clipPath>
</defs>
</svg>
