<svg width="50" height="50" viewBox="0 0 50 50" fill="none" xmlns="http://www.w3.org/2000/svg">
<g clip-path="url(#clip0_124_4888)">
<path fill-rule="evenodd" clip-rule="evenodd" d="M0 47.5579C0 47.1534 0.327916 46.8254 0.732422 46.8254H49.2676C49.6721 46.8254 50 47.1534 50 47.5579C50 47.9624 49.6721 48.2903 49.2676 48.2903H0.732422C0.327916 48.2903 0 47.9624 0 47.5579Z" fill="#0E0821"/>
<path fill-rule="evenodd" clip-rule="evenodd" d="M0 23.5341C0 23.1296 0.327916 22.8016 0.732422 22.8016H49.2676C49.6721 22.8016 50 23.1296 50 23.5341C50 23.9386 49.6721 24.2665 49.2676 24.2665H0.732422C0.327916 24.2665 0 23.9386 0 23.5341Z" fill="#0E0821"/>
<path fill-rule="evenodd" clip-rule="evenodd" d="M27.6809 33.6245C26.9551 33.925 26.1009 34.1165 24.999 34.1165C23.1317 34.1165 22.0108 33.5654 21.0596 32.9436C20.8597 32.8129 20.6751 32.6859 20.4981 32.5642C19.8352 32.1081 19.2799 31.726 18.433 31.5036C18.0418 31.4008 17.8079 31.0003 17.9107 30.6091C18.0135 30.2179 18.4139 29.984 18.8052 30.0868C19.9233 30.3805 20.7256 30.9364 21.4092 31.4101C21.5653 31.5182 21.7151 31.6221 21.8611 31.7175C22.6444 32.2295 23.4902 32.6516 24.999 32.6516C25.9195 32.6516 26.5821 32.494 27.1204 32.2711C27.6706 32.0432 28.1164 31.7382 28.6278 31.3853L28.6481 31.3713C29.143 31.0296 29.7027 30.6432 30.4069 30.3516C31.1327 30.051 31.9869 29.8596 33.0888 29.8596C34.1905 29.8596 35.0446 30.051 35.7702 30.3516C36.4741 30.6432 37.0338 31.0296 37.5285 31.3712L37.549 31.3853C38.0603 31.7383 38.506 32.0432 39.0563 32.2711C39.5945 32.494 40.2572 32.6516 41.1777 32.6516C42.0982 32.6516 42.7608 32.494 43.2991 32.2711C43.8494 32.0432 44.2951 31.7382 44.8065 31.3853L44.8268 31.3713C45.3217 31.0296 45.8815 30.6432 46.5856 30.3516C47.3114 30.051 48.1656 29.8596 49.2675 29.8596C49.672 29.8596 49.9999 30.1875 49.9999 30.592C49.9999 30.9965 49.672 31.3245 49.2675 31.3245C48.347 31.3245 47.6844 31.4821 47.1461 31.705C46.5958 31.9329 46.15 32.2378 45.6387 32.5908L45.6183 32.6048C45.1235 32.9464 44.5637 33.3329 43.8596 33.6245C43.1338 33.925 42.2796 34.1165 41.1777 34.1165C40.0757 34.1165 39.2215 33.925 38.4958 33.6245C37.7916 33.3328 37.2318 32.9463 36.7369 32.6047L36.7168 32.5908C36.2054 32.2378 35.7597 31.9328 35.2096 31.705C34.6715 31.482 34.009 31.3245 33.0888 31.3245C32.1683 31.3245 31.5056 31.4821 30.9674 31.705C30.4171 31.9329 29.9713 32.2378 29.4599 32.5908L29.4396 32.6048C28.9448 32.9464 28.385 33.3329 27.6809 33.6245Z" fill="#0E0821"/>
<path fill-rule="evenodd" clip-rule="evenodd" d="M0 30.592C0 30.1875 0.327916 29.8596 0.732422 29.8596C1.83436 29.8596 2.68857 30.051 3.41433 30.3516C4.11854 30.6433 4.67833 31.0297 5.17318 31.3714L5.19332 31.3853C5.70466 31.7383 6.15036 32.0432 6.70048 32.2711C7.2386 32.494 7.90104 32.6516 8.82129 32.6516C10.3306 32.6516 11.1767 32.2295 11.9599 31.7176C12.1059 31.6222 12.2558 31.5184 12.4118 31.4103C13.0953 30.9367 13.8975 30.381 15.0153 30.0877C15.4066 29.985 15.807 30.219 15.9096 30.6103C16.0123 31.0015 15.7783 31.4019 15.3871 31.5046C14.5407 31.7267 13.9857 32.1084 13.3229 32.5643C13.1459 32.6861 12.9613 32.8131 12.7613 32.9438C11.8101 33.5654 10.689 34.1165 8.82129 34.1165C7.71957 34.1165 6.86553 33.925 6.13988 33.6244C5.43597 33.3329 4.87633 32.9465 4.38159 32.6049L4.36113 32.5908C3.84982 32.2378 3.40406 31.9329 2.85383 31.705C2.31558 31.4821 1.65294 31.3245 0.732422 31.3245C0.327916 31.3245 0 30.9965 0 30.592Z" fill="#0E0821"/>
<path fill-rule="evenodd" clip-rule="evenodd" d="M45.6769 42.0255C44.9933 42.4994 44.1909 43.0556 43.0727 43.3493C42.6815 43.452 42.281 43.2182 42.1783 42.8269C42.0755 42.4357 42.3093 42.0352 42.7006 41.9325C43.5474 41.7101 44.1026 41.3279 44.7656 40.8717C44.9426 40.7498 45.1273 40.6227 45.3272 40.492C46.2785 39.8699 47.3997 39.3186 49.2675 39.3186C49.672 39.3186 49.9999 39.6465 49.9999 40.051C49.9999 40.4555 49.672 40.7834 49.2675 40.7834C47.7583 40.7834 46.9123 41.2057 46.1289 41.718C45.9829 41.8135 45.833 41.9174 45.6769 42.0255Z" fill="#0E0821"/>
<path fill-rule="evenodd" clip-rule="evenodd" d="M0 40.051C0 39.6465 0.327916 39.3186 0.732422 39.3186C1.8344 39.3186 2.68863 39.5101 3.41442 39.8108C4.11864 40.1025 4.67843 40.4892 5.17328 40.8309L5.19342 40.8448C5.70476 41.198 6.15045 41.503 6.70056 41.731C7.23866 41.9539 7.90107 42.1116 8.82129 42.1116C9.74177 42.1116 10.4044 41.9539 10.9426 41.7309C11.4928 41.503 11.9386 41.1979 12.4499 40.8448L12.4704 40.8307C12.9651 40.489 13.5247 40.1025 14.2287 39.8108C14.9543 39.5101 15.8084 39.3186 16.9102 39.3186C18.0121 39.3186 18.8664 39.5101 19.5922 39.8108C20.2964 40.1025 20.8562 40.4892 21.351 40.8309L21.3712 40.8448C21.8825 41.198 22.3282 41.503 22.8783 41.731C23.4164 41.9539 24.0788 42.1116 24.999 42.1116C25.9195 42.1116 26.5821 41.9539 27.1204 41.7309C27.6706 41.503 28.1164 41.1979 28.6278 40.8448L28.6481 40.8308C29.1429 40.4891 29.7027 40.1025 30.4069 39.8108C31.1327 39.5101 31.9869 39.3186 33.0889 39.3186C34.9562 39.3186 36.0772 39.87 37.0283 40.492C37.2282 40.6227 37.4127 40.7497 37.5897 40.8715C38.2526 41.3278 38.808 41.71 39.6548 41.9325C40.0461 42.0352 40.2799 42.4357 40.1771 42.8269C40.0744 43.2182 39.6739 43.452 39.2827 43.3493C38.1644 43.0555 37.362 42.4993 36.6783 42.0254C36.5223 41.9173 36.3725 41.8134 36.2266 41.718C35.4433 41.2057 34.5975 40.7834 33.0889 40.7834C32.1684 40.7834 31.5058 40.9411 30.9675 41.1641C30.4173 41.392 29.9715 41.6971 29.4601 42.0502L29.4398 42.0642C28.945 42.406 28.3852 42.7925 27.681 43.0842C26.9552 43.3849 26.101 43.5764 24.999 43.5764C23.8973 43.5764 23.0432 43.3849 22.3175 43.0842C21.6136 42.7925 21.054 42.406 20.5592 42.0643L20.5388 42.0502C20.0275 41.6971 19.5817 41.392 19.0315 41.1641C18.4933 40.9411 17.8306 40.7834 16.9102 40.7834C15.9899 40.7834 15.3275 40.9411 14.7894 41.1641C14.2393 41.392 13.7936 41.6971 13.2823 42.0502L13.2621 42.0641C12.7673 42.4059 12.2075 42.7925 11.5033 43.0842C10.7775 43.3849 9.92327 43.5764 8.82129 43.5764C7.71953 43.5764 6.86547 43.3849 6.1398 43.0842C5.43587 42.7925 4.87623 42.406 4.3815 42.0643L4.36103 42.0502C3.84972 41.6971 3.40396 41.392 2.85374 41.1641C2.31552 40.9411 1.65291 40.7834 0.732422 40.7834C0.327916 40.7834 0 40.4555 0 40.051Z" fill="#0E0821"/>
<path fill-rule="evenodd" clip-rule="evenodd" d="M25 36.8936C24.3258 36.8936 23.7793 37.4401 23.7793 38.1143C23.7793 38.7884 24.3258 39.335 25 39.335C25.6742 39.335 26.2207 38.7884 26.2207 38.1143C26.2207 37.4401 25.6742 36.8936 25 36.8936ZM22.3145 38.1143C22.3145 36.6311 23.5168 35.4287 25 35.4287C26.4832 35.4287 27.6855 36.6311 27.6855 38.1143C27.6855 39.5974 26.4832 40.7998 25 40.7998C23.5168 40.7998 22.3145 39.5974 22.3145 38.1143Z" fill="#0E0821"/>
<path fill-rule="evenodd" clip-rule="evenodd" d="M8.82129 36.8936C8.14711 36.8936 7.60059 37.4401 7.60059 38.1143C7.60059 38.7884 8.14711 39.335 8.82129 39.335C9.49546 39.335 10.042 38.7884 10.042 38.1143C10.042 37.4401 9.49546 36.8936 8.82129 36.8936ZM6.13574 38.1143C6.13574 36.6311 7.3381 35.4287 8.82129 35.4287C10.3045 35.4287 11.5068 36.6311 11.5068 38.1143C11.5068 39.5974 10.3045 40.7998 8.82129 40.7998C7.3381 40.7998 6.13574 39.5974 6.13574 38.1143Z" fill="#0E0821"/>
<path fill-rule="evenodd" clip-rule="evenodd" d="M41.178 36.8936C40.5038 36.8936 39.9573 37.4401 39.9573 38.1143C39.9573 38.7884 40.5038 39.335 41.178 39.335C41.8522 39.335 42.3987 38.7884 42.3987 38.1143C42.3987 37.4401 41.8522 36.8936 41.178 36.8936ZM38.4924 38.1143C38.4924 36.6311 39.6948 35.4287 41.178 35.4287C42.6612 35.4287 43.8635 36.6311 43.8635 38.1143C43.8635 39.5974 42.6612 40.7998 41.178 40.7998C39.6948 40.7998 38.4924 39.5974 38.4924 38.1143Z" fill="#0E0821"/>
<path fill-rule="evenodd" clip-rule="evenodd" d="M16.9104 34.2963C16.5059 34.2963 16.178 34.6242 16.178 35.0287C16.178 35.4332 16.5059 35.7611 16.9104 35.7611C17.3149 35.7611 17.6428 35.4332 17.6428 35.0287C17.6428 34.6242 17.3149 34.2963 16.9104 34.2963ZM14.7131 35.0287C14.7131 33.8152 15.6969 32.8314 16.9104 32.8314C18.1239 32.8314 19.1077 33.8152 19.1077 35.0287C19.1077 36.2422 18.1239 37.226 16.9104 37.226C15.6969 37.226 14.7131 36.2422 14.7131 35.0287Z" fill="#0E0821"/>
<path fill-rule="evenodd" clip-rule="evenodd" d="M33.0884 34.2963C32.6839 34.2963 32.356 34.6242 32.356 35.0287C32.356 35.4332 32.6839 35.7611 33.0884 35.7611C33.4929 35.7611 33.8208 35.4332 33.8208 35.0287C33.8208 34.6242 33.4929 34.2963 33.0884 34.2963ZM30.8911 35.0287C30.8911 33.8152 31.8749 32.8314 33.0884 32.8314C34.3019 32.8314 35.2856 33.8152 35.2856 35.0287C35.2856 36.2422 34.3019 37.226 33.0884 37.226C31.8749 37.226 30.8911 36.2422 30.8911 35.0287Z" fill="#0E0821"/>
<path fill-rule="evenodd" clip-rule="evenodd" d="M49.2676 34.2963C48.8631 34.2963 48.5352 34.6242 48.5352 35.0287C48.5352 35.4332 48.8631 35.7611 49.2676 35.7611C49.6721 35.7611 50 36.089 50 36.4935C50 36.898 49.6721 37.226 49.2676 37.226C48.0541 37.226 47.0703 36.2422 47.0703 35.0287C47.0703 33.8152 48.0541 32.8314 49.2676 32.8314C49.6721 32.8314 50 33.1593 50 33.5638C50 33.9683 49.6721 34.2963 49.2676 34.2963Z" fill="#0E0821"/>
<path fill-rule="evenodd" clip-rule="evenodd" d="M0 33.5638C0 33.1593 0.327916 32.8314 0.732422 32.8314C1.94591 32.8314 2.92969 33.8152 2.92969 35.0287C2.92969 36.2422 1.94591 37.226 0.732422 37.226C0.327916 37.226 0 36.898 0 36.4935C0 36.089 0.327916 35.7611 0.732422 35.7611C1.1369 35.7611 1.46484 35.4332 1.46484 35.0287C1.46484 34.6242 1.1369 34.2963 0.732422 34.2963C0.327916 34.2963 0 33.9683 0 33.5638Z" fill="#0E0821"/>
<path d="M9.55371 29.9161C9.55371 30.3206 9.22579 30.6486 8.82129 30.6486C8.41678 30.6486 8.08887 30.3206 8.08887 29.9161C8.08887 29.5116 8.41678 29.1837 8.82129 29.1837C9.22579 29.1837 9.55371 29.5116 9.55371 29.9161Z" fill="#0E0821"/>
<path d="M12.4836 27.0024C12.4836 27.4069 12.1557 27.7349 11.7512 27.7349C11.3467 27.7349 11.0188 27.4069 11.0188 27.0024C11.0188 26.5979 11.3467 26.27 11.7512 26.27C12.1557 26.27 12.4836 26.5979 12.4836 27.0024Z" fill="#0E0821"/>
<path d="M6.62378 27.0024C6.62378 27.4069 6.29586 27.7349 5.89136 27.7349C5.48685 27.7349 5.15894 27.4069 5.15894 27.0024C5.15894 26.5979 5.48685 26.27 5.89136 26.27C6.29586 26.27 6.62378 26.5979 6.62378 27.0024Z" fill="#0E0821"/>
<path d="M25.7324 29.9161C25.7324 30.3206 25.4045 30.6486 25 30.6486C24.5955 30.6486 24.2676 30.3206 24.2676 29.9161C24.2676 29.5116 24.5955 29.1837 25 29.1837C25.4045 29.1837 25.7324 29.5116 25.7324 29.9161Z" fill="#0E0821"/>
<path d="M28.6624 27.0024C28.6624 27.4069 28.3344 27.7349 27.9299 27.7349C27.5254 27.7349 27.1975 27.4069 27.1975 27.0024C27.1975 26.5979 27.5254 26.27 27.9299 26.27C28.3344 26.27 28.6624 26.5979 28.6624 27.0024Z" fill="#0E0821"/>
<path d="M22.8025 27.0024C22.8025 27.4069 22.4746 27.7349 22.0701 27.7349C21.6656 27.7349 21.3376 27.4069 21.3376 27.0024C21.3376 26.5979 21.6656 26.27 22.0701 26.27C22.4746 26.27 22.8025 26.5979 22.8025 27.0024Z" fill="#0E0821"/>
<path d="M41.9104 29.9161C41.9104 30.3206 41.5825 30.6486 41.178 30.6486C40.7735 30.6486 40.4456 30.3206 40.4456 29.9161C40.4456 29.5116 40.7735 29.1837 41.178 29.1837C41.5825 29.1837 41.9104 29.5116 41.9104 29.9161Z" fill="#0E0821"/>
<path d="M44.8403 27.0024C44.8403 27.4069 44.5124 27.7349 44.1079 27.7349C43.7034 27.7349 43.3755 27.4069 43.3755 27.0024C43.3755 26.5979 43.7034 26.27 44.1079 26.27C44.5124 26.27 44.8403 26.5979 44.8403 27.0024Z" fill="#0E0821"/>
<path d="M38.9805 27.0024C38.9805 27.4069 38.6526 27.7349 38.248 27.7349C37.8435 27.7349 37.5156 27.4069 37.5156 27.0024C37.5156 26.5979 37.8435 26.27 38.248 26.27C38.6526 26.27 38.9805 26.5979 38.9805 27.0024Z" fill="#0E0821"/>
<path d="M33.8213 27.7248C33.8213 28.1293 33.4934 28.4572 33.0889 28.4572C32.6844 28.4572 32.3564 28.1293 32.3564 27.7248C32.3564 27.3203 32.6844 26.9924 33.0889 26.9924C33.4934 26.9924 33.8213 27.3203 33.8213 27.7248Z" fill="#0E0821"/>
<path d="M17.6428 27.7248C17.6428 28.1293 17.3149 28.4572 16.9104 28.4572C16.5059 28.4572 16.178 28.1293 16.178 27.7248C16.178 27.3203 16.5059 26.9924 16.9104 26.9924C17.3149 26.9924 17.6428 27.3203 17.6428 27.7248Z" fill="#0E0821"/>
<path fill-rule="evenodd" clip-rule="evenodd" d="M1.89264 11.0687C2.2556 11.2472 2.4051 11.6862 2.22654 12.0492C1.73881 13.0406 1.46484 14.1558 1.46484 15.3372C1.46484 19.4546 4.79801 22.7932 8.91332 22.802C8.91409 22.802 8.91486 22.802 8.91565 22.8019C8.92521 22.8015 8.93844 22.8011 8.9541 22.8011C9.35861 22.8011 9.68652 23.129 9.68652 23.5335C9.68652 23.9302 9.37114 24.2532 8.97744 24.2655C8.97521 24.2657 8.97255 24.2658 8.96957 24.2659C8.96056 24.2664 8.94659 24.2669 8.92969 24.2669C3.99784 24.2669 0 20.269 0 15.3372C0 13.9268 0.327593 12.5908 0.912132 11.4026C1.09069 11.0396 1.52967 10.8901 1.89264 11.0687Z" fill="#0E0821"/>
<path fill-rule="evenodd" clip-rule="evenodd" d="M7.0268 8.11812C6.92036 8.58505 6.86428 9.07011 6.86428 9.56766C6.86428 13.1598 9.77536 16.0696 13.3672 16.0696H23.8477C24.2522 16.0696 24.5801 15.7417 24.5801 15.3372C24.5801 14.9327 24.2522 14.6048 23.8477 14.6048H13.3672C10.5841 14.6048 8.32912 12.3505 8.32912 9.56766C8.32912 9.10795 8.3906 8.66382 8.50556 8.24145L8.50562 8.24125C8.75748 7.31483 7.94503 6.40586 6.97084 6.62442C5.57278 6.93746 4.29904 7.57833 3.23467 8.46087C2.92328 8.71907 2.88016 9.1808 3.13835 9.49219C3.39655 9.80357 3.85828 9.84669 4.16967 9.5885C4.99269 8.90608 5.96379 8.39751 7.0268 8.11812ZM7.29092 8.05386L7.29153 8.05373L7.29092 8.05386Z" fill="#0E0821"/>
<path fill-rule="evenodd" clip-rule="evenodd" d="M37.2424 18.7032C37.6469 18.7032 37.9749 19.0311 37.9749 19.4356C37.9749 22.1034 35.8122 24.2662 33.1443 24.2662C32.7398 24.2662 32.4119 23.9383 32.4119 23.5338C32.4119 23.1292 32.7398 22.8013 33.1443 22.8013C35.0031 22.8013 36.51 21.2944 36.51 19.4356C36.51 19.0311 36.8379 18.7032 37.2424 18.7032Z" fill="#0E0821"/>
<path fill-rule="evenodd" clip-rule="evenodd" d="M49.8994 2.07187C50.1038 2.4209 49.9866 2.86959 49.6376 3.07405L36.3211 10.8747C36.2088 10.9405 36.081 10.9752 35.9509 10.9752H29.4463C29.0418 10.9752 28.7139 10.6473 28.7139 10.2428C28.7139 9.83825 29.0418 9.51033 29.4463 9.51033H35.7521L48.8972 1.8101C49.2462 1.60564 49.6949 1.72284 49.8994 2.07187Z" fill="#0E0821"/>
<path fill-rule="evenodd" clip-rule="evenodd" d="M24.1777 14.6601C24.5516 14.5058 24.9798 14.6839 25.134 15.0578C25.9692 17.0822 27.962 18.5051 30.2861 18.5051H31.3798C31.7843 18.5051 32.1123 18.8331 32.1123 19.2376C32.1123 19.6421 31.7843 19.97 31.3798 19.97H30.2861C27.3484 19.97 24.8334 18.1702 23.7799 15.6165C23.6256 15.2426 23.8037 14.8144 24.1777 14.6601Z" fill="#0E0821"/>
<path fill-rule="evenodd" clip-rule="evenodd" d="M49.9214 13.7336C50.1037 14.0947 49.9588 14.5352 49.5978 14.7175L42.4083 18.3484C40.2971 19.4148 37.9652 19.97 35.5996 19.97H34.7979C34.3933 19.97 34.0654 19.6421 34.0654 19.2376C34.0654 18.8331 34.3933 18.5052 34.7979 18.5052H35.5996C37.7359 18.5052 39.8416 18.0038 41.7479 17.0409L48.9374 13.41C49.2985 13.2276 49.739 13.3725 49.9214 13.7336Z" fill="#0E0821"/>
<path fill-rule="evenodd" clip-rule="evenodd" d="M22.633 10.9755C22.3851 10.9755 22.1841 11.1765 22.1841 11.4244V12.9413C22.1841 13.86 22.9288 14.6048 23.8476 14.6048H26.7149C28.4713 14.6048 29.8952 13.1809 29.8953 11.4244M20.7192 11.4244C20.7192 10.3674 21.5761 9.51062 22.633 9.51062H29.4464C30.5033 9.51062 31.3602 10.3674 31.3602 11.4244V11.4244C31.36 13.9898 29.2804 16.0696 26.7149 16.0696H23.8476C22.1198 16.0696 20.7192 14.669 20.7192 12.9413V11.4244ZM22.633 10.9755H29.4464H22.633ZM29.4464 10.9755C29.6943 10.9755 29.8953 11.1764 29.8953 11.4244L29.4464 10.9755Z" fill="#0E0821"/>
<path fill-rule="evenodd" clip-rule="evenodd" d="M35.7055 9.55295C36.0867 9.41745 36.5055 9.61657 36.641 9.99771L37.686 12.9371C37.8215 13.3182 37.6224 13.737 37.2413 13.8725C36.8601 14.008 36.4413 13.8089 36.3058 13.4278L35.2608 10.4884C35.1253 10.1073 35.3244 9.68846 35.7055 9.55295Z" fill="#0E0821"/>
</g>
<defs>
<clipPath id="clip0_124_4888">
<rect width="50" height="50" fill="white"/>
</clipPath>
</defs>
</svg>
