<svg width="50" height="50" viewBox="0 0 50 50" fill="none" xmlns="http://www.w3.org/2000/svg">
<g clip-path="url(#clip0_124_5069)">
<path d="M4.13745 37.9263V39.0238C4.13745 39.4281 4.46516 39.7557 4.86938 39.7557C5.2736 39.7557 5.60131 39.4281 5.60131 39.0238V37.9263C5.60131 37.5219 5.2736 37.1943 4.86938 37.1943C4.46516 37.1943 4.13745 37.522 4.13745 37.9263Z" fill="#0E0821"/>
<path d="M7.45264 37.9263V39.0238C7.45264 39.4281 7.78034 39.7557 8.18456 39.7557C8.58878 39.7557 8.91649 39.4281 8.91649 39.0238V37.9263C8.91649 37.5219 8.58878 37.1943 8.18456 37.1943C7.78034 37.1943 7.45264 37.522 7.45264 37.9263Z" fill="#0E0821"/>
<path d="M10.7681 37.9263V39.0238C10.7681 39.4281 11.0958 39.7557 11.5 39.7557C11.9042 39.7557 12.2319 39.4281 12.2319 39.0238V37.9263C12.2319 37.5219 11.9042 37.1943 11.5 37.1943C11.0958 37.1943 10.7681 37.522 10.7681 37.9263Z" fill="#0E0821"/>
<path d="M15.7419 27.6867C16.7419 27.6867 17.5555 26.8731 17.5555 25.8731V23.9754C17.5555 22.9754 16.7419 22.1617 15.7419 22.1617H8.39296C7.39296 22.1617 6.57935 22.9754 6.57935 23.9754V25.8731C6.57935 26.8731 7.39296 27.6867 8.39296 27.6867H15.7419ZM8.0432 25.8731V23.9754C8.0432 23.7824 8.20013 23.6256 8.39296 23.6256H15.7418C15.9346 23.6256 16.0916 23.7824 16.0916 23.9754V25.8731C16.0916 26.066 15.9346 26.2229 15.7418 26.2229H8.39296C8.20013 26.2229 8.0432 26.0659 8.0432 25.8731Z" fill="#0E0821"/>
<path d="M41.348 26.211C41.0588 25.9611 40.689 25.8235 40.307 25.8235H31.4409C31.0586 25.8235 30.6889 25.9611 30.3998 26.211L26.0124 30.0028C25.5562 30.3973 25.3629 31.006 25.5078 31.5916C26.2165 34.4542 27.4191 37.1461 29.0823 39.5925C30.6811 41.9443 32.6499 43.9861 34.9339 45.6612C35.2151 45.8674 35.5446 45.9704 35.8739 45.9704C36.2035 45.9704 36.533 45.8673 36.8141 45.6611C39.0978 43.9863 41.0665 41.9445 42.6656 39.5925C44.3289 37.1462 45.5315 34.4543 46.2402 31.5914C46.385 31.0058 46.1916 30.3972 45.7353 30.0027L41.348 26.211ZM44.8191 31.2399C44.1523 33.9338 43.0204 36.4672 41.455 38.7696C39.95 40.9834 38.0972 42.9048 35.9483 44.4807L35.9482 44.4808C35.9044 44.5128 35.8433 44.5128 35.7997 44.4808C33.6505 42.9047 31.7977 40.9832 30.2928 38.7696C28.7275 36.4671 27.5956 33.9336 26.9287 31.2398C26.9169 31.1921 26.9326 31.1425 26.9697 31.1104L31.3571 27.3187C31.3803 27.2986 31.41 27.2875 31.4408 27.2875H40.3069C40.3376 27.2875 40.3675 27.2987 40.3907 27.3188L44.7779 31.1104C44.8152 31.1425 44.831 31.1921 44.8191 31.2399Z" fill="#0E0821"/>
<path d="M38.836 30.6319C37.8366 29.6328 36.3359 29.2779 35.012 29.7278C33.3284 30.3005 32.2207 31.7023 32.1212 33.3862C32.0974 33.7897 32.4052 34.1362 32.8087 34.1601C32.8233 34.161 32.8381 34.1613 32.8525 34.1613C33.2369 34.1613 33.5595 33.8615 33.5825 33.4726C33.6471 32.3784 34.3576 31.4965 35.4833 31.1137C36.283 30.8418 37.1927 31.059 37.8007 31.667L38.1924 32.0586L37.1518 32.5927C36.792 32.7773 36.6501 33.2184 36.8347 33.578C37.0193 33.9379 37.4604 34.0799 37.82 33.8951L39.2802 33.1458C39.5977 32.9828 39.8202 32.6751 39.8755 32.3225C39.9307 31.97 39.813 31.6089 39.5609 31.3567L38.836 30.6319Z" fill="#0E0821"/>
<path d="M38.9393 33.7285C38.5349 33.7043 38.1893 34.0125 38.1654 34.416C38.1008 35.5102 37.3903 36.392 36.2647 36.7749C35.4651 37.0471 34.5554 36.8297 33.9473 36.2215L33.5557 35.83L34.5963 35.2959C34.956 35.1113 35.0979 34.6702 34.9133 34.3105C34.7287 33.9508 34.2876 33.8089 33.928 33.9935L32.4678 34.7428C32.1504 34.9057 31.9279 35.2134 31.8725 35.5659C31.8173 35.9184 31.9349 36.2795 32.1872 36.5318L32.9121 37.2567C33.6238 37.9683 34.5898 38.3531 35.5652 38.3531C35.9593 38.3531 36.3551 38.2902 36.736 38.1607C38.4196 37.588 39.5272 36.1862 39.6268 34.5023C39.6507 34.0989 39.3429 33.7524 38.9393 33.7285Z" fill="#0E0821"/>
<path d="M49.2506 28.5264L47.6512 27.144C47.3454 26.8798 46.8833 26.9133 46.6189 27.2191C46.3545 27.525 46.3882 27.9872 46.694 28.2514L48.2935 29.634C48.4866 29.8008 48.5737 30.0593 48.5211 30.3088L48.3473 31.1335C46.8827 38.0836 42.8134 44.0691 36.889 47.9871L36.2608 48.4026C36.026 48.558 35.7223 48.558 35.4873 48.4025L34.8593 47.9871C28.9348 44.0691 24.8655 38.0836 23.4009 31.1336L23.2272 30.3088C23.1746 30.0593 23.2617 29.8008 23.4548 29.634L29.9244 24.0425C30.0517 23.9325 30.2144 23.8719 30.3828 23.8719H41.3653C41.5336 23.8719 41.6964 23.9325 41.8237 24.0426L44.5347 26.3857C44.8405 26.6499 45.3028 26.6164 45.5672 26.3105C45.8314 26.0046 45.7978 25.5424 45.4919 25.278L42.781 22.935C42.3879 22.5952 41.885 22.408 41.3652 22.408H33.5047L30.7385 4.75715C30.3081 2.01037 27.9776 0.0166016 25.1971 0.0166016H11.0656C8.28522 0.0166016 5.95467 2.01027 5.5242 4.75715L4.57103 10.839C4.50848 11.2383 4.78144 11.6129 5.18087 11.6753C5.57953 11.7386 5.95467 11.465 6.01732 11.0656L6.97049 4.98375C7.28863 2.95378 9.0109 1.48046 11.0657 1.48046H25.1972C27.2521 1.48046 28.9744 2.95387 29.2925 4.98375L32.0232 22.408H30.383C29.8631 22.408 29.3603 22.5952 28.9672 22.9349L22.4977 28.5263C21.9018 29.0413 21.6325 29.8401 21.7949 30.6106L21.9686 31.4353C22.0804 31.9654 22.2066 32.4905 22.3473 33.0102H3.62372C3.25112 33.0102 2.89141 33.0668 2.55286 33.1717L5.57377 13.8957C5.63633 13.4964 5.36337 13.1218 4.96393 13.0593C4.5642 12.9963 4.19004 13.2697 4.12748 13.6691L0.903198 34.2427C0.341273 34.8812 0 35.7185 0 36.6338V40.3163C0 42.3145 1.62556 43.94 3.62372 43.94H18.1314C18.5356 43.94 18.8633 43.6124 18.8633 43.2081C18.8633 42.8038 18.5356 42.4762 18.1314 42.4762H3.62372C2.43273 42.4762 1.46385 41.5073 1.46385 40.3164V36.6339C1.46385 35.4431 2.43273 34.4742 3.62372 34.4742H22.7859C23.1541 35.5917 23.591 36.6824 24.0952 37.7433H19.9599C19.5556 37.7433 19.2279 38.0709 19.2279 38.4752C19.2279 38.8795 19.5556 39.2071 19.9599 39.2071H24.8444C25.2769 39.9945 25.7481 40.7637 26.2577 41.5132C26.4797 41.8396 26.7078 42.1607 26.9419 42.4763H20.9614C20.5572 42.4763 20.2295 42.8039 20.2295 43.2082C20.2295 43.6125 20.5572 43.9401 20.9614 43.9401H28.1044C29.8237 45.964 31.8152 47.7292 34.0516 49.2082L34.6797 49.6234C35.0424 49.8634 35.4583 49.9834 35.874 49.9834C36.2897 49.9834 36.7056 49.8634 37.0682 49.6235L37.6964 49.2081C40.7856 47.1648 43.4079 44.5759 45.4903 41.513C47.5726 38.45 49.0157 35.0593 49.7794 31.4352L49.9533 30.6105C50.1158 29.8399 49.8465 29.0412 49.2506 28.5264Z" fill="#0E0821"/>
</g>
<defs>
<clipPath id="clip0_124_5069">
<rect width="50" height="50" fill="white"/>
</clipPath>
</defs>
</svg>
